<?xml version="1.0" encoding="UTF-8"?>
<!DOCTYPE svg PUBLIC "-//W3C//DTD SVG 1.1//EN" "http://www.w3.org/Graphics/SVG/1.1/DTD/svg11.dtd">
<svg xmlns="http://www.w3.org/2000/svg" version="1.1" width="512px" height="512px" style="shape-rendering:geometricPrecision; text-rendering:geometricPrecision; image-rendering:optimizeQuality; fill-rule:evenodd; clip-rule:evenodd" xmlns:xlink="http://www.w3.org/1999/xlink">
<g><path style="opacity:0.973" fill="#323332" d="M 139.5,29.5 C 216.834,29.3333 294.167,29.5 371.5,30C 389.299,34.6333 401.632,45.4666 408.5,62.5C 438.021,64.3164 456.854,79.3164 465,107.5C 465.667,217.833 465.667,328.167 465,438.5C 459.292,460.078 445.792,474.245 424.5,481C 334.833,481.667 245.167,481.667 155.5,481C 125.937,471.387 107.104,451.553 99,421.5C 98.5002,412.173 98.3335,402.839 98.5,393.5C 125.405,389.425 135.905,374.092 130,347.5C 123.985,333.901 113.485,326.901 98.5,326.5C 98.5,319.833 98.5,313.167 98.5,306.5C 125.429,302.406 135.929,287.073 130,260.5C 123.948,246.966 113.448,239.966 98.5,239.5C 98.5,232.833 98.5,226.167 98.5,219.5C 119.272,217.895 130.605,206.728 132.5,186C 130.601,165.268 119.268,154.101 98.5,152.5C 98.5,145.833 98.5,139.167 98.5,132.5C 124.323,129.509 135.156,115.176 131,89.5C 126.633,75.468 117.133,67.6346 102.5,66C 102.693,60.7779 104.527,55.9445 108,51.5C 116.072,40.5587 126.572,33.2254 139.5,29.5 Z M 412.5,99.5 C 420.26,100.762 425.427,105.095 428,112.5C 428.667,219.167 428.667,325.833 428,432.5C 426.61,438.891 422.776,443.058 416.5,445C 333.5,445.667 250.5,445.667 167.5,445C 160.034,442.701 155.034,437.867 152.5,430.5C 225.498,429.667 298.498,429.167 371.5,429C 393.2,422.633 406.7,408.467 412,386.5C 412.5,290.834 412.667,195.167 412.5,99.5 Z M 247.5,135.5 C 272.763,133.205 296.096,138.705 317.5,152C 351.271,179.003 360.438,212.836 345,253.5C 337.692,267.478 327.526,278.978 314.5,288C 301.147,296.087 287.147,297.753 272.5,293C 268.642,290.642 265.642,287.475 263.5,283.5C 248.314,296.836 231.648,299.003 213.5,290C 197.164,276.341 190.664,258.841 194,237.5C 197.583,211.481 211.083,192.648 234.5,181C 244.842,177.707 255.176,177.707 265.5,181C 271.119,184.293 276.453,187.793 281.5,191.5C 281.345,187.612 282.345,184.112 284.5,181C 291.883,180.201 299.217,180.368 306.5,181.5C 307.641,183.421 307.808,185.421 307,187.5C 300.974,214.463 295.141,241.463 289.5,268.5C 289.248,271.747 290.748,273.08 294,272.5C 299.515,271.825 304.349,269.658 308.5,266C 332.463,243.72 337.296,217.887 323,188.5C 310.07,169.942 292.237,159.442 269.5,157C 213.93,154.904 182.43,181.404 175,236.5C 173.934,285.437 197.767,312.604 246.5,318C 261.583,319.03 276.583,318.363 291.5,316C 308.972,311.434 323.305,302.101 334.5,288C 341.5,287.333 348.5,287.333 355.5,288C 356.516,288.519 357.182,289.353 357.5,290.5C 355.975,294.855 353.808,298.855 351,302.5C 336.237,319.967 317.737,331.467 295.5,337C 269.274,341.88 243.274,340.88 217.5,334C 175.205,319.021 153.872,289.021 153.5,244C 154.012,205.727 169.345,175.06 199.5,152C 214.467,143.179 230.467,137.679 247.5,135.5 Z"/></g>
<g><path style="opacity:0.943" fill="#323332" d="M 53.5,81.5 C 70.5033,81.3334 87.5033,81.5001 104.5,82C 115.984,87.7825 119.151,96.6158 114,108.5C 109.952,113.276 104.785,116.109 98.5,117C 86.5,117.333 74.5,117.667 62.5,118C 59.1829,119.804 57.8496,122.637 58.5,126.5C 58.64,134.78 61.9734,141.447 68.5,146.5C 71.8777,148.334 75.211,150.167 78.5,152C 67.5217,152.295 56.8551,150.628 46.5,147C 30.8773,137.509 25.3773,123.675 30,105.5C 33.9917,93.6755 41.825,85.6755 53.5,81.5 Z"/></g>
<g><path style="opacity:0.94" fill="#323332" d="M 59.5,167.5 C 74.2168,167.087 88.8835,167.587 103.5,169C 115.003,173.508 118.836,181.674 115,193.5C 112.448,197.719 108.948,200.886 104.5,203C 91.5,203.333 78.5,203.667 65.5,204C 60.1569,204.827 57.8236,207.993 58.5,213.5C 59.9044,225.917 66.5711,234.251 78.5,238.5C 63.1816,240.213 49.3483,236.546 37,227.5C 33.8891,223.613 31.5557,219.28 30,214.5C 25.1183,189.274 34.9516,173.607 59.5,167.5 Z"/></g>
<g><path style="opacity:0.951" fill="#323332" d="M 246.5,199.5 C 264.116,199.28 273.116,208.114 273.5,226C 272.764,243.136 266.097,257.469 253.5,269C 236.019,279.674 224.519,275.174 219,255.5C 217.359,235.974 223.193,219.14 236.5,205C 239.767,202.87 243.1,201.037 246.5,199.5 Z"/></g>
<g><path style="opacity:0.933" fill="#323332" d="M 57.5,254.5 C 71.8372,254.333 86.1705,254.5 100.5,255C 115.7,259.59 119.867,269.09 113,283.5C 110.441,286.531 107.274,288.698 103.5,290C 89.54,291.221 75.54,291.888 61.5,292C 60.6667,292.833 59.8333,293.667 59,294.5C 57.4143,310.008 63.9143,320.341 78.5,325.5C 69.53,325.835 60.53,325.001 51.5,323C 31.9704,314.436 24.8038,299.603 30,278.5C 35.002,265.661 44.1687,257.661 57.5,254.5 Z"/></g>
<g><path style="opacity:0.94" fill="#323332" d="M 58.5,341.5 C 73.8829,341.082 89.2162,341.582 104.5,343C 116.572,349.219 119.405,358.385 113,370.5C 111.127,372.709 108.96,374.542 106.5,376C 92.5461,377.242 78.5461,377.909 64.5,378C 62.1523,378.346 60.3189,379.513 59,381.5C 57.3768,396.916 63.8768,407.25 78.5,412.5C 63.2162,414.211 49.3828,410.545 37,401.5C 33.8891,397.613 31.5557,393.28 30,388.5C 25.0896,363.663 34.5896,347.996 58.5,341.5 Z"/></g>
</svg>
