<?xml version="1.0" standalone="no"?>
<!DOCTYPE svg PUBLIC "-//W3C//DTD SVG 20010904//EN"
 "http://www.w3.org/TR/2001/REC-SVG-20010904/DTD/svg10.dtd">
<svg version="1.0" xmlns="http://www.w3.org/2000/svg"
 width="512.000000pt" height="512.000000pt" viewBox="0 0 512.000000 512.000000"
 preserveAspectRatio="xMidYMid meet">

<g transform="translate(0.000000,512.000000) scale(0.100000,-0.100000)"
fill="#000000" stroke="none">
<path d="M1410 4804 c-146 -31 -279 -132 -348 -262 -35 -65 -35 -82 0 -82 38
0 145 -59 183 -101 62 -69 89 -140 88 -234 -1 -175 -103 -297 -281 -336 l-52
-11 0 -88 0 -88 52 -11 c123 -27 207 -91 253 -193 23 -51 28 -76 28 -143 0
-175 -103 -297 -281 -336 l-52 -11 0 -87 0 -88 54 -11 c190 -38 307 -204 277
-390 -25 -157 -123 -250 -303 -287 l-28 -5 0 -89 0 -89 43 -6 c68 -10 158 -58
204 -108 53 -59 69 -90 83 -165 19 -109 -10 -217 -81 -297 -34 -40 -158 -106
-198 -106 -52 0 -54 -6 -49 -161 4 -115 9 -157 27 -209 36 -104 97 -198 190
-291 92 -92 172 -143 294 -188 l72 -26 1280 -3 c908 -2 1299 1 1347 8 145 25
302 137 370 266 61 114 58 14 58 1809 0 1441 -2 1648 -15 1700 -55 209 -243
366 -461 382 l-70 6 -34 66 c-70 134 -203 234 -355 266 -102 21 -2196 21
-2295 -1z m2819 -713 c16 -12 39 -41 50 -64 l21 -43 0 -1597 c0 -1103 -3
-1604 -11 -1624 -13 -34 -55 -80 -91 -99 -23 -12 -219 -14 -1268 -14 -1359 0
-1279 -3 -1343 58 -25 23 -67 91 -67 107 0 3 476 5 1058 5 1163 0 1134 -1
1261 62 80 39 186 142 223 218 61 123 58 41 58 1598 l0 1425 40 -6 c21 -3 52
-14 69 -26z m-1503 -332 c178 -19 305 -62 439 -147 168 -107 302 -297 351
-497 27 -108 25 -299 -4 -398 -73 -255 -275 -480 -492 -548 -82 -26 -209 -28
-265 -4 -44 18 -105 72 -105 92 0 19 -3 17 -74 -31 -90 -61 -148 -79 -249 -74
-105 4 -177 36 -253 112 -126 127 -176 347 -124 552 45 175 170 361 301 444
171 110 365 108 505 -6 l54 -44 6 40 c10 59 31 70 140 70 73 0 96 -4 113 -17
l22 -18 -40 -185 c-22 -102 -63 -289 -90 -417 -28 -128 -51 -243 -51 -257 0
-48 54 -41 144 19 171 113 274 345 245 550 -36 260 -205 440 -485 517 -116 32
-315 31 -439 -1 -344 -89 -564 -353 -605 -722 -28 -253 41 -479 191 -630 159
-160 472 -248 780 -219 63 6 132 15 154 21 159 43 286 112 385 212 l67 67 116
0 c106 0 116 -2 122 -20 8 -25 -16 -71 -76 -145 -144 -178 -365 -302 -624
-351 -110 -21 -373 -23 -490 -5 -456 71 -739 306 -836 696 -27 106 -35 298
-19 417 24 179 116 407 222 547 214 284 570 424 964 380z"/>
<path d="M2428 3090 c-170 -92 -280 -429 -197 -605 100 -212 379 -87 471 210
33 104 32 234 -2 299 -14 27 -42 63 -63 80 -33 26 -48 31 -105 33 -52 3 -75
-1 -104 -17z"/>
<path d="M570 4290 c-115 -24 -208 -100 -245 -201 -29 -79 -27 -215 4 -287 49
-110 176 -181 351 -197 l75 -6 -41 25 c-110 68 -174 237 -114 301 23 25 24 25
205 25 133 0 195 4 232 15 88 26 134 101 119 193 -7 48 -33 82 -87 112 -43 24
-50 25 -249 27 -113 1 -225 -2 -250 -7z"/>
<path d="M562 3419 c-103 -20 -206 -107 -239 -202 -27 -78 -24 -216 5 -282 56
-122 147 -171 376 -200 33 -5 46 -3 41 4 -3 6 -12 11 -19 11 -8 0 -32 18 -54
40 -87 84 -122 212 -72 265 23 25 25 25 199 25 97 0 196 5 221 11 85 20 140
83 140 164 0 82 -54 146 -140 164 -59 13 -394 13 -458 0z"/>
<path d="M557 2549 c-105 -25 -201 -107 -234 -202 -27 -78 -24 -216 5 -282 42
-92 116 -148 238 -178 62 -16 184 -31 184 -23 0 2 -19 15 -42 29 -106 62 -169
236 -108 297 18 18 33 20 183 20 198 0 267 10 314 46 108 82 73 249 -61 289
-56 17 -412 20 -479 4z"/>
<path d="M542 1675 c-63 -17 -93 -35 -150 -89 -94 -90 -119 -285 -51 -417 32
-64 115 -124 205 -148 49 -13 194 -29 194 -22 0 3 -17 16 -38 29 -78 48 -141
182 -121 256 5 20 18 40 27 45 9 5 107 11 217 13 190 3 202 5 244 28 24 14 53
37 64 52 25 33 34 117 17 158 -17 41 -71 87 -117 99 -58 16 -427 13 -491 -4z"/>
</g>
</svg>
