<?xml version="1.0" encoding="UTF-8"?>
<!DOCTYPE svg PUBLIC "-//W3C//DTD SVG 1.1//EN" "http://www.w3.org/Graphics/SVG/1.1/DTD/svg11.dtd">
<svg xmlns="http://www.w3.org/2000/svg" version="1.1" width="670px" height="262px" style="shape-rendering:geometricPrecision; text-rendering:geometricPrecision; image-rendering:optimizeQuality; fill-rule:evenodd; clip-rule:evenodd" xmlns:xlink="http://www.w3.org/1999/xlink">
<g><path style="opacity:1" fill="#fefefe" d="M -0.5,-0.5 C 222.833,-0.5 446.167,-0.5 669.5,-0.5C 669.5,86.8333 669.5,174.167 669.5,261.5C 446.167,261.5 222.833,261.5 -0.5,261.5C -0.5,174.167 -0.5,86.8333 -0.5,-0.5 Z"/></g>
<g><path style="opacity:1" fill="#f4ebe8" d="M 643.5,38.5 C 625.83,38.3334 608.164,38.5001 590.5,39C 588.564,39.813 586.564,40.313 584.5,40.5C 586.269,38.6026 588.602,37.436 591.5,37C 600.167,36.8333 608.833,36.6667 617.5,36.5C 626.527,36.5019 635.193,37.1685 643.5,38.5 Z"/></g>
<g><path style="opacity:1" fill="#e8d6dd" d="M 426.5,36.5 C 426.5,36.1667 426.5,35.8333 426.5,35.5C 429.839,35.8897 433.173,36.3897 436.5,37C 473.336,37.1675 510.002,37.6675 546.5,38.5C 508.832,38.6667 471.165,38.5 433.5,38C 431.482,37.4954 429.482,36.9954 427.5,36.5C 427.167,36.5 426.833,36.5 426.5,36.5 Z"/></g>
<g><path style="opacity:1" fill="#c04949" d="M 426.5,35.5 C 426.5,35.8333 426.5,36.1667 426.5,36.5C 421.833,36.5 417.167,36.5 412.5,36.5C 412.256,39.6948 410.756,40.6948 408,39.5C 406.594,40.4138 405.094,41.0805 403.5,41.5C 405.767,39.2221 408.433,37.3887 411.5,36C 416.489,35.5007 421.489,35.3341 426.5,35.5 Z"/></g>
<g><path style="opacity:1" fill="#c9302d" d="M 426.5,36.5 C 426.833,36.5 427.167,36.5 427.5,36.5C 427.5,37.5 427.5,38.5 427.5,39.5C 431.167,39.5 434.833,39.5 438.5,39.5C 444.319,40.3276 450.319,40.8276 456.5,41C 458.174,42.5059 459.174,44.3393 459.5,46.5C 466.296,47.3902 472.629,49.7235 478.5,53.5C 487.472,55.7692 496.139,58.9359 504.5,63C 506.473,66.4944 509.473,67.9944 513.5,67.5C 513.761,71.7614 516.094,74.0947 520.5,74.5C 523.677,77.1213 526.677,79.9546 529.5,83C 537.789,83.7875 542.122,88.2875 542.5,96.5C 539.833,96.5 537.167,96.5 534.5,96.5C 534.5,97.5 534.5,98.5 534.5,99.5C 530.833,99.5 527.167,99.5 523.5,99.5C 523.5,100.5 523.5,101.5 523.5,102.5C 521.5,102.5 519.5,102.5 517.5,102.5C 514.161,102.22 511.494,100.72 509.5,98C 508.207,97.51 506.873,97.3433 505.5,97.5C 504.089,95.461 502.089,94.461 499.5,94.5C 481.955,84.7758 463.288,77.7758 443.5,73.5C 443.423,72.2502 442.756,71.4169 441.5,71C 437.715,70.5926 434.048,69.7593 430.5,68.5C 425.167,67.5 419.833,66.5 414.5,65.5C 409.527,63.2401 404.194,62.2401 398.5,62.5C 398.5,58.1667 398.5,53.8333 398.5,49.5C 399.044,47.4205 399.878,45.4205 401,43.5C 401.708,42.6195 402.542,41.9528 403.5,41.5C 405.094,41.0805 406.594,40.4138 408,39.5C 410.756,40.6948 412.256,39.6948 412.5,36.5C 417.167,36.5 421.833,36.5 426.5,36.5 Z"/></g>
<g><path style="opacity:1" fill="#aa3a38" d="M 427.5,36.5 C 429.482,36.9954 431.482,37.4954 433.5,38C 471.165,38.5 508.832,38.6667 546.5,38.5C 546.5,58.1667 546.5,77.8333 546.5,97.5C 542.318,97.3204 538.318,97.987 534.5,99.5C 534.5,98.5 534.5,97.5 534.5,96.5C 537.167,96.5 539.833,96.5 542.5,96.5C 544.487,77.8627 545.154,58.8627 544.5,39.5C 509.167,39.5 473.833,39.5 438.5,39.5C 434.833,39.5 431.167,39.5 427.5,39.5C 427.5,38.5 427.5,37.5 427.5,36.5 Z"/></g>
<g><path style="opacity:1" fill="#b74241" d="M 643.5,38.5 C 643.5,46.5 643.5,54.5 643.5,62.5C 643.167,62.5 642.833,62.5 642.5,62.5C 642.5,54.8333 642.5,47.1667 642.5,39.5C 623.43,38.9763 604.43,39.6429 585.5,41.5C 585.5,42.8333 585.5,44.1667 585.5,45.5C 584.07,45.5792 582.736,45.2458 581.5,44.5C 580.719,45.7287 580.219,47.062 580,48.5C 579.586,48.0426 579.086,47.7093 578.5,47.5C 576.55,48.3721 574.55,49.0388 572.5,49.5C 576.142,46.0134 580.142,43.0134 584.5,40.5C 586.564,40.313 588.564,39.813 590.5,39C 608.164,38.5001 625.83,38.3334 643.5,38.5 Z"/></g>
<g><path style="opacity:1" fill="#b12924" d="M 438.5,39.5 C 473.833,39.5 509.167,39.5 544.5,39.5C 545.154,58.8627 544.487,77.8627 542.5,96.5C 542.122,88.2875 537.789,83.7875 529.5,83C 526.677,79.9546 523.677,77.1213 520.5,74.5C 516.094,74.0947 513.761,71.7614 513.5,67.5C 509.473,67.9944 506.473,66.4944 504.5,63C 496.139,58.9359 487.472,55.7692 478.5,53.5C 472.629,49.7235 466.296,47.3902 459.5,46.5C 459.174,44.3393 458.174,42.5059 456.5,41C 450.319,40.8276 444.319,40.3276 438.5,39.5 Z"/></g>
<g><path style="opacity:1" fill="#b22924" d="M 642.5,62.5 C 616.833,62.5 591.167,62.5 565.5,62.5C 565.5,61.5 565.5,60.5 565.5,59.5C 566.265,58.3398 567.265,57.3398 568.5,56.5C 569.429,55.3112 569.762,53.9778 569.5,52.5C 570.728,51.6935 571.728,50.6935 572.5,49.5C 574.55,49.0388 576.55,48.3721 578.5,47.5C 579.086,47.7093 579.586,48.0426 580,48.5C 580.219,47.062 580.719,45.7287 581.5,44.5C 582.736,45.2458 584.07,45.5792 585.5,45.5C 585.5,44.1667 585.5,42.8333 585.5,41.5C 604.43,39.6429 623.43,38.9763 642.5,39.5C 642.5,47.1667 642.5,54.8333 642.5,62.5 Z"/></g>
<g><path style="opacity:1" fill="#e9d1d3" d="M 358.5,45.5 C 352.797,45.3748 347.13,45.7081 341.5,46.5C 342.058,45.2101 343.058,44.3768 344.5,44C 346.833,43.8333 349.167,43.6667 351.5,43.5C 354.269,43.5286 356.603,44.1952 358.5,45.5 Z"/></g>
<g><path style="opacity:1" fill="#efcfce" d="M 546.5,38.5 C 548.488,57.4711 549.154,76.8045 548.5,96.5C 552.67,96.3331 556.67,96.9997 560.5,98.5C 560.183,94.2984 560.517,90.2984 561.5,86.5C 561.5,90.8333 561.5,95.1667 561.5,99.5C 556.32,99.1532 551.32,98.4865 546.5,97.5C 546.5,77.8333 546.5,58.1667 546.5,38.5 Z"/></g>
<g><path style="opacity:1" fill="#c92f2c" d="M 369.5,49.5 C 370.791,49.2627 371.791,49.596 372.5,50.5C 373.552,52.256 375.219,52.9227 377.5,52.5C 377.5,54.1667 377.5,55.8333 377.5,57.5C 379.167,57.5 380.833,57.5 382.5,57.5C 381.904,63.883 383.07,69.883 386,75.5C 386.333,75.1667 386.667,74.8333 387,74.5C 388.235,84.1415 387.069,93.4748 383.5,102.5C 376.392,104.531 369.059,105.697 361.5,106C 361.833,106.333 362.167,106.667 362.5,107C 355.174,107.5 347.841,107.666 340.5,107.5C 340.297,105.61 340.963,104.11 342.5,103C 347.793,100.018 353.126,97.0178 358.5,94C 360.439,93.0922 361.439,91.5922 361.5,89.5C 357.993,90.0065 354.826,89.3398 352,87.5C 352.919,84.7164 353.419,81.7164 353.5,78.5C 354.5,78.5 355.5,78.5 356.5,78.5C 356.5,74.8333 356.5,71.1667 356.5,67.5C 355.5,67.5 354.5,67.5 353.5,67.5C 353.119,66.0689 352.119,65.2355 350.5,65C 342.424,64.5976 334.424,63.7642 326.5,62.5C 326.5,61.5 326.5,60.5 326.5,59.5C 328.167,59.5 329.833,59.5 331.5,59.5C 331.5,57.8333 331.5,56.1667 331.5,54.5C 337.677,54.0434 343.343,52.21 348.5,49C 348.167,48.6667 347.833,48.3333 347.5,48C 350.167,47.8333 352.833,47.6667 355.5,47.5C 360.217,48.0058 364.883,48.6724 369.5,49.5 Z"/></g>
<g><path style="opacity:1" fill="#b83731" d="M 358.5,45.5 C 361.714,46.282 365.048,47.1153 368.5,48C 369.056,48.3826 369.389,48.8826 369.5,49.5C 364.883,48.6724 360.217,48.0058 355.5,47.5C 352.833,47.6667 350.167,47.8333 347.5,48C 347.833,48.3333 348.167,48.6667 348.5,49C 343.343,52.21 337.677,54.0434 331.5,54.5C 331.5,56.1667 331.5,57.8333 331.5,59.5C 329.833,59.5 328.167,59.5 326.5,59.5C 326.5,60.5 326.5,61.5 326.5,62.5C 325.325,62.719 324.325,62.3857 323.5,61.5C 324.63,60.3777 325.297,59.0443 325.5,57.5C 329.726,52.2823 335.059,48.6156 341.5,46.5C 347.13,45.7081 352.797,45.3748 358.5,45.5 Z"/></g>
<g><path style="opacity:1" fill="#cc9b9d" d="M 398.5,49.5 C 398.5,53.8333 398.5,58.1667 398.5,62.5C 398.167,62.5 397.833,62.5 397.5,62.5C 397.167,62.5 396.833,62.5 396.5,62.5C 396.335,58.8183 396.501,55.1516 397,51.5C 397.278,50.5842 397.778,49.9175 398.5,49.5 Z"/></g>
<g><path style="opacity:1" fill="#ba6565" d="M 569.5,52.5 C 569.762,53.9778 569.429,55.3112 568.5,56.5C 567.265,57.3398 566.265,58.3398 565.5,59.5C 565.998,56.6737 567.331,54.3403 569.5,52.5 Z"/></g>
<g><path style="opacity:1" fill="#a13738" d="M 325.5,57.5 C 325.297,59.0443 324.63,60.3777 323.5,61.5C 324.325,62.3857 325.325,62.719 326.5,62.5C 334.424,63.7642 342.424,64.5976 350.5,65C 352.119,65.2355 353.119,66.0689 353.5,67.5C 348.967,66.0165 344.301,65.3498 339.5,65.5C 338.5,65.5 337.5,65.5 336.5,65.5C 331.251,65.1413 326.251,64.1413 321.5,62.5C 322.124,60.246 323.457,58.5794 325.5,57.5 Z"/></g>
<g><path style="opacity:1" fill="#955752" d="M 565.5,59.5 C 565.5,60.5 565.5,61.5 565.5,62.5C 591.167,62.5 616.833,62.5 642.5,62.5C 642.833,62.5 643.167,62.5 643.5,62.5C 643.5,62.8333 643.5,63.1667 643.5,63.5C 617.167,63.5 590.833,63.5 564.5,63.5C 564.5,62.5 564.5,61.5 564.5,60.5C 564.5,59.8333 564.833,59.5 565.5,59.5 Z"/></g>
<g><path style="opacity:1" fill="#c29a92" d="M 564.5,60.5 C 564.5,61.5 564.5,62.5 564.5,63.5C 590.833,63.5 617.167,63.5 643.5,63.5C 617.005,64.4979 590.339,64.8312 563.5,64.5C 563.232,62.901 563.566,61.5676 564.5,60.5 Z"/></g>
<g><path style="opacity:1" fill="#c98c94" d="M 320.5,62.5 C 320.833,62.5 321.167,62.5 321.5,62.5C 326.251,64.1413 331.251,65.1413 336.5,65.5C 336.167,65.5 335.833,65.5 335.5,65.5C 331.167,65.5 326.833,65.5 322.5,65.5C 320.952,65.1788 320.285,64.1788 320.5,62.5 Z"/></g>
<g><path style="opacity:1" fill="#d39ea2" d="M 398.5,62.5 C 404.194,62.2401 409.527,63.2401 414.5,65.5C 408.678,66.0674 403.345,65.0674 398.5,62.5 Z"/></g>
<g><path style="opacity:1" fill="#bfd8e3" d="M 322.5,65.5 C 326.833,65.5 331.167,65.5 335.5,65.5C 329.141,72.8789 325.808,81.5456 325.5,91.5C 325.167,91.5 324.833,91.5 324.5,91.5C 320.97,90.9889 317.804,91.6556 315,93.5C 315.186,87.7399 316.186,82.0733 318,76.5C 320.047,73.0698 321.547,69.4031 322.5,65.5 Z"/></g>
<g><path style="opacity:1" fill="#f4ebe9" d="M 385.5,56.5 C 387.167,56.5 388.833,56.5 390.5,56.5C 390.993,58.8056 391.326,61.139 391.5,63.5C 394.205,63.3802 394.872,64.3802 393.5,66.5C 394.041,68.5352 394.708,70.5352 395.5,72.5C 396.487,69.2317 396.82,65.8984 396.5,62.5C 396.833,62.5 397.167,62.5 397.5,62.5C 397.008,74.8281 396.675,87.1614 396.5,99.5C 396.5,100.5 396.5,101.5 396.5,102.5C 395.437,104.956 394.104,107.289 392.5,109.5C 389.607,109.969 387.607,108.969 386.5,106.5C 386.5,106.167 386.5,105.833 386.5,105.5C 387.913,102.339 389.58,99.3388 391.5,96.5C 392.924,94.4855 393.59,92.1522 393.5,89.5C 393.666,83.8236 393.499,78.1569 393,72.5C 391.063,68.3543 389.729,64.021 389,59.5C 387.855,58.3636 386.688,57.3636 385.5,56.5 Z"/></g>
<g><path style="opacity:1" fill="#cbcccd" d="M 643.5,38.5 C 644.662,57.9957 644.829,77.6624 644,97.5C 643.392,99.0664 642.558,100.4 641.5,101.5C 642.275,96.5157 642.942,91.5157 643.5,86.5C 616.833,86.5 590.167,86.5 563.5,86.5C 562.833,86.5 562.167,86.5 561.5,86.5C 561.334,80.1579 561.5,73.8246 562,67.5C 562.513,66.4734 563.013,65.4734 563.5,64.5C 590.339,64.8312 617.005,64.4979 643.5,63.5C 643.5,63.1667 643.5,62.8333 643.5,62.5C 643.5,54.5 643.5,46.5 643.5,38.5 Z"/></g>
<g><path style="opacity:1" fill="#cdcacd" d="M 397.5,62.5 C 397.833,62.5 398.167,62.5 398.5,62.5C 403.345,65.0674 408.678,66.0674 414.5,65.5C 419.833,66.5 425.167,67.5 430.5,68.5C 431.119,72.1428 433.119,73.1428 436.5,71.5C 438.646,72.8936 440.979,73.5603 443.5,73.5C 463.288,77.7758 481.955,84.7758 499.5,94.5C 501.03,96.3465 503.03,97.3465 505.5,97.5C 506.873,97.3433 508.207,97.51 509.5,98C 511.494,100.72 514.161,102.22 517.5,102.5C 517.586,103.496 517.252,104.329 516.5,105C 511.154,107.003 506.487,110.003 502.5,114C 501.423,114.47 500.423,114.303 499.5,113.5C 496.12,111.617 492.787,109.617 489.5,107.5C 487.849,105.876 485.849,104.543 483.5,103.5C 481.955,102.548 480.288,102.215 478.5,102.5C 470.412,99.7733 462.412,97.1067 454.5,94.5C 452.478,92.3072 449.811,91.3072 446.5,91.5C 440.384,89.243 434.05,87.5763 427.5,86.5C 424.548,84.5902 421.214,83.5902 417.5,83.5C 410.877,82.4425 404.21,81.7758 397.5,81.5C 397.823,87.69 397.49,93.69 396.5,99.5C 396.675,87.1614 397.008,74.8281 397.5,62.5 Z"/></g>
<g><path style="opacity:1" fill="#afa5ad" d="M 339.5,65.5 C 344.301,65.3498 348.967,66.0165 353.5,67.5C 354.575,68.7134 355.241,70.2134 355.5,72C 354.909,74.239 354.242,76.4057 353.5,78.5C 353.167,78.5 352.833,78.5 352.5,78.5C 352.5,77.5 352.5,76.5 352.5,75.5C 350.856,75.2865 349.356,75.6198 348,76.5C 347.22,74.6131 347.387,72.9464 348.5,71.5C 349.718,70.8386 351.051,70.1719 352.5,69.5C 348.533,68.5283 344.533,67.6949 340.5,67C 339.944,66.6174 339.611,66.1174 339.5,65.5 Z"/></g>
<g><path style="opacity:1" fill="#d3acaf" d="M 430.5,68.5 C 434.048,69.7593 437.715,70.5926 441.5,71C 442.756,71.4169 443.423,72.2502 443.5,73.5C 440.979,73.5603 438.646,72.8936 436.5,71.5C 433.119,73.1428 431.119,72.1428 430.5,68.5 Z"/></g>
<g><path style="opacity:1" fill="#202524" d="M 348.5,71.5 C 349.5,71.5 350.5,71.5 351.5,71.5C 351.5,72.5 351.5,73.5 351.5,74.5C 350.5,74.5 349.5,74.5 348.5,74.5C 348.5,73.5 348.5,72.5 348.5,71.5 Z"/></g>
<g><path style="opacity:1" fill="#a6c2d1" d="M 335.5,65.5 C 335.833,65.5 336.167,65.5 336.5,65.5C 337.5,65.5 338.5,65.5 339.5,65.5C 339.611,66.1174 339.944,66.6174 340.5,67C 344.533,67.6949 348.533,68.5283 352.5,69.5C 351.051,70.1719 349.718,70.8386 348.5,71.5C 347.387,72.9464 347.22,74.6131 348,76.5C 349.356,75.6198 350.856,75.2865 352.5,75.5C 352.5,76.5 352.5,77.5 352.5,78.5C 350.348,84.6457 346.015,88.3123 339.5,89.5C 334.993,91.1126 330.327,91.7793 325.5,91.5C 325.808,81.5456 329.141,72.8789 335.5,65.5 Z"/></g>
<g><path style="opacity:1" fill="#9f3838" d="M 353.5,67.5 C 354.5,67.5 355.5,67.5 356.5,67.5C 356.5,71.1667 356.5,74.8333 356.5,78.5C 355.5,78.5 354.5,78.5 353.5,78.5C 354.242,76.4057 354.909,74.239 355.5,72C 355.241,70.2134 354.575,68.7134 353.5,67.5 Z"/></g>
<g><path style="opacity:1" fill="#aec3cf" d="M 320.5,62.5 C 320.285,64.1788 320.952,65.1788 322.5,65.5C 321.547,69.4031 320.047,73.0698 318,76.5C 316.186,82.0733 315.186,87.7399 315,93.5C 317.804,91.6556 320.97,90.9889 324.5,91.5C 322.5,92.5 320.5,93.5 318.5,94.5C 315.833,94.5 313.167,94.5 310.5,94.5C 310.178,88.8696 310.845,83.3696 312.5,78C 314.807,72.5505 317.473,67.3838 320.5,62.5 Z"/></g>
<g><path style="opacity:1" fill="#cd8084" d="M 417.5,83.5 C 421.214,83.5902 424.548,84.5902 427.5,86.5C 423.829,86.2429 420.495,85.2429 417.5,83.5 Z"/></g>
<g><path style="opacity:1" fill="#ae3a3c" d="M 563.5,87.5 C 563.5,87.1667 563.5,86.8333 563.5,86.5C 590.167,86.5 616.833,86.5 643.5,86.5C 642.942,91.5157 642.275,96.5157 641.5,101.5C 640.001,105.369 638.334,109.036 636.5,112.5C 639.023,104.331 640.357,95.9977 640.5,87.5C 614.833,87.5 589.167,87.5 563.5,87.5 Z"/></g>
<g><path style="opacity:1" fill="#903737" d="M 561.5,86.5 C 562.167,86.5 562.833,86.5 563.5,86.5C 563.5,86.8333 563.5,87.1667 563.5,87.5C 563.5,91.5 563.5,95.5 563.5,99.5C 566.167,99.5 568.833,99.5 571.5,99.5C 571.5,100.5 571.5,101.5 571.5,102.5C 567.909,102.055 564.576,101.055 561.5,99.5C 561.5,95.1667 561.5,90.8333 561.5,86.5 Z"/></g>
<g><path style="opacity:1" fill="#dca2a4" d="M 278.5,91.5 C 276.628,90.4886 274.628,89.6552 272.5,89C 266.509,88.5005 260.509,88.3338 254.5,88.5C 260.581,86.5883 266.914,86.0883 273.5,87C 275.618,88.0491 277.284,89.5491 278.5,91.5 Z"/></g>
<g><path style="opacity:1" fill="#c8312c" d="M 417.5,83.5 C 420.495,85.2429 423.829,86.2429 427.5,86.5C 434.05,87.5763 440.384,89.243 446.5,91.5C 448.89,93.0198 451.557,94.0198 454.5,94.5C 462.412,97.1067 470.412,99.7733 478.5,102.5C 481.645,105.113 485.311,106.779 489.5,107.5C 492.787,109.617 496.12,111.617 499.5,113.5C 499.167,116.5 497.5,118.167 494.5,118.5C 494.5,120.167 494.5,121.833 494.5,123.5C 493.5,123.5 492.5,123.5 491.5,123.5C 490.833,125.5 490.167,127.5 489.5,129.5C 488.5,129.5 487.5,129.5 486.5,129.5C 486.5,131.167 486.5,132.833 486.5,134.5C 485.5,134.5 484.5,134.5 483.5,134.5C 482.5,134.5 481.5,134.5 480.5,134.5C 480.5,133.5 480.5,132.5 480.5,131.5C 472.692,130.922 465.692,128.422 459.5,124C 452.34,121.982 445.34,119.648 438.5,117C 423.452,114.543 408.452,112.043 393.5,109.5C 396.093,107.929 397.093,105.596 396.5,102.5C 396.5,101.5 396.5,100.5 396.5,99.5C 397.49,93.69 397.823,87.69 397.5,81.5C 404.21,81.7758 410.877,82.4425 417.5,83.5 Z"/></g>
<g><path style="opacity:1" fill="#b02925" d="M 563.5,87.5 C 589.167,87.5 614.833,87.5 640.5,87.5C 640.357,95.9977 639.023,104.331 636.5,112.5C 633.999,117.506 630.999,122.173 627.5,126.5C 624.452,128.882 621.785,131.548 619.5,134.5C 618.833,134.5 618.167,134.5 617.5,134.5C 614.975,135.64 612.308,136.307 609.5,136.5C 609.5,134.833 609.5,133.167 609.5,131.5C 608.5,131.5 607.5,131.5 606.5,131.5C 605.89,129.566 604.89,127.899 603.5,126.5C 603.5,125.5 603.5,124.5 603.5,123.5C 600.5,123.167 598.833,121.5 598.5,118.5C 597.5,118.5 596.5,118.5 595.5,118.5C 595.167,115.5 593.5,113.833 590.5,113.5C 590.5,112.5 590.5,111.5 590.5,110.5C 589.5,110.5 588.5,110.5 587.5,110.5C 586.5,110.5 585.5,110.5 584.5,110.5C 584.5,109.5 584.5,108.5 584.5,107.5C 581.167,106.833 577.833,106.167 574.5,105.5C 574.5,104.5 574.5,103.5 574.5,102.5C 573.5,102.5 572.5,102.5 571.5,102.5C 571.5,101.5 571.5,100.5 571.5,99.5C 568.833,99.5 566.167,99.5 563.5,99.5C 563.5,95.5 563.5,91.5 563.5,87.5 Z"/></g>
<g><path style="opacity:1" fill="#a54a4e" d="M 339.5,89.5 C 339.5,90.5 339.5,91.5 339.5,92.5C 336.167,92.5 332.833,92.5 329.5,92.5C 325.915,93.5828 322.249,94.2494 318.5,94.5C 320.5,93.5 322.5,92.5 324.5,91.5C 324.833,91.5 325.167,91.5 325.5,91.5C 330.327,91.7793 334.993,91.1126 339.5,89.5 Z"/></g>
<g><path style="opacity:1" fill="#c8302d" d="M 254.5,88.5 C 260.509,88.3338 266.509,88.5005 272.5,89C 274.628,89.6552 276.628,90.4886 278.5,91.5C 280.555,93.5549 282.221,95.8883 283.5,98.5C 282.911,102.971 283.577,106.971 285.5,110.5C 287.135,114.135 289.802,116.802 293.5,118.5C 293.5,119.167 293.833,119.5 294.5,119.5C 294.5,119.833 294.5,120.167 294.5,120.5C 305.659,121.331 316.993,121.831 328.5,122C 324.551,122.807 324.551,123.307 328.5,123.5C 328.5,126.167 328.5,128.833 328.5,131.5C 308.586,133.209 288.586,134.043 268.5,134C 265.203,134.204 262.203,135.037 259.5,136.5C 257.833,136.5 256.167,136.5 254.5,136.5C 248.99,136.83 243.657,136.164 238.5,134.5C 236.645,130.942 234.978,127.275 233.5,123.5C 231.821,123.715 230.821,123.048 230.5,121.5C 230.5,120.5 230.5,119.5 230.5,118.5C 229.5,118.5 228.5,118.5 227.5,118.5C 225.952,118.179 225.285,117.179 225.5,115.5C 223.5,114.833 221.5,114.167 219.5,113.5C 219.5,112.5 219.5,111.5 219.5,110.5C 217.833,110.5 216.167,110.5 214.5,110.5C 213.494,106.47 210.827,104.803 206.5,105.5C 206.5,104.5 206.5,103.5 206.5,102.5C 205.5,102.5 204.5,102.5 203.5,102.5C 202.498,100.989 201.831,99.3224 201.5,97.5C 208.195,96.9952 214.862,96.1619 221.5,95C 222.571,94.1482 223.571,93.3149 224.5,92.5C 234.408,90.4229 244.408,89.0896 254.5,88.5 Z"/></g>
<g><path style="opacity:1" fill="#de9d9b" d="M 393.5,89.5 C 393.59,92.1522 392.924,94.4855 391.5,96.5C 391.171,93.7718 391.837,91.4385 393.5,89.5 Z"/></g>
<g><path style="opacity:1" fill="#c78285" d="M 446.5,91.5 C 449.811,91.3072 452.478,92.3072 454.5,94.5C 451.557,94.0198 448.89,93.0198 446.5,91.5 Z"/></g>
<g><path style="opacity:1" fill="#bc4d49" d="M 224.5,92.5 C 223.571,93.3149 222.571,94.1482 221.5,95C 214.862,96.1619 208.195,96.9952 201.5,97.5C 201.5,97.1667 201.5,96.8333 201.5,96.5C 209.201,95.2467 216.868,93.9134 224.5,92.5 Z"/></g>
<g><path style="opacity:1" fill="#c72f2b" d="M 329.5,92.5 C 332.833,92.5 336.167,92.5 339.5,92.5C 340.873,92.3433 342.207,92.51 343.5,93C 341.693,93.9277 340.026,95.0944 338.5,96.5C 333.258,98.8743 327.924,100.874 322.5,102.5C 320.579,105.596 319.246,108.93 318.5,112.5C 316.167,112.5 313.833,112.5 311.5,112.5C 311.173,107.456 311.506,102.456 312.5,97.5C 316.936,95.8028 321.603,94.9695 326.5,95C 328.119,94.7645 329.119,93.9311 329.5,92.5 Z"/></g>
<g><path style="opacity:1" fill="#d49499" d="M 499.5,94.5 C 502.089,94.461 504.089,95.461 505.5,97.5C 503.03,97.3465 501.03,96.3465 499.5,94.5 Z"/></g>
<g><path style="opacity:1" fill="#dad5d5" d="M 201.5,96.5 C 201.5,96.8333 201.5,97.1667 201.5,97.5C 199.214,97.595 197.214,98.2616 195.5,99.5C 183.09,97.8374 170.757,98.1708 158.5,100.5C 159.6,99.4415 160.934,98.6082 162.5,98C 165.833,97.6667 169.167,97.3333 172.5,97C 182.197,97.0458 191.864,96.8791 201.5,96.5 Z"/></g>
<g><path style="opacity:1" fill="#a03a42" d="M 201.5,97.5 C 201.831,99.3224 202.498,100.989 203.5,102.5C 200.921,101.344 198.255,100.344 195.5,99.5C 197.214,98.2616 199.214,97.595 201.5,97.5 Z"/></g>
<g><path style="opacity:1" fill="#ab3935" d="M 329.5,92.5 C 329.119,93.9311 328.119,94.7645 326.5,95C 321.603,94.9695 316.936,95.8028 312.5,97.5C 311.506,102.456 311.173,107.456 311.5,112.5C 313.833,112.5 316.167,112.5 318.5,112.5C 318.5,112.833 318.5,113.167 318.5,113.5C 315.975,114.64 313.308,115.307 310.5,115.5C 310.672,114.508 310.338,113.842 309.5,113.5C 309.177,106.978 309.51,100.645 310.5,94.5C 313.167,94.5 315.833,94.5 318.5,94.5C 322.249,94.2494 325.915,93.5828 329.5,92.5 Z"/></g>
<g><path style="opacity:1" fill="#7b2b34" d="M 534.5,99.5 C 530.876,100.324 527.21,101.324 523.5,102.5C 523.5,101.5 523.5,100.5 523.5,99.5C 527.167,99.5 530.833,99.5 534.5,99.5 Z"/></g>
<g><path style="opacity:1" fill="#b0534f" d="M 283.5,98.5 C 285.136,102.21 285.802,106.21 285.5,110.5C 283.577,106.971 282.911,102.971 283.5,98.5 Z"/></g>
<g><path style="opacity:1" fill="#dbabaf" d="M 478.5,102.5 C 480.288,102.215 481.955,102.548 483.5,103.5C 485.849,104.543 487.849,105.876 489.5,107.5C 485.311,106.779 481.645,105.113 478.5,102.5 Z"/></g>
<g><path style="opacity:1" fill="#b22925" d="M 372.5,50.5 C 374.482,50.9954 376.482,51.4954 378.5,52C 380.432,54.1416 382.765,55.6416 385.5,56.5C 386.688,57.3636 387.855,58.3636 389,59.5C 389.729,64.021 391.063,68.3543 393,72.5C 393.499,78.1569 393.666,83.8236 393.5,89.5C 391.837,91.4385 391.171,93.7718 391.5,96.5C 389.58,99.3388 387.913,102.339 386.5,105.5C 381.786,105.173 377.12,105.507 372.5,106.5C 374.045,107.452 375.712,107.785 377.5,107.5C 377.5,108.5 377.5,109.5 377.5,110.5C 380.833,110.5 384.167,110.5 387.5,110.5C 389.415,110.784 391.081,110.451 392.5,109.5C 394.104,107.289 395.437,104.956 396.5,102.5C 397.093,105.596 396.093,107.929 393.5,109.5C 408.452,112.043 423.452,114.543 438.5,117C 445.34,119.648 452.34,121.982 459.5,124C 465.692,128.422 472.692,130.922 480.5,131.5C 480.5,132.5 480.5,133.5 480.5,134.5C 481.5,134.5 482.5,134.5 483.5,134.5C 483.5,136.167 483.5,137.833 483.5,139.5C 482.5,139.5 481.5,139.5 480.5,139.5C 480.039,143.212 479.373,146.879 478.5,150.5C 478.5,151.5 478.5,152.5 478.5,153.5C 477.849,154.091 477.182,154.757 476.5,155.5C 475.167,164.5 475.167,173.5 476.5,182.5C 478.65,187.599 479.984,192.933 480.5,198.5C 481.5,198.5 482.5,198.5 483.5,198.5C 485.856,200.557 486.856,203.224 486.5,206.5C 487.5,206.5 488.5,206.5 489.5,206.5C 489.831,208.322 490.498,209.989 491.5,211.5C 491.5,212.5 491.5,213.5 491.5,214.5C 492.5,214.5 493.5,214.5 494.5,214.5C 494.5,215.167 494.5,215.833 494.5,216.5C 495.091,217.151 495.757,217.818 496.5,218.5C 448.838,219.5 401.171,219.833 353.5,219.5C 352.167,219.5 350.833,219.5 349.5,219.5C 343.224,218.361 338.224,215.195 334.5,210C 333.552,209.517 332.552,209.351 331.5,209.5C 331.5,208.833 331.5,208.167 331.5,207.5C 331.158,206.662 330.492,206.328 329.5,206.5C 329.5,205.5 329.5,204.5 329.5,203.5C 329.669,201.088 329.003,198.921 327.5,197C 328.707,195.7 329.374,194.2 329.5,192.5C 333.08,192.534 336.08,191.2 338.5,188.5C 339.833,172.167 339.833,155.833 338.5,139.5C 334.339,137.382 330.006,135.715 325.5,134.5C 303.416,133.968 281.416,134.634 259.5,136.5C 262.203,135.037 265.203,134.204 268.5,134C 288.586,134.043 308.586,133.209 328.5,131.5C 328.5,128.833 328.5,126.167 328.5,123.5C 324.551,123.307 324.551,122.807 328.5,122C 316.993,121.831 305.659,121.331 294.5,120.5C 305.838,120.667 317.172,120.5 328.5,120C 329.056,119.617 329.389,119.117 329.5,118.5C 333.909,117.146 338.243,115.479 342.5,113.5C 342.5,112.5 342.5,111.5 342.5,110.5C 338.167,110.5 333.833,110.5 329.5,110.5C 326.014,111.953 322.347,112.619 318.5,112.5C 319.246,108.93 320.579,105.596 322.5,102.5C 327.924,100.874 333.258,98.8743 338.5,96.5C 340.026,95.0944 341.693,93.9277 343.5,93C 342.207,92.51 340.873,92.3433 339.5,92.5C 339.5,91.5 339.5,90.5 339.5,89.5C 346.015,88.3123 350.348,84.6457 352.5,78.5C 352.833,78.5 353.167,78.5 353.5,78.5C 353.419,81.7164 352.919,84.7164 352,87.5C 354.826,89.3398 357.993,90.0065 361.5,89.5C 361.439,91.5922 360.439,93.0922 358.5,94C 353.126,97.0178 347.793,100.018 342.5,103C 340.963,104.11 340.297,105.61 340.5,107.5C 347.841,107.666 355.174,107.5 362.5,107C 362.167,106.667 361.833,106.333 361.5,106C 369.059,105.697 376.392,104.531 383.5,102.5C 387.069,93.4748 388.235,84.1415 387,74.5C 386.667,74.8333 386.333,75.1667 386,75.5C 383.07,69.883 381.904,63.883 382.5,57.5C 380.833,57.5 379.167,57.5 377.5,57.5C 377.5,55.8333 377.5,54.1667 377.5,52.5C 375.219,52.9227 373.552,52.256 372.5,50.5 Z"/></g>
<g><path style="opacity:1" fill="#87272a" d="M 386.5,105.5 C 386.5,105.833 386.5,106.167 386.5,106.5C 385.903,106.735 385.57,107.235 385.5,108C 386.056,109.011 386.722,109.844 387.5,110.5C 384.167,110.5 380.833,110.5 377.5,110.5C 377.5,109.5 377.5,108.5 377.5,107.5C 375.712,107.785 374.045,107.452 372.5,106.5C 377.12,105.507 381.786,105.173 386.5,105.5 Z"/></g>
<g><path style="opacity:1" fill="#af7a76" d="M 386.5,106.5 C 387.607,108.969 389.607,109.969 392.5,109.5C 391.081,110.451 389.415,110.784 387.5,110.5C 386.722,109.844 386.056,109.011 385.5,108C 385.57,107.235 385.903,106.735 386.5,106.5 Z"/></g>
<g><path style="opacity:1" fill="#692630" d="M 587.5,110.5 C 588.5,110.5 589.5,110.5 590.5,110.5C 590.5,111.5 590.5,112.5 590.5,113.5C 589.5,113.5 588.5,113.5 587.5,113.5C 587.5,112.5 587.5,111.5 587.5,110.5 Z"/></g>
<g><path style="opacity:1" fill="#662425" d="M 329.5,110.5 C 329.5,111.5 329.5,112.5 329.5,113.5C 325.833,113.5 322.167,113.5 318.5,113.5C 318.5,113.167 318.5,112.833 318.5,112.5C 322.347,112.619 326.014,111.953 329.5,110.5 Z"/></g>
<g><path style="opacity:1" fill="#372c2d" d="M 329.5,110.5 C 333.833,110.5 338.167,110.5 342.5,110.5C 342.5,111.5 342.5,112.5 342.5,113.5C 338.243,115.479 333.909,117.146 329.5,118.5C 329.167,118.5 328.833,118.5 328.5,118.5C 324.103,116.223 319.436,115.889 314.5,117.5C 312.667,117.415 311.334,116.748 310.5,115.5C 313.308,115.307 315.975,114.64 318.5,113.5C 322.167,113.5 325.833,113.5 329.5,113.5C 329.5,112.5 329.5,111.5 329.5,110.5 Z"/></g>
<g><path style="opacity:1" fill="#e2bdbd" d="M 309.5,113.5 C 310.338,113.842 310.672,114.508 310.5,115.5C 311.334,116.748 312.667,117.415 314.5,117.5C 319.436,115.889 324.103,116.223 328.5,118.5C 317.248,119.477 305.914,119.811 294.5,119.5C 293.833,119.5 293.5,119.167 293.5,118.5C 298.833,118.5 304.167,118.5 309.5,118.5C 309.5,116.833 309.5,115.167 309.5,113.5 Z"/></g>
<g><path style="opacity:1" fill="#442f3c" d="M 590.5,113.5 C 593.5,113.833 595.167,115.5 595.5,118.5C 596.5,118.5 597.5,118.5 598.5,118.5C 598.833,121.5 600.5,123.167 603.5,123.5C 603.5,124.5 603.5,125.5 603.5,126.5C 601.857,126.52 600.524,125.853 599.5,124.5C 598.833,125.167 598.167,125.833 597.5,126.5C 597.331,124.883 596.997,123.216 596.5,121.5C 595.749,122.376 595.249,123.376 595,124.5C 593.061,122.806 591.228,120.973 589.5,119C 590.448,118.517 591.448,118.351 592.5,118.5C 592.169,116.678 591.502,115.011 590.5,113.5 Z"/></g>
<g><path style="opacity:1" fill="#b75755" d="M 328.5,118.5 C 328.833,118.5 329.167,118.5 329.5,118.5C 329.389,119.117 329.056,119.617 328.5,120C 317.172,120.5 305.838,120.667 294.5,120.5C 294.5,120.167 294.5,119.833 294.5,119.5C 305.914,119.811 317.248,119.477 328.5,118.5 Z"/></g>
<g><path style="opacity:1" fill="#772d38" d="M 227.5,118.5 C 228.5,118.5 229.5,118.5 230.5,118.5C 230.5,119.5 230.5,120.5 230.5,121.5C 229.5,121.5 228.5,121.5 227.5,121.5C 227.5,120.5 227.5,119.5 227.5,118.5 Z"/></g>
<g><path style="opacity:1" fill="#84373c" d="M 121.5,126.5 C 121.5,127.5 121.5,128.5 121.5,129.5C 119.678,129.831 118.011,130.498 116.5,131.5C 116.179,129.952 115.179,129.285 113.5,129.5C 115.503,127.018 118.169,126.018 121.5,126.5 Z"/></g>
<g><path style="opacity:1" fill="#ebc9c5" d="M 627.5,126.5 C 626.523,130.81 623.856,133.477 619.5,134.5C 621.785,131.548 624.452,128.882 627.5,126.5 Z"/></g>
<g><path style="opacity:1" fill="#c4716d" d="M 110.5,130.5 C 108.493,132.837 105.827,134.171 102.5,134.5C 104.612,132.229 107.279,130.896 110.5,130.5 Z"/></g>
<g><path style="opacity:1" fill="#c39897" d="M 325.5,134.5 C 325.5,152.167 325.5,169.833 325.5,187.5C 324.833,170.167 324.167,152.833 323.5,135.5C 300.469,135.341 277.469,136.008 254.5,137.5C 254.5,137.167 254.5,136.833 254.5,136.5C 256.167,136.5 257.833,136.5 259.5,136.5C 281.416,134.634 303.416,133.968 325.5,134.5 Z"/></g>
<g><path style="opacity:1" fill="#a23e41" d="M 238.5,134.5 C 243.657,136.164 248.99,136.83 254.5,136.5C 254.5,136.833 254.5,137.167 254.5,137.5C 250.143,137.586 245.81,137.92 241.5,138.5C 240.791,137.596 239.791,137.263 238.5,137.5C 238.5,136.5 238.5,135.5 238.5,134.5 Z"/></g>
<g><path style="opacity:1" fill="#862f35" d="M 606.5,131.5 C 607.5,131.5 608.5,131.5 609.5,131.5C 609.5,133.167 609.5,134.833 609.5,136.5C 612.308,136.307 614.975,135.64 617.5,134.5C 615.869,136.643 613.869,138.31 611.5,139.5C 610.624,139.631 609.957,139.298 609.5,138.5C 609.04,135.844 608.04,133.51 606.5,131.5 Z"/></g>
<g><path style="opacity:1" fill="#c9ccd0" d="M 323.5,135.5 C 323.5,154.833 323.5,174.167 323.5,193.5C 296.479,194.158 269.812,193.491 243.5,191.5C 249.237,173.627 248.57,155.96 241.5,138.5C 245.81,137.92 250.143,137.586 254.5,137.5C 277.469,136.008 300.469,135.341 323.5,135.5 Z"/></g>
<g><path style="opacity:1" fill="#821d1d" d="M 325.5,134.5 C 330.006,135.715 334.339,137.382 338.5,139.5C 339.833,155.833 339.833,172.167 338.5,188.5C 336.08,191.2 333.08,192.534 329.5,192.5C 329.374,194.2 328.707,195.7 327.5,197C 329.003,198.921 329.669,201.088 329.5,203.5C 327.327,200.983 326.327,197.983 326.5,194.5C 326.768,192.901 326.434,191.568 325.5,190.5C 325.5,189.5 325.5,188.5 325.5,187.5C 325.5,169.833 325.5,152.167 325.5,134.5 Z"/></g>
<g><path style="opacity:1" fill="#c8302e" d="M 113.5,129.5 C 115.179,129.285 116.179,129.952 116.5,131.5C 114.704,134.896 113.704,138.563 113.5,142.5C 112.5,142.5 111.5,142.5 110.5,142.5C 111.036,145.698 110.369,148.365 108.5,150.5C 107.833,158.343 107.167,166.343 106.5,174.5C 104.739,175.035 103.406,176.035 102.5,177.5C 96.7027,178.731 91.3693,181.064 86.5,184.5C 85.5084,184.328 84.8417,184.662 84.5,185.5C 70.1667,185.5 55.8333,185.5 41.5,185.5C 41.5,184.5 41.5,183.5 41.5,182.5C 43.2293,176.611 45.8959,171.278 49.5,166.5C 51.7946,165.864 53.4613,164.531 54.5,162.5C 56.3748,160.647 58.3748,158.813 60.5,157C 67.6039,153.405 74.6039,149.572 81.5,145.5C 85.1667,144.833 88.8333,144.167 92.5,143.5C 92.5,142.5 92.5,141.5 92.5,140.5C 94.1667,140.5 95.8333,140.5 97.5,140.5C 97.5,139.5 97.5,138.5 97.5,137.5C 98.8993,136.11 100.566,135.11 102.5,134.5C 105.827,134.171 108.493,132.837 110.5,130.5C 111.391,129.89 112.391,129.557 113.5,129.5 Z"/></g>
<g><path style="opacity:1" fill="#542e37" d="M 483.5,134.5 C 484.5,134.5 485.5,134.5 486.5,134.5C 484.774,136.82 484.107,139.487 484.5,142.5C 483.5,142.5 482.5,142.5 481.5,142.5C 481.5,145.167 481.5,147.833 481.5,150.5C 480.5,150.5 479.5,150.5 478.5,150.5C 479.373,146.879 480.039,143.212 480.5,139.5C 481.5,139.5 482.5,139.5 483.5,139.5C 483.5,137.833 483.5,136.167 483.5,134.5 Z"/></g>
<g><path style="opacity:1" fill="#be4845" d="M 97.5,137.5 C 97.5,138.5 97.5,139.5 97.5,140.5C 95.8333,140.5 94.1667,140.5 92.5,140.5C 92.5,141.5 92.5,142.5 92.5,143.5C 88.8333,144.167 85.1667,144.833 81.5,145.5C 86.5156,142.326 91.8489,139.659 97.5,137.5 Z"/></g>
<g><path style="opacity:1" fill="#dababf" d="M 323.5,135.5 C 324.167,152.833 324.833,170.167 325.5,187.5C 325.5,188.5 325.5,189.5 325.5,190.5C 325.715,192.179 325.048,193.179 323.5,193.5C 323.5,174.167 323.5,154.833 323.5,135.5 Z"/></g>
<g><path style="opacity:1" fill="#c0635f" d="M 54.5,162.5 C 53.4613,164.531 51.7946,165.864 49.5,166.5C 50.5794,164.457 52.246,163.124 54.5,162.5 Z"/></g>
<g><path style="opacity:1" fill="#989da2" d="M 615.5,154.5 C 616.997,158.223 617.663,162.223 617.5,166.5C 617.497,169.355 617.164,172.022 616.5,174.5C 616.388,167.82 616.054,161.153 615.5,154.5 Z"/></g>
<g><path style="opacity:1" fill="#56292f" d="M 478.5,158.5 C 478.5,165.5 478.5,172.5 478.5,179.5C 477.778,179.082 477.278,178.416 477,177.5C 476.833,174.333 476.667,171.167 476.5,168C 476.515,164.424 477.182,161.258 478.5,158.5 Z"/></g>
<g><path style="opacity:1" fill="#9e5b5f" d="M 108.5,150.5 C 108.5,159.167 108.5,167.833 108.5,176.5C 106.435,176.517 104.435,176.85 102.5,177.5C 103.406,176.035 104.739,175.035 106.5,174.5C 107.167,166.343 107.833,158.343 108.5,150.5 Z"/></g>
<g><path style="opacity:1" fill="#c8c8cb" d="M 108.5,176.5 C 108.611,181.706 109.611,186.706 111.5,191.5C 104.576,193.463 97.2428,194.13 89.5,193.5C 88.7593,190.366 87.7593,187.366 86.5,184.5C 91.3693,181.064 96.7027,178.731 102.5,177.5C 104.435,176.85 106.435,176.517 108.5,176.5 Z"/></g>
<g><path style="opacity:1" fill="#8c292b" d="M 478.5,153.5 C 478.5,155.167 478.5,156.833 478.5,158.5C 477.182,161.258 476.515,164.424 476.5,168C 476.667,171.167 476.833,174.333 477,177.5C 477.278,178.416 477.778,179.082 478.5,179.5C 478.5,182.167 478.5,184.833 478.5,187.5C 479.5,187.5 480.5,187.5 481.5,187.5C 481.381,191.347 482.047,195.014 483.5,198.5C 482.5,198.5 481.5,198.5 480.5,198.5C 479.984,192.933 478.65,187.599 476.5,182.5C 475.167,173.5 475.167,164.5 476.5,155.5C 477.182,154.757 477.849,154.091 478.5,153.5 Z"/></g>
<g><path style="opacity:1" fill="#31343f" d="M 195.5,99.5 C 198.255,100.344 200.921,101.344 203.5,102.5C 204.5,102.5 205.5,102.5 206.5,102.5C 206.5,103.5 206.5,104.5 206.5,105.5C 210.827,104.803 213.494,106.47 214.5,110.5C 216.167,110.5 217.833,110.5 219.5,110.5C 219.5,111.5 219.5,112.5 219.5,113.5C 221.5,114.167 223.5,114.833 225.5,115.5C 225.285,117.179 225.952,118.179 227.5,118.5C 227.5,119.5 227.5,120.5 227.5,121.5C 228.5,121.5 229.5,121.5 230.5,121.5C 230.821,123.048 231.821,123.715 233.5,123.5C 234.978,127.275 236.645,130.942 238.5,134.5C 238.5,135.5 238.5,136.5 238.5,137.5C 239.791,137.263 240.791,137.596 241.5,138.5C 248.57,155.96 249.237,173.627 243.5,191.5C 242.596,192.209 242.263,193.209 242.5,194.5C 270.5,194.5 298.5,194.5 326.5,194.5C 326.327,197.983 327.327,200.983 329.5,203.5C 329.5,204.5 329.5,205.5 329.5,206.5C 324.156,206.666 318.823,206.499 313.5,206C 313.043,205.586 312.709,205.086 312.5,204.5C 314.167,203.833 315.833,203.167 317.5,202.5C 316.975,201.808 316.308,201.308 315.5,201C 294.5,200.333 273.5,200.333 252.5,201C 251.62,202.356 251.286,203.856 251.5,205.5C 245.334,206.158 239.334,206.492 233.5,206.5C 266.16,207.5 298.827,207.833 331.5,207.5C 331.5,208.167 331.5,208.833 331.5,209.5C 298.832,209.333 266.165,209.5 233.5,210C 224.857,221.494 213.857,229.661 200.5,234.5C 196.159,234.658 192.159,235.658 188.5,237.5C 161.124,240.218 138.791,231.051 121.5,210C 109.838,209.5 98.1714,209.333 86.5,209.5C 86.5,209.167 86.5,208.833 86.5,208.5C 86.8333,208.5 87.1667,208.5 87.5,208.5C 98.8382,208.667 110.172,208.5 121.5,208C 110.659,207.83 99.9921,207.33 89.5,206.5C 89.5,202.5 89.5,198.5 89.5,194.5C 97.1667,194.5 104.833,194.5 112.5,194.5C 112.737,193.209 112.404,192.209 111.5,191.5C 109.611,186.706 108.611,181.706 108.5,176.5C 108.5,167.833 108.5,159.167 108.5,150.5C 110.369,148.365 111.036,145.698 110.5,142.5C 111.5,142.5 112.5,142.5 113.5,142.5C 113.704,138.563 114.704,134.896 116.5,131.5C 118.011,130.498 119.678,129.831 121.5,129.5C 121.5,128.5 121.5,127.5 121.5,126.5C 130.813,113.518 143.146,104.852 158.5,100.5C 170.757,98.1708 183.09,97.8374 195.5,99.5 Z"/></g>
<g><path style="opacity:1" fill="#eac654" d="M 185.5,113.5 C 179.491,113.334 173.491,113.501 167.5,114C 162.456,115.884 157.456,117.884 152.5,120C 147.813,121.483 147.48,123.483 151.5,126C 152.793,126.49 154.127,126.657 155.5,126.5C 155.5,125.5 155.5,124.5 155.5,123.5C 158.167,123.5 160.833,123.5 163.5,123.5C 161.58,124.065 159.913,125.065 158.5,126.5C 151.077,129.412 144.91,134.079 140,140.5C 129.726,156.678 128.892,173.344 137.5,190.5C 138.11,192.434 139.11,194.101 140.5,195.5C 146.185,203.493 153.851,208.826 163.5,211.5C 165.277,212.6 167.277,213.434 169.5,214C 174.823,214.499 180.156,214.666 185.5,214.5C 189.966,212.86 194.633,212.36 199.5,213C 198.5,213.333 197.5,213.667 196.5,214C 198.715,214.17 200.715,214.837 202.5,216C 201.207,216.49 199.873,216.657 198.5,216.5C 198.5,217.5 198.5,218.5 198.5,219.5C 195.549,220.694 192.549,221.694 189.5,222.5C 181.868,223.358 174.201,223.691 166.5,223.5C 166.158,222.662 165.492,222.328 164.5,222.5C 162.293,220.485 159.626,219.485 156.5,219.5C 143.36,214.196 133.526,205.196 127,192.5C 124.988,186.63 123.488,180.63 122.5,174.5C 122.377,167.471 122.71,160.471 123.5,153.5C 125.074,150.093 126.074,146.427 126.5,142.5C 127.5,142.5 128.5,142.5 129.5,142.5C 129.343,141.127 129.51,139.793 130,138.5C 138.687,124.915 150.854,116.415 166.5,113C 173.014,112.18 179.347,112.347 185.5,113.5 Z"/></g>
<g><path style="opacity:1" fill="#9b8034" d="M 123.5,153.5 C 122.71,160.471 122.377,167.471 122.5,174.5C 121.836,171.854 121.502,169.021 121.5,166C 121.326,161.558 121.993,157.391 123.5,153.5 Z"/></g>
<g><path style="opacity:1" fill="#927c37" d="M 231.5,152.5 C 232.222,152.918 232.722,153.584 233,154.5C 233.667,162.833 233.667,171.167 233,179.5C 232.722,180.416 232.222,181.082 231.5,181.5C 232.804,171.826 232.804,162.16 231.5,152.5 Z"/></g>
<g><path style="opacity:1" fill="#9d833a" d="M 222.5,158.5 C 223.167,159.5 223.833,160.5 224.5,161.5C 225.097,166.294 224.43,170.627 222.5,174.5C 222.5,169.167 222.5,163.833 222.5,158.5 Z"/></g>
<g><path style="opacity:1" fill="#e6c355" d="M 201.5,118.5 C 216.788,125.124 226.788,136.458 231.5,152.5C 232.804,162.16 232.804,171.826 231.5,181.5C 231.5,182.167 231.167,182.5 230.5,182.5C 230.171,172.018 230.004,161.685 230,151.5C 228,150.833 226,150.167 224,149.5C 223.83,153.493 223.996,157.493 224.5,161.5C 223.833,160.5 223.167,159.5 222.5,158.5C 221.212,152.973 219.545,147.64 217.5,142.5C 216.5,142.5 215.5,142.5 214.5,142.5C 213.909,139.386 212.242,136.886 209.5,135C 205.792,131.16 201.459,128.327 196.5,126.5C 195.89,125.609 195.557,124.609 195.5,123.5C 198.39,123.278 201.057,123.945 203.5,125.5C 203.833,125.167 204.167,124.833 204.5,124.5C 202.585,122.929 201.585,120.929 201.5,118.5 Z"/></g>
<g><path style="opacity:1" fill="#ab9351" d="M 190.5,124.5 C 190.5,124.167 190.5,123.833 190.5,123.5C 192.167,123.5 193.833,123.5 195.5,123.5C 195.557,124.609 195.89,125.609 196.5,126.5C 194.685,125.37 192.685,124.704 190.5,124.5 Z"/></g>
<g><path style="opacity:1" fill="#322d24" d="M 184.5,122.5 C 186.265,123.461 188.265,123.795 190.5,123.5C 190.5,123.833 190.5,124.167 190.5,124.5C 179.741,124.149 169.074,124.815 158.5,126.5C 159.913,125.065 161.58,124.065 163.5,123.5C 164.5,123.5 165.5,123.5 166.5,123.5C 172.455,122.637 178.455,122.303 184.5,122.5 Z"/></g>
<g><path style="opacity:1" fill="#f1c951" d="M 185.5,113.5 C 189.978,113.536 194.311,114.369 198.5,116C 199.942,116.377 200.942,117.21 201.5,118.5C 201.585,120.929 202.585,122.929 204.5,124.5C 204.167,124.833 203.833,125.167 203.5,125.5C 201.057,123.945 198.39,123.278 195.5,123.5C 193.833,123.5 192.167,123.5 190.5,123.5C 188.265,123.795 186.265,123.461 184.5,122.5C 182.435,121.786 179.601,121.452 176,121.5C 172.424,121.515 169.258,122.182 166.5,123.5C 165.5,123.5 164.5,123.5 163.5,123.5C 160.833,123.5 158.167,123.5 155.5,123.5C 155.5,124.5 155.5,125.5 155.5,126.5C 154.127,126.657 152.793,126.49 151.5,126C 147.48,123.483 147.813,121.483 152.5,120C 157.456,117.884 162.456,115.884 167.5,114C 173.491,113.501 179.491,113.334 185.5,113.5 Z"/></g>
<g><path style="opacity:1" fill="#998f71" d="M 184.5,122.5 C 178.455,122.303 172.455,122.637 166.5,123.5C 169.258,122.182 172.424,121.515 176,121.5C 179.601,121.452 182.435,121.786 184.5,122.5 Z"/></g>
<g><path style="opacity:1" fill="#b2a46f" d="M 222.5,178.5 C 222.975,181.082 222.308,183.082 220.5,184.5C 220.875,182.302 221.542,180.302 222.5,178.5 Z"/></g>
<g><path style="opacity:1" fill="#f2cd53" d="M 230.5,182.5 C 230.038,186.303 229.038,189.969 227.5,193.5C 225.857,193.48 224.524,194.147 223.5,195.5C 222.749,194.624 222.249,193.624 222,192.5C 221.667,192.833 221.333,193.167 221,193.5C 220.506,191.866 220.34,190.199 220.5,188.5C 220.5,187.167 220.5,185.833 220.5,184.5C 222.308,183.082 222.975,181.082 222.5,178.5C 222.5,177.167 222.5,175.833 222.5,174.5C 224.43,170.627 225.097,166.294 224.5,161.5C 223.996,157.493 223.83,153.493 224,149.5C 226,150.167 228,150.833 230,151.5C 230.004,161.685 230.171,172.018 230.5,182.5 Z"/></g>
<g><path style="opacity:1" fill="#e0a9ab" d="M 41.5,182.5 C 41.5,183.5 41.5,184.5 41.5,185.5C 34.7446,185.207 28.0779,185.54 21.5,186.5C 21.1667,186.5 20.8333,186.5 20.5,186.5C 27.3634,185.103 34.3634,183.769 41.5,182.5 Z"/></g>
<g><path style="opacity:1" fill="#b12924" d="M 41.5,185.5 C 55.8333,185.5 70.1667,185.5 84.5,185.5C 86.1163,193.053 86.783,200.72 86.5,208.5C 86.5,208.833 86.5,209.167 86.5,209.5C 85.1182,211.549 83.4516,213.215 81.5,214.5C 78.9567,215.357 76.6234,216.69 74.5,218.5C 73.5224,218.023 72.6891,217.357 72,216.5C 54.2836,217.523 36.7836,217.689 19.5,217C 18.3497,207.911 18.183,198.745 19,189.5C 20.045,188.627 20.8783,187.627 21.5,186.5C 28.0779,185.54 34.7446,185.207 41.5,185.5 Z"/></g>
<g><path style="opacity:1" fill="#c2c5ca" d="M 616.5,174.5 C 617.089,178.971 616.423,182.971 614.5,186.5C 614.851,182.316 615.518,178.316 616.5,174.5 Z"/></g>
<g><path style="opacity:1" fill="#af9c5b" d="M 220.5,184.5 C 220.5,185.833 220.5,187.167 220.5,188.5C 219.778,189.551 218.778,190.218 217.5,190.5C 218.514,188.426 219.514,186.426 220.5,184.5 Z"/></g>
<g><path style="opacity:1" fill="#61593c" d="M 137.5,190.5 C 139.741,191.3 140.741,192.966 140.5,195.5C 139.11,194.101 138.11,192.434 137.5,190.5 Z"/></g>
<g><path style="opacity:1" fill="#787c8b" d="M 111.5,191.5 C 112.404,192.209 112.737,193.209 112.5,194.5C 104.833,194.5 97.1667,194.5 89.5,194.5C 89.5,194.167 89.5,193.833 89.5,193.5C 97.2428,194.13 104.576,193.463 111.5,191.5 Z"/></g>
<g><path style="opacity:1" fill="#7d7e87" d="M 325.5,190.5 C 326.434,191.568 326.768,192.901 326.5,194.5C 298.5,194.5 270.5,194.5 242.5,194.5C 242.263,193.209 242.596,192.209 243.5,191.5C 269.812,193.491 296.479,194.158 323.5,193.5C 325.048,193.179 325.715,192.179 325.5,190.5 Z"/></g>
<g><path style="opacity:1" fill="#9b3032" d="M 86.5,184.5 C 87.7593,187.366 88.7593,190.366 89.5,193.5C 89.5,193.833 89.5,194.167 89.5,194.5C 89.5,198.5 89.5,202.5 89.5,206.5C 88.1667,206.5 87.5,207.167 87.5,208.5C 87.1667,208.5 86.8333,208.5 86.5,208.5C 86.783,200.72 86.1163,193.053 84.5,185.5C 84.8417,184.662 85.5084,184.328 86.5,184.5 Z"/></g>
<g><path style="opacity:1" fill="#917f4c" d="M 214.5,195.5 C 213.833,198.167 212.167,199.833 209.5,200.5C 210.833,198.5 212.5,196.833 214.5,195.5 Z"/></g>
<g><path style="opacity:1" fill="#32353f" d="M 190.5,124.5 C 192.685,124.704 194.685,125.37 196.5,126.5C 201.459,128.327 205.792,131.16 209.5,135C 212.242,136.886 213.909,139.386 214.5,142.5C 215.5,142.5 216.5,142.5 217.5,142.5C 219.545,147.64 221.212,152.973 222.5,158.5C 222.5,163.833 222.5,169.167 222.5,174.5C 222.5,175.833 222.5,177.167 222.5,178.5C 221.542,180.302 220.875,182.302 220.5,184.5C 219.514,186.426 218.514,188.426 217.5,190.5C 216.075,191.922 215.075,193.589 214.5,195.5C 212.5,196.833 210.833,198.5 209.5,200.5C 204.603,206.539 198.269,210.206 190.5,211.5C 181.505,212.797 172.505,212.797 163.5,211.5C 153.851,208.826 146.185,203.493 140.5,195.5C 140.741,192.966 139.741,191.3 137.5,190.5C 128.892,173.344 129.726,156.678 140,140.5C 144.91,134.079 151.077,129.412 158.5,126.5C 169.074,124.815 179.741,124.149 190.5,124.5 Z"/></g>
<g><path style="opacity:1" fill="#636264" d="M 174.5,130.5 C 203.297,132.461 216.464,147.794 214,176.5C 207.904,195.758 194.737,205.091 174.5,204.5C 169.135,203.662 163.802,202.495 158.5,201C 138.472,185.323 134.972,166.49 148,144.5C 151.557,140.975 155.39,137.809 159.5,135C 164.764,133.926 169.764,132.426 174.5,130.5 Z"/></g>
<g><path style="opacity:1" fill="#bebdbf" d="M 171.5,153.5 C 189.147,152.292 195.313,159.959 190,176.5C 185.116,182.22 178.95,184.053 171.5,182C 164.024,177.585 161.191,171.085 163,162.5C 165.362,158.973 168.196,155.973 171.5,153.5 Z"/></g>
<g><path style="opacity:1" fill="#d0d0d2" d="M 172.5,158.5 C 183.158,156.66 187.658,160.993 186,171.5C 185.31,174.196 183.81,176.363 181.5,178C 177.007,178.117 172.674,177.283 168.5,175.5C 167.573,169.162 168.907,163.495 172.5,158.5 Z"/></g>
<g><path style="opacity:1" fill="#323545" d="M 329.5,206.5 C 330.492,206.328 331.158,206.662 331.5,207.5C 298.827,207.833 266.16,207.5 233.5,206.5C 239.334,206.492 245.334,206.158 251.5,205.5C 251.286,203.856 251.62,202.356 252.5,201C 273.5,200.333 294.5,200.333 315.5,201C 316.308,201.308 316.975,201.808 317.5,202.5C 315.833,203.167 314.167,203.833 312.5,204.5C 312.709,205.086 313.043,205.586 313.5,206C 318.823,206.499 324.156,206.666 329.5,206.5 Z"/></g>
<g><path style="opacity:1" fill="#e6c354" d="M 220.5,188.5 C 220.34,190.199 220.506,191.866 221,193.5C 221.333,193.167 221.667,192.833 222,192.5C 222.249,193.624 222.749,194.624 223.5,195.5C 224.524,194.147 225.857,193.48 227.5,193.5C 220.967,205.702 211.3,214.368 198.5,219.5C 198.5,218.5 198.5,217.5 198.5,216.5C 199.873,216.657 201.207,216.49 202.5,216C 200.715,214.837 198.715,214.17 196.5,214C 197.5,213.667 198.5,213.333 199.5,213C 194.633,212.36 189.966,212.86 185.5,214.5C 187.072,213.313 188.739,212.313 190.5,211.5C 198.269,210.206 204.603,206.539 209.5,200.5C 212.167,199.833 213.833,198.167 214.5,195.5C 215.075,193.589 216.075,191.922 217.5,190.5C 218.778,190.218 219.778,189.551 220.5,188.5 Z"/></g>
<g><path style="opacity:1" fill="#16161f" d="M 89.5,206.5 C 99.9921,207.33 110.659,207.83 121.5,208C 110.172,208.5 98.8382,208.667 87.5,208.5C 87.5,207.167 88.1667,206.5 89.5,206.5 Z"/></g>
<g><path style="opacity:1" fill="#32353f" d="M 546.5,97.5 C 551.32,98.4865 556.32,99.1532 561.5,99.5C 564.576,101.055 567.909,102.055 571.5,102.5C 572.5,102.5 573.5,102.5 574.5,102.5C 574.5,103.5 574.5,104.5 574.5,105.5C 577.833,106.167 581.167,106.833 584.5,107.5C 584.5,108.5 584.5,109.5 584.5,110.5C 585.5,110.5 586.5,110.5 587.5,110.5C 587.5,111.5 587.5,112.5 587.5,113.5C 588.5,113.5 589.5,113.5 590.5,113.5C 591.502,115.011 592.169,116.678 592.5,118.5C 591.448,118.351 590.448,118.517 589.5,119C 591.228,120.973 593.061,122.806 595,124.5C 595.249,123.376 595.749,122.376 596.5,121.5C 596.997,123.216 597.331,124.883 597.5,126.5C 598.167,125.833 598.833,125.167 599.5,124.5C 600.524,125.853 601.857,126.52 603.5,126.5C 604.89,127.899 605.89,129.566 606.5,131.5C 608.04,133.51 609.04,135.844 609.5,138.5C 609.957,139.298 610.624,139.631 611.5,139.5C 612.827,144.483 614.16,149.483 615.5,154.5C 616.054,161.153 616.388,167.82 616.5,174.5C 615.518,178.316 614.851,182.316 614.5,186.5C 608.773,204.232 598.106,218.232 582.5,228.5C 577.919,230.13 573.586,232.13 569.5,234.5C 568.833,234.5 568.167,234.5 567.5,234.5C 557.05,237.232 546.384,238.232 535.5,237.5C 530.439,236.288 525.439,234.788 520.5,233C 513.668,229.632 507.001,226.132 500.5,222.5C 500.167,221.833 499.833,221.167 499.5,220.5C 499.254,217.53 497.588,216.197 494.5,216.5C 494.5,215.833 494.5,215.167 494.5,214.5C 493.5,214.5 492.5,214.5 491.5,214.5C 491.5,213.5 491.5,212.5 491.5,211.5C 490.498,209.989 489.831,208.322 489.5,206.5C 488.5,206.5 487.5,206.5 486.5,206.5C 486.856,203.224 485.856,200.557 483.5,198.5C 482.047,195.014 481.381,191.347 481.5,187.5C 480.5,187.5 479.5,187.5 478.5,187.5C 478.5,184.833 478.5,182.167 478.5,179.5C 478.5,172.5 478.5,165.5 478.5,158.5C 478.5,156.833 478.5,155.167 478.5,153.5C 478.5,152.5 478.5,151.5 478.5,150.5C 479.5,150.5 480.5,150.5 481.5,150.5C 481.5,147.833 481.5,145.167 481.5,142.5C 482.5,142.5 483.5,142.5 484.5,142.5C 484.107,139.487 484.774,136.82 486.5,134.5C 486.5,132.833 486.5,131.167 486.5,129.5C 487.5,129.5 488.5,129.5 489.5,129.5C 490.167,127.5 490.833,125.5 491.5,123.5C 492.5,123.5 493.5,123.5 494.5,123.5C 494.5,121.833 494.5,120.167 494.5,118.5C 497.5,118.167 499.167,116.5 499.5,113.5C 500.423,114.303 501.423,114.47 502.5,114C 506.487,110.003 511.154,107.003 516.5,105C 517.252,104.329 517.586,103.496 517.5,102.5C 519.5,102.5 521.5,102.5 523.5,102.5C 527.21,101.324 530.876,100.324 534.5,99.5C 538.318,97.987 542.318,97.3204 546.5,97.5 Z"/></g>
<g><path style="opacity:1" fill="#eec853" d="M 595.5,141.5 C 595.737,144.647 596.57,147.647 598,150.5C 598.417,151.756 599.25,152.423 600.5,152.5C 600.5,152.833 600.5,153.167 600.5,153.5C 600.75,164.906 600.084,176.24 598.5,187.5C 595.479,195.701 590.812,202.867 584.5,209C 583.1,210.438 581.433,211.271 579.5,211.5C 579.5,212.5 579.5,213.5 579.5,214.5C 576.418,215.727 573.418,217.227 570.5,219C 566.453,220.072 562.453,221.239 558.5,222.5C 551.254,223.464 543.92,223.797 536.5,223.5C 534.833,222.833 533.167,222.167 531.5,221.5C 530.448,219.744 528.781,219.077 526.5,219.5C 515.173,215.676 506.34,208.676 500,198.5C 497.003,193.505 494.836,188.172 493.5,182.5C 492.593,174.208 492.26,165.875 492.5,157.5C 493.117,157.611 493.617,157.944 494,158.5C 494.333,155.833 494.667,153.167 495,150.5C 495.667,151.833 496.333,151.833 497,150.5C 497.634,142.931 500.134,141.931 504.5,147.5C 503.417,151.085 502.751,154.751 502.5,158.5C 502.167,158.5 501.833,158.5 501.5,158.5C 500.732,159.263 500.232,160.263 500,161.5C 499.169,168.524 499.336,175.524 500.5,182.5C 503.011,184.98 505.011,187.646 506.5,190.5C 508.992,194.787 511.992,198.787 515.5,202.5C 520.573,205.995 525.907,208.995 531.5,211.5C 533.277,212.6 535.277,213.434 537.5,214C 543.681,214.819 549.681,214.653 555.5,213.5C 556.959,213.567 558.292,213.234 559.5,212.5C 561.527,212.662 563.527,212.495 565.5,212C 567.704,210.25 569.704,208.417 571.5,206.5C 579.87,201.088 585.87,193.755 589.5,184.5C 590.404,183.791 590.737,182.791 590.5,181.5C 591.75,181.423 592.583,180.756 593,179.5C 593.667,171.5 593.667,163.5 593,155.5C 592.583,154.244 591.75,153.577 590.5,153.5C 590.598,151.447 589.931,149.78 588.5,148.5C 587.514,146.574 586.514,144.574 585.5,142.5C 585.142,139.191 584.809,135.857 584.5,132.5C 585.325,131.614 586.325,131.281 587.5,131.5C 587.281,132.675 587.614,133.675 588.5,134.5C 591.103,136.621 593.436,138.954 595.5,141.5 Z"/></g>
<g><path style="opacity:1" fill="#bda350" d="M 600.5,153.5 C 601.683,158.232 602.683,163.065 603.5,168C 602.517,174.818 600.851,181.318 598.5,187.5C 600.084,176.24 600.75,164.906 600.5,153.5 Z"/></g>
<g><path style="opacity:1" fill="#ceb35a" d="M 501.5,158.5 C 501.137,161.989 500.804,165.489 500.5,169C 500.3,171.866 500.967,174.366 502.5,176.5C 502.338,178.527 502.505,180.527 503,182.5C 504.845,184.867 506.011,187.533 506.5,190.5C 505.011,187.646 503.011,184.98 500.5,182.5C 499.336,175.524 499.169,168.524 500,161.5C 500.232,160.263 500.732,159.263 501.5,158.5 Z"/></g>
<g><path style="opacity:1" fill="#38362f" d="M 588.5,148.5 C 589.931,149.78 590.598,151.447 590.5,153.5C 593.134,162.859 593.134,172.192 590.5,181.5C 590.737,182.791 590.404,183.791 589.5,184.5C 589.552,177.655 589.885,170.822 590.5,164C 590.394,158.748 589.727,153.581 588.5,148.5 Z"/></g>
<g><path style="opacity:1" fill="#b79d48" d="M 492.5,153.5 C 492.5,154.833 492.5,156.167 492.5,157.5C 492.26,165.875 492.593,174.208 493.5,182.5C 492.173,178.049 491.506,173.216 491.5,168C 491.501,162.988 491.834,158.155 492.5,153.5 Z"/></g>
<g><path style="opacity:1" fill="#b29d4d" d="M 590.5,153.5 C 591.75,153.577 592.583,154.244 593,155.5C 593.667,163.5 593.667,171.5 593,179.5C 592.583,180.756 591.75,181.423 590.5,181.5C 593.134,172.192 593.134,162.859 590.5,153.5 Z"/></g>
<g><path style="opacity:1" fill="#433922" d="M 501.5,158.5 C 501.833,158.5 502.167,158.5 502.5,158.5C 502.5,164.5 502.5,170.5 502.5,176.5C 500.967,174.366 500.3,171.866 500.5,169C 500.804,165.489 501.137,161.989 501.5,158.5 Z"/></g>
<g><path style="opacity:1" fill="#bda75d" d="M 595.5,141.5 C 596.458,141.953 597.292,142.619 598,143.5C 598.739,146.546 599.572,149.546 600.5,152.5C 599.25,152.423 598.417,151.756 598,150.5C 596.57,147.647 595.737,144.647 595.5,141.5 Z"/></g>
<g><path style="opacity:1" fill="#32353e" d="M 537.5,122.5 C 544.202,122.336 550.869,122.669 557.5,123.5C 565.477,125.322 572.477,128.988 578.5,134.5C 579.386,135.325 579.719,136.325 579.5,137.5C 582.116,138.363 584.116,140.03 585.5,142.5C 586.514,144.574 587.514,146.574 588.5,148.5C 589.727,153.581 590.394,158.748 590.5,164C 589.885,170.822 589.552,177.655 589.5,184.5C 585.87,193.755 579.87,201.088 571.5,206.5C 567.207,208.179 563.207,210.179 559.5,212.5C 558.292,213.234 556.959,213.567 555.5,213.5C 547.303,213.883 539.303,213.217 531.5,211.5C 525.907,208.995 520.573,205.995 515.5,202.5C 511.992,198.787 508.992,194.787 506.5,190.5C 506.011,187.533 504.845,184.867 503,182.5C 502.505,180.527 502.338,178.527 502.5,176.5C 502.5,170.5 502.5,164.5 502.5,158.5C 502.751,154.751 503.417,151.085 504.5,147.5C 509.511,140.824 515.178,134.824 521.5,129.5C 523.167,129.5 524.833,129.5 526.5,129.5C 526.5,128.5 526.5,127.5 526.5,126.5C 529.849,124.423 533.516,123.09 537.5,122.5 Z"/></g>
<g><path style="opacity:1" fill="#616263" d="M 566.5,136.5 C 581.186,146.072 586.686,159.739 583,177.5C 576.974,195.027 564.641,204.36 546,205.5C 527.685,203.505 515.685,193.839 510,176.5C 508.796,167.856 509.796,159.523 513,151.5C 515.783,147.049 518.95,142.883 522.5,139C 525.151,136.86 528.151,135.36 531.5,134.5C 532.5,134.5 533.5,134.5 534.5,134.5C 537.37,140.149 539.37,146.149 540.5,152.5C 542.167,152.5 543.833,152.5 545.5,152.5C 545.5,145.833 545.5,139.167 545.5,132.5C 546.5,132.5 547.5,132.5 548.5,132.5C 548.534,138.375 548.2,144.042 547.5,149.5C 549.05,151.959 551.05,152.626 553.5,151.5C 556.436,146.627 559.103,141.627 561.5,136.5C 563.095,135.566 564.761,135.566 566.5,136.5 Z"/></g>
<g><path style="opacity:1" fill="#bebebf" d="M 540.5,153.5 C 558.492,151.974 564.659,159.64 559,176.5C 554.116,182.22 547.95,184.053 540.5,182C 528.535,172.467 528.535,162.967 540.5,153.5 Z"/></g>
<g><path style="opacity:1" fill="#d1d1d3" d="M 544.5,158.5 C 547.545,158.508 550.545,158.841 553.5,159.5C 556.317,165.633 556.15,171.633 553,177.5C 547.104,179.445 541.771,178.445 537,174.5C 537.016,170.236 536.183,166.236 534.5,162.5C 538.292,162.959 541.625,161.625 544.5,158.5 Z"/></g>
<g><path style="opacity:1" fill="#a49053" d="M 507.5,128.5 C 506.28,130.981 504.614,132.981 502.5,134.5C 503.256,131.606 504.923,129.606 507.5,128.5 Z"/></g>
<g><path style="opacity:1" fill="#5d5e5f" d="M 566.5,136.5 C 564.761,135.566 563.095,135.566 561.5,136.5C 559.103,141.627 556.436,146.627 553.5,151.5C 551.05,152.626 549.05,151.959 547.5,149.5C 548.2,144.042 548.534,138.375 548.5,132.5C 547.5,132.5 546.5,132.5 545.5,132.5C 545.5,139.167 545.5,145.833 545.5,152.5C 543.833,152.5 542.167,152.5 540.5,152.5C 539.37,146.149 537.37,140.149 534.5,134.5C 533.5,134.5 532.5,134.5 531.5,134.5C 531.881,133.069 532.881,132.236 534.5,132C 545.988,129.284 556.655,130.784 566.5,136.5 Z"/></g>
<g><path style="opacity:1" fill="#e4c255" d="M 536.5,113.5 C 547.554,111.83 558.554,112.664 569.5,116C 574.731,119.774 580.064,123.274 585.5,126.5C 585.281,127.675 585.614,128.675 586.5,129.5C 590.692,132.68 593.692,136.68 595.5,141.5C 593.436,138.954 591.103,136.621 588.5,134.5C 587.614,133.675 587.281,132.675 587.5,131.5C 586.325,131.281 585.325,131.614 584.5,132.5C 584.809,135.857 585.142,139.191 585.5,142.5C 584.116,140.03 582.116,138.363 579.5,137.5C 579.719,136.325 579.386,135.325 578.5,134.5C 572.477,128.988 565.477,125.322 557.5,123.5C 557.082,122.778 556.416,122.278 555.5,122C 549.319,121.181 543.319,121.347 537.5,122.5C 533.516,123.09 529.849,124.423 526.5,126.5C 524.336,126.721 522.67,127.721 521.5,129.5C 515.178,134.824 509.511,140.824 504.5,147.5C 500.134,141.931 497.634,142.931 497,150.5C 496.333,151.833 495.667,151.833 495,150.5C 494.667,153.167 494.333,155.833 494,158.5C 493.617,157.944 493.117,157.611 492.5,157.5C 492.5,156.167 492.5,154.833 492.5,153.5C 494.504,146.492 497.838,140.159 502.5,134.5C 504.614,132.981 506.28,130.981 507.5,128.5C 514.876,120.153 524.21,115.153 535.5,113.5C 534.185,115.65 532.185,116.984 529.5,117.5C 530.167,118.167 530.833,118.833 531.5,119.5C 542.146,120.499 552.813,120.832 563.5,120.5C 563.5,119.167 563.5,117.833 563.5,116.5C 560.5,116.5 557.5,116.5 554.5,116.5C 554.5,115.5 554.5,114.5 554.5,113.5C 548.5,113.5 542.5,113.5 536.5,113.5 Z"/></g>
<g><path style="opacity:1" fill="#5a5437" d="M 526.5,126.5 C 526.5,127.5 526.5,128.5 526.5,129.5C 524.833,129.5 523.167,129.5 521.5,129.5C 522.67,127.721 524.336,126.721 526.5,126.5 Z"/></g>
<g><path style="opacity:1" fill="#968c64" d="M 537.5,122.5 C 543.319,121.347 549.319,121.181 555.5,122C 556.416,122.278 557.082,122.778 557.5,123.5C 550.869,122.669 544.202,122.336 537.5,122.5 Z"/></g>
<g><path style="opacity:1" fill="#f5cd4f" d="M 535.5,113.5 C 535.833,113.5 536.167,113.5 536.5,113.5C 542.5,113.5 548.5,113.5 554.5,113.5C 554.5,114.5 554.5,115.5 554.5,116.5C 557.5,116.5 560.5,116.5 563.5,116.5C 563.5,117.833 563.5,119.167 563.5,120.5C 552.813,120.832 542.146,120.499 531.5,119.5C 530.833,118.833 530.167,118.167 529.5,117.5C 532.185,116.984 534.185,115.65 535.5,113.5 Z"/></g>
<g><path style="opacity:1" fill="#b69e4f" d="M 571.5,206.5 C 569.704,208.417 567.704,210.25 565.5,212C 563.527,212.495 561.527,212.662 559.5,212.5C 563.207,210.179 567.207,208.179 571.5,206.5 Z"/></g>
<g><path style="opacity:1" fill="#595642" d="M 163.5,211.5 C 172.505,212.797 181.505,212.797 190.5,211.5C 188.739,212.313 187.072,213.313 185.5,214.5C 180.156,214.666 174.823,214.499 169.5,214C 167.277,213.434 165.277,212.6 163.5,211.5 Z"/></g>
<g><path style="opacity:1" fill="#6d2832" d="M 491.5,211.5 C 492.5,211.5 493.5,211.5 494.5,211.5C 494.5,212.5 494.5,213.5 494.5,214.5C 494.5,213.5 494.5,212.5 494.5,211.5C 493.5,211.5 492.5,211.5 491.5,211.5 Z"/></g>
<g><path style="opacity:1" fill="#8c7d58" d="M 531.5,211.5 C 539.303,213.217 547.303,213.883 555.5,213.5C 549.681,214.653 543.681,214.819 537.5,214C 535.277,213.434 533.277,212.6 531.5,211.5 Z"/></g>
<g><path style="opacity:1" fill="#b8403c" d="M 20.5,186.5 C 20.8333,186.5 21.1667,186.5 21.5,186.5C 20.8783,187.627 20.045,188.627 19,189.5C 18.183,198.745 18.3497,207.911 19.5,217C 36.7836,217.689 54.2836,217.523 72,216.5C 72.6891,217.357 73.5224,218.023 74.5,218.5C 76.6234,216.69 78.9567,215.357 81.5,214.5C 78.8742,218.285 75.2076,220.785 70.5,222C 54.5,222.667 38.5,222.667 22.5,222C 20.8603,220.605 19.3603,219.105 18,217.5C 17.3333,207.833 17.3333,198.167 18,188.5C 18.7083,187.619 19.5416,186.953 20.5,186.5 Z"/></g>
<g><path style="opacity:1" fill="#9c8a52" d="M 156.5,219.5 C 159.626,219.485 162.293,220.485 164.5,222.5C 161.351,222.585 158.684,221.585 156.5,219.5 Z"/></g>
<g><path style="opacity:1" fill="#942622" d="M 494.5,216.5 C 497.588,216.197 499.254,217.53 499.5,220.5C 450.664,220.832 401.997,220.499 353.5,219.5C 401.171,219.833 448.838,219.5 496.5,218.5C 495.757,217.818 495.091,217.151 494.5,216.5 Z"/></g>
<g><path style="opacity:1" fill="#b6a563" d="M 526.5,219.5 C 528.781,219.077 530.448,219.744 531.5,221.5C 529.447,221.598 527.78,220.931 526.5,219.5 Z"/></g>
<g><path style="opacity:1" fill="#c96463" d="M 349.5,219.5 C 350.833,219.5 352.167,219.5 353.5,219.5C 401.997,220.499 450.664,220.832 499.5,220.5C 499.833,221.167 500.167,221.833 500.5,222.5C 452.166,222.667 403.832,222.5 355.5,222C 353.277,221.434 351.277,220.6 349.5,219.5 Z"/></g>
<g><path style="opacity:1" fill="#363227" d="M 189.5,222.5 C 188.909,223.151 188.243,223.818 187.5,224.5C 184,224.833 180.5,225.167 177,225.5C 173.098,225.488 169.598,224.821 166.5,223.5C 174.201,223.691 181.868,223.358 189.5,222.5 Z"/></g>
<g><path style="opacity:1" fill="#393527" d="M 558.5,222.5 C 558.586,223.496 558.252,224.329 557.5,225C 554,225.167 550.5,225.333 547,225.5C 543.098,225.488 539.598,224.821 536.5,223.5C 543.92,223.797 551.254,223.464 558.5,222.5 Z"/></g>
<g><path style="opacity:1" fill="#c1c2c7" d="M 582.5,228.5 C 581.71,229.794 580.71,230.961 579.5,232C 576.054,232.661 572.721,233.495 569.5,234.5C 573.586,232.13 577.919,230.13 582.5,228.5 Z"/></g>
<g><path style="opacity:1" fill="#a3a6a9" d="M 200.5,234.5 C 196.841,236.342 192.841,237.342 188.5,237.5C 192.159,235.658 196.159,234.658 200.5,234.5 Z"/></g>
<g><path style="opacity:1" fill="#bec0c4" d="M 567.5,234.5 C 565.758,235.957 563.758,237.124 561.5,238C 552.657,238.824 543.99,238.657 535.5,237.5C 546.384,238.232 557.05,237.232 567.5,234.5 Z"/></g>
</svg>
