<?xml version="1.0" encoding="UTF-8"?>
<!DOCTYPE svg PUBLIC "-//W3C//DTD SVG 1.1//EN" "http://www.w3.org/Graphics/SVG/1.1/DTD/svg11.dtd">
<svg xmlns="http://www.w3.org/2000/svg" version="1.1" width="1200px" height="1200px" style="shape-rendering:geometricPrecision; text-rendering:geometricPrecision; image-rendering:optimizeQuality; fill-rule:evenodd; clip-rule:evenodd" xmlns:xlink="http://www.w3.org/1999/xlink">
<g><path style="opacity:0.996" fill="#c8b89e" d="M 1106.5,618.5 C 1098.31,625.885 1091.81,634.551 1087,644.5C 1078,656.329 1068.83,667.996 1059.5,679.5C 1056.59,678.431 1053.59,678.264 1050.5,679C 1049.94,679.383 1049.61,679.883 1049.5,680.5C 1047.63,680.141 1046.13,679.141 1045,677.5C 1043.67,674.833 1042.33,672.167 1041,669.5C 1034.13,646.336 1026.79,623.336 1019,600.5C 1013.09,593.711 1005.93,591.711 997.5,594.5C 982.414,590.789 967.414,586.789 952.5,582.5C 951.027,578.221 949.027,574.221 946.5,570.5C 946.5,561.167 946.5,551.833 946.5,542.5C 958.232,537.938 967.399,530.271 974,519.5C 983.796,498.612 991.296,476.945 996.5,454.5C 997.5,454.167 998.167,453.5 998.5,452.5C 1003.63,444.639 1005.63,435.972 1004.5,426.5C 1004.34,423.482 1004.5,420.482 1005,417.5C 1005.67,416.167 1006.67,415.167 1008,414.5C 1008.5,409.845 1008.67,405.179 1008.5,400.5C 1007.21,400.737 1006.21,400.404 1005.5,399.5C 1006.02,387.387 1007.52,375.387 1010,363.5C 1012.06,344.467 1008.73,326.467 1000,309.5C 993.577,300.532 985.077,294.366 974.5,291C 962.062,285.546 949.062,282.713 935.5,282.5C 909.357,280.901 883.357,283.067 857.5,289C 852.962,290.012 848.629,291.512 844.5,293.5C 844.5,269.167 844.5,244.833 844.5,220.5C 856.167,220.5 867.833,220.5 879.5,220.5C 880.492,212.684 880.826,204.684 880.5,196.5C 688.167,196.5 495.833,196.5 303.5,196.5C 303.174,204.684 303.508,212.684 304.5,220.5C 316.167,220.5 327.833,220.5 339.5,220.5C 339.5,360.167 339.5,499.833 339.5,639.5C 470.001,639.833 600.334,639.5 730.5,638.5C 736.545,648.913 742.378,659.579 748,670.5C 749.067,672.692 750.567,674.358 752.5,675.5C 747.13,686.507 750.463,690.507 762.5,687.5C 774.468,694.486 786.135,693.986 797.5,686C 816.528,668.815 833.528,649.981 848.5,629.5C 850.054,650.985 851.054,672.652 851.5,694.5C 819.809,698.521 805.142,716.521 807.5,748.5C 793.013,749.494 780.013,754.327 768.5,763C 761.229,770.711 757.063,779.878 756,790.5C 755.809,808.832 755.976,827.166 756.5,845.5C 747.859,850.145 745.359,857.145 749,866.5C 751.635,871.567 755.801,874.234 761.5,874.5C 766.605,889.92 774.939,903.254 786.5,914.5C 782.393,919.041 779.56,924.374 778,930.5C 777.5,941.495 777.333,952.495 777.5,963.5C 775.833,963.5 774.167,963.5 772.5,963.5C 772.667,952.495 772.5,941.495 772,930.5C 766.746,913.245 755.246,903.078 737.5,900C 722.837,899.5 708.17,899.333 693.5,899.5C 693.333,888.828 693.5,878.161 694,867.5C 717.324,854.481 731.99,834.815 738,808.5C 740.775,783.581 741.775,758.581 741,733.5C 739.26,715.428 729.76,703.595 712.5,698C 687.321,691.577 661.988,690.91 636.5,696C 613.563,701.437 601.896,715.937 601.5,739.5C 584.094,736.707 566.76,737.207 549.5,741C 543.984,741.817 538.65,741.651 533.5,740.5C 535.206,717.67 524.873,703.17 502.5,697C 474.965,690.465 447.631,691.131 420.5,699C 406.887,704.282 398.72,714.115 396,728.5C 394.753,735.779 394.253,743.112 394.5,750.5C 383.336,747.92 372.002,746.92 360.5,747.5C 349.52,746.77 338.853,748.103 328.5,751.5C 332.084,716.585 316.417,697.418 281.5,694C 259.543,691.062 237.877,692.396 216.5,698C 200.731,703.767 191.565,714.934 189,731.5C 188.5,741.161 188.334,750.828 188.5,760.5C 175.495,753.997 161.829,749.164 147.5,746C 139.812,742.821 132.145,739.654 124.5,736.5C 121.975,736.423 119.642,737.59 117.5,740C 111.01,742.553 104.343,744.387 97.5,745.5C 55.8306,591.675 77.664,447.675 163,313.5C 239.876,201.379 344.71,129.213 477.5,97C 634.856,64.6645 777.856,95.9978 906.5,191C 1027.44,287.358 1093.94,413.191 1106,568.5C 1106.5,585.163 1106.67,601.83 1106.5,618.5 Z"/></g>
<g><path style="opacity:1" fill="#5c5c61" d="M 879.5,220.5 C 879.5,212.833 879.5,205.167 879.5,197.5C 687.833,197.5 496.167,197.5 304.5,197.5C 304.5,205.167 304.5,212.833 304.5,220.5C 303.508,212.684 303.174,204.684 303.5,196.5C 495.833,196.5 688.167,196.5 880.5,196.5C 880.826,204.684 880.492,212.684 879.5,220.5 Z"/></g>
<g><path style="opacity:1" fill="#1c283c" d="M 879.5,220.5 C 867.833,220.5 856.167,220.5 844.5,220.5C 676.167,220.5 507.833,220.5 339.5,220.5C 327.833,220.5 316.167,220.5 304.5,220.5C 304.5,212.833 304.5,205.167 304.5,197.5C 496.167,197.5 687.833,197.5 879.5,197.5C 879.5,205.167 879.5,212.833 879.5,220.5 Z"/></g>
<g><path style="opacity:1" fill="#f2f2f2" d="M 339.5,220.5 C 507.833,220.5 676.167,220.5 844.5,220.5C 844.5,244.833 844.5,269.167 844.5,293.5C 832.225,298.025 824.558,306.692 821.5,319.5C 821.667,320.167 821.833,320.833 822,321.5C 825.209,318.312 829.042,316.312 833.5,315.5C 836.574,315.45 838.741,316.783 840,319.5C 839.455,330.994 838.622,342.494 837.5,354C 839.233,369.163 840.9,384.33 842.5,399.5C 840.533,399.261 838.699,399.594 837,400.5C 836.333,405.167 836.333,409.833 837,414.5C 838,415.167 839,415.833 840,416.5C 841.285,425.541 842.785,434.541 844.5,443.5C 844.5,493.167 844.5,542.833 844.5,592.5C 838.42,589.676 832.42,589.843 826.5,593C 813.973,607.903 802.307,623.403 791.5,639.5C 777.833,639.5 764.167,639.5 750.5,639.5C 743.856,629.561 737.689,619.228 732,608.5C 730.974,600.368 729.307,592.368 727,584.5C 722.072,581.111 716.572,579.777 710.5,580.5C 696.162,557.316 681.995,533.982 668,510.5C 678.849,533.868 690.015,557.201 701.5,580.5C 698.15,580.335 694.817,580.502 691.5,581C 687.659,582.165 686.825,584.332 689,587.5C 690.214,589.049 691.714,590.215 693.5,591C 688.946,595.777 689.946,598.777 696.5,600C 695.393,604.762 697.393,607.595 702.5,608.5C 703.04,609.748 703.707,610.915 704.5,612C 709.6,613.133 714.433,614.967 719,617.5C 722.846,624.527 726.679,631.527 730.5,638.5C 600.334,639.5 470.001,639.833 339.5,639.5C 339.5,499.833 339.5,360.167 339.5,220.5 Z"/></g>
<g><path style="opacity:1" fill="#f7b00a" d="M 594.5,243.5 C 601.167,243.5 607.833,243.5 614.5,243.5C 614.5,255.5 614.5,267.5 614.5,279.5C 607.833,279.5 601.167,279.5 594.5,279.5C 594.5,267.5 594.5,255.5 594.5,243.5 Z"/></g>
<g><path style="opacity:1" fill="#6c3d21" d="M 935.5,282.5 C 931.5,282.5 927.5,282.5 923.5,282.5C 923.5,301.5 923.5,320.5 923.5,339.5C 923.5,340.167 923.167,340.5 922.5,340.5C 878.46,334.188 856.793,353.522 857.5,398.5C 852.463,398.413 847.463,398.746 842.5,399.5C 840.9,384.33 839.233,369.163 837.5,354C 838.622,342.494 839.455,330.994 840,319.5C 838.741,316.783 836.574,315.45 833.5,315.5C 829.042,316.312 825.209,318.312 822,321.5C 821.833,320.833 821.667,320.167 821.5,319.5C 824.558,306.692 832.225,298.025 844.5,293.5C 848.629,291.512 852.962,290.012 857.5,289C 883.357,283.067 909.357,280.901 935.5,282.5 Z"/></g>
<g><path style="opacity:1" fill="#522a12" d="M 935.5,282.5 C 949.062,282.713 962.062,285.546 974.5,291C 985.077,294.366 993.577,300.532 1000,309.5C 1008.73,326.467 1012.06,344.467 1010,363.5C 1007.52,375.387 1006.02,387.387 1005.5,399.5C 1000.48,399.387 995.482,399.053 990.5,398.5C 991.589,352.257 969.256,332.59 923.5,339.5C 923.5,320.5 923.5,301.5 923.5,282.5C 927.5,282.5 931.5,282.5 935.5,282.5 Z"/></g>
<g><path style="opacity:1" fill="#f7b008" d="M 480.5,285.5 C 489.579,293.074 498.245,301.241 506.5,310C 501.667,314.833 496.833,319.667 492,324.5C 483.652,316.319 475.486,307.986 467.5,299.5C 471.855,294.813 476.188,290.146 480.5,285.5 Z"/></g>
<g><path style="opacity:1" fill="#f7b00f" d="M 715.5,286.5 C 721.088,290.417 726.088,295.084 730.5,300.5C 722.882,309.62 714.716,318.286 706,326.5C 701.12,321.956 696.62,317.122 692.5,312C 700.361,303.641 708.027,295.141 715.5,286.5 Z"/></g>
<g><path style="opacity:1" fill="#f7af03" d="M 590.5,323.5 C 592.833,323.5 595.167,323.5 597.5,323.5C 597.5,361.167 597.5,398.833 597.5,436.5C 592.493,433.157 587.493,429.824 582.5,426.5C 578.391,428.766 574.391,431.266 570.5,434C 565.623,436.296 560.956,435.963 556.5,433C 554.377,430.755 552.044,428.755 549.5,427C 543.212,425.622 540.379,428.122 541,434.5C 558.508,461.183 568.008,490.516 569.5,522.5C 573.833,522.5 578.167,522.5 582.5,522.5C 580.892,496.737 574.892,472.071 564.5,448.5C 570.863,447.99 576.697,445.99 582,442.5C 586.404,446.47 591.571,448.804 597.5,449.5C 597.5,479.167 597.5,508.833 597.5,538.5C 583.833,538.5 570.167,538.5 556.5,538.5C 554.833,538.5 553.167,538.5 551.5,538.5C 550.752,531.014 549.252,523.68 547,516.5C 537.584,500.666 527.917,484.999 518,469.5C 493.468,422.19 500.635,380.356 539.5,344C 554.449,332.181 571.449,325.348 590.5,323.5 Z"/></g>
<g><path style="opacity:1" fill="#f1a347" d="M 590.5,323.5 C 595.5,322.167 600.5,322.167 605.5,323.5C 603.167,323.5 600.833,323.5 598.5,323.5C 598.5,361.167 598.5,398.833 598.5,436.5C 598.167,436.5 597.833,436.5 597.5,436.5C 597.5,398.833 597.5,361.167 597.5,323.5C 595.167,323.5 592.833,323.5 590.5,323.5 Z"/></g>
<g><path style="opacity:1" fill="#ef7f13" d="M 605.5,323.5 C 645.848,327.923 673.682,348.923 689,386.5C 699.018,416.386 695.685,444.719 679,471.5C 669.75,485.665 660.75,499.998 652,514.5C 649.534,522.363 647.701,530.363 646.5,538.5C 644.5,538.5 642.5,538.5 640.5,538.5C 640.167,538.5 639.833,538.5 639.5,538.5C 625.833,538.5 612.167,538.5 598.5,538.5C 598.5,509.167 598.5,479.833 598.5,450.5C 600.415,450.784 602.081,450.451 603.5,449.5C 608.675,448.945 613.175,446.945 617,443.5C 621.367,447.6 626.534,449.934 632.5,450.5C 621.684,473.286 615.351,497.286 613.5,522.5C 617.833,522.5 622.167,522.5 626.5,522.5C 628.636,490.922 638.802,462.256 657,436.5C 658.167,429.667 655.333,426.833 648.5,428C 638.915,439.217 629.582,439.217 620.5,428C 618.5,427.333 616.5,427.333 614.5,428C 610.683,433.741 605.349,436.575 598.5,436.5C 598.5,398.833 598.5,361.167 598.5,323.5C 600.833,323.5 603.167,323.5 605.5,323.5 Z"/></g>
<g><path style="opacity:1" fill="#f3cba9" d="M 922.5,340.5 C 922.5,361.833 922.5,383.167 922.5,404.5C 910.854,402.67 899.187,400.837 887.5,399C 877.506,398.5 867.506,398.334 857.5,398.5C 856.793,353.522 878.46,334.188 922.5,340.5 Z"/></g>
<g><path style="opacity:1" fill="#e5ba98" d="M 990.5,398.5 C 979.828,398.333 969.161,398.5 958.5,399C 946.363,400.129 934.363,401.962 922.5,404.5C 922.5,383.167 922.5,361.833 922.5,340.5C 923.167,340.5 923.5,340.167 923.5,339.5C 969.256,332.59 991.589,352.257 990.5,398.5 Z"/></g>
<g><path style="opacity:1" fill="#0f0d0e" d="M 857.5,398.5 C 867.506,398.334 877.506,398.5 887.5,399C 899.187,400.837 910.854,402.67 922.5,404.5C 934.363,401.962 946.363,400.129 958.5,399C 969.161,398.5 979.828,398.333 990.5,398.5C 995.482,399.053 1000.48,399.387 1005.5,399.5C 1006.21,400.404 1007.21,400.737 1008.5,400.5C 1008.67,405.179 1008.5,409.845 1008,414.5C 1006.67,415.167 1005.67,416.167 1005,417.5C 1004.5,420.482 1004.34,423.482 1004.5,426.5C 1003.29,431.354 1002.12,436.354 1001,441.5C 1000.44,443.887 999.27,445.887 997.5,447.5C 991.756,449.94 985.756,451.773 979.5,453C 969.5,453.667 959.5,453.667 949.5,453C 940.748,452.244 934.915,447.744 932,439.5C 929.534,432.635 927.534,425.635 926,418.5C 924.322,416.447 922.489,416.113 920.5,417.5C 917.726,427.313 914.226,436.98 910,446.5C 905.673,450.547 900.507,452.714 894.5,453C 879.893,454.505 865.559,453.338 851.5,449.5C 850.035,448.263 848.368,447.263 846.5,446.5C 846.068,445.29 845.401,444.29 844.5,443.5C 842.785,434.541 841.285,425.541 840,416.5C 839,415.833 838,415.167 837,414.5C 836.333,409.833 836.333,405.167 837,400.5C 838.699,399.594 840.533,399.261 842.5,399.5C 847.463,398.746 852.463,398.413 857.5,398.5 Z"/></g>
<g><path style="opacity:1" fill="#f0c9a7" d="M 851.5,443.5 C 851.487,430.244 853.154,417.244 856.5,404.5C 866.992,403.341 877.659,403.175 888.5,404C 896.281,404.899 903.448,407.399 910,411.5C 912.374,414.801 913.04,418.467 912,422.5C 910.583,429.336 908.583,436.003 906,442.5C 905.167,444 904,445.167 902.5,446C 887.944,450.292 873.277,450.625 858.5,447C 855.719,446.478 853.385,445.311 851.5,443.5 Z"/></g>
<g><path style="opacity:1" fill="#e3b896" d="M 992.5,405.5 C 995.793,416.557 997.126,427.891 996.5,439.5C 996.249,441.17 995.582,442.67 994.5,444C 977.356,450.239 960.023,450.905 942.5,446C 937.78,439.658 934.947,432.492 934,424.5C 933.333,420.833 933.333,417.167 934,413.5C 938.348,409.242 943.514,406.408 949.5,405C 962.452,403.433 975.452,403.1 988.5,404C 990.058,404.21 991.391,404.71 992.5,405.5 Z"/></g>
<g><path style="opacity:1" fill="#6c3d21" d="M 856.5,404.5 C 853.154,417.244 851.487,430.244 851.5,443.5C 849.36,441.3 847.86,438.633 847,435.5C 845.229,426.567 844.562,417.567 845,408.5C 848.292,405.68 852.125,404.347 856.5,404.5 Z"/></g>
<g><path style="opacity:1" fill="#532b14" d="M 992.5,405.5 C 997.781,405.282 1000.78,407.782 1001.5,413C 1000.73,422.135 999.064,430.968 996.5,439.5C 997.126,427.891 995.793,416.557 992.5,405.5 Z"/></g>
<g><path style="opacity:1" fill="#f7b011" d="M 430.5,408.5 C 442.167,408.5 453.833,408.5 465.5,408.5C 465.5,415.5 465.5,422.5 465.5,429.5C 453.833,429.5 442.167,429.5 430.5,429.5C 430.5,422.5 430.5,415.5 430.5,408.5 Z"/></g>
<g><path style="opacity:1" fill="#f7b00f" d="M 733.5,409.5 C 745.167,409.5 756.833,409.5 768.5,409.5C 768.5,416.5 768.5,423.5 768.5,430.5C 756.833,430.5 745.167,430.5 733.5,430.5C 733.5,423.5 733.5,416.5 733.5,409.5 Z"/></g>
<g><path style="opacity:1" fill="#0d0c0d" d="M 879.5,411.5 C 888.53,411.359 892.363,415.692 891,424.5C 888.367,429.732 884.201,431.565 878.5,430C 873.845,427.103 872.345,422.937 874,417.5C 875.36,414.977 877.193,412.977 879.5,411.5 Z"/></g>
<g><path style="opacity:1" fill="#100e0e" d="M 961.5,411.5 C 972.097,412.574 975.264,417.907 971,427.5C 964.597,432.157 959.263,431.157 955,424.5C 953.881,418.469 956.048,414.136 961.5,411.5 Z"/></g>
<g><path style="opacity:1" fill="#e3b796" d="M 920.5,417.5 C 922.489,416.113 924.322,416.447 926,418.5C 927.534,425.635 929.534,432.635 932,439.5C 934.915,447.744 940.748,452.244 949.5,453C 959.5,453.667 969.5,453.667 979.5,453C 985.756,451.773 991.756,449.94 997.5,447.5C 997.216,449.415 997.549,451.081 998.5,452.5C 998.167,453.5 997.5,454.167 996.5,454.5C 986.896,464.605 977.063,474.605 967,484.5C 955.158,470.83 940.325,465.83 922.5,469.5C 921.209,469.737 920.209,469.404 919.5,468.5C 920.5,468.5 921.5,468.5 922.5,468.5C 923.152,451.134 922.486,434.134 920.5,417.5 Z"/></g>
<g><path style="opacity:1" fill="#f2caa8" d="M 920.5,417.5 C 922.486,434.134 923.152,451.134 922.5,468.5C 921.5,468.5 920.5,468.5 919.5,468.5C 902.974,466.285 889.474,471.618 879,484.5C 869.627,474.63 860.46,464.63 851.5,454.5C 851.5,454.167 851.5,453.833 851.5,453.5C 851.5,452.167 851.5,450.833 851.5,449.5C 865.559,453.338 879.893,454.505 894.5,453C 900.507,452.714 905.673,450.547 910,446.5C 914.226,436.98 917.726,427.313 920.5,417.5 Z"/></g>
<g><path style="opacity:1" fill="#f3f1ef" d="M 597.5,436.5 C 597.833,436.5 598.167,436.5 598.5,436.5C 605.349,436.575 610.683,433.741 614.5,428C 616.5,427.333 618.5,427.333 620.5,428C 629.582,439.217 638.915,439.217 648.5,428C 655.333,426.833 658.167,429.667 657,436.5C 638.802,462.256 628.636,490.922 626.5,522.5C 622.167,522.5 617.833,522.5 613.5,522.5C 615.351,497.286 621.684,473.286 632.5,450.5C 626.534,449.934 621.367,447.6 617,443.5C 613.175,446.945 608.675,448.945 603.5,449.5C 601.5,449.5 599.5,449.5 597.5,449.5C 591.571,448.804 586.404,446.47 582,442.5C 576.697,445.99 570.863,447.99 564.5,448.5C 574.892,472.071 580.892,496.737 582.5,522.5C 578.167,522.5 573.833,522.5 569.5,522.5C 568.008,490.516 558.508,461.183 541,434.5C 540.379,428.122 543.212,425.622 549.5,427C 552.044,428.755 554.377,430.755 556.5,433C 560.956,435.963 565.623,436.296 570.5,434C 574.391,431.266 578.391,428.766 582.5,426.5C 587.493,429.824 592.493,433.157 597.5,436.5 Z"/></g>
<g><path style="opacity:1" fill="#4f2a14" d="M 1004.5,426.5 C 1005.63,435.972 1003.63,444.639 998.5,452.5C 997.549,451.081 997.216,449.415 997.5,447.5C 999.27,445.887 1000.44,443.887 1001,441.5C 1002.12,436.354 1003.29,431.354 1004.5,426.5 Z"/></g>
<g><path style="opacity:1" fill="#c8b89e" d="M 844.5,443.5 C 845.401,444.29 846.068,445.29 846.5,446.5C 847.433,449.37 849.1,451.704 851.5,453.5C 851.5,453.833 851.5,454.167 851.5,454.5C 855.46,477.222 862.627,499.222 873,520.5C 879.233,530.573 887.733,537.907 898.5,542.5C 898.5,551.833 898.5,561.167 898.5,570.5C 896.969,574.426 895.636,578.426 894.5,582.5C 879.137,586.373 863.804,590.373 848.5,594.5C 846.847,594.34 845.514,593.674 844.5,592.5C 844.5,542.833 844.5,493.167 844.5,443.5 Z"/></g>
<g><path style="opacity:1" fill="#754b30" d="M 846.5,446.5 C 848.368,447.263 850.035,448.263 851.5,449.5C 851.5,450.833 851.5,452.167 851.5,453.5C 849.1,451.704 847.433,449.37 846.5,446.5 Z"/></g>
<g><path style="opacity:1" fill="#f1a042" d="M 597.5,449.5 C 599.5,449.5 601.5,449.5 603.5,449.5C 602.081,450.451 600.415,450.784 598.5,450.5C 598.5,479.833 598.5,509.167 598.5,538.5C 598.167,538.5 597.833,538.5 597.5,538.5C 597.5,508.833 597.5,479.167 597.5,449.5 Z"/></g>
<g><path style="opacity:1" fill="#6c3d21" d="M 851.5,454.5 C 860.46,464.63 869.627,474.63 879,484.5C 889.474,471.618 902.974,466.285 919.5,468.5C 920.209,469.404 921.209,469.737 922.5,469.5C 921.883,475.598 922.55,481.265 924.5,486.5C 924.158,487.338 923.492,487.672 922.5,487.5C 916.178,486.14 909.844,486.306 903.5,488C 898.484,489.844 895.484,493.344 894.5,498.5C 895.294,506.436 898.627,512.936 904.5,518C 911.942,518.111 917.942,515.278 922.5,509.5C 922.5,522.5 922.5,535.5 922.5,548.5C 921.833,548.5 921.167,548.5 920.5,548.5C 912.882,547.516 905.549,545.516 898.5,542.5C 887.733,537.907 879.233,530.573 873,520.5C 862.627,499.222 855.46,477.222 851.5,454.5 Z"/></g>
<g><path style="opacity:1" fill="#532b13" d="M 996.5,454.5 C 991.296,476.945 983.796,498.612 974,519.5C 967.399,530.271 958.232,537.938 946.5,542.5C 938.766,545.522 930.766,547.522 922.5,548.5C 922.5,535.5 922.5,522.5 922.5,509.5C 925.787,513.279 929.787,516.113 934.5,518C 939.878,519.064 944.044,517.231 947,512.5C 948.885,507.795 950.385,502.961 951.5,498C 950.598,493.853 948.265,490.853 944.5,489C 937.972,487.058 931.305,486.225 924.5,486.5C 922.55,481.265 921.883,475.598 922.5,469.5C 940.325,465.83 955.158,470.83 967,484.5C 977.063,474.605 986.896,464.605 996.5,454.5 Z"/></g>
<g><path style="opacity:1" fill="#f1c9a7" d="M 922.5,487.5 C 922.5,488.5 922.5,489.5 922.5,490.5C 916.794,490.171 911.128,490.505 905.5,491.5C 909.781,497.142 915.447,500.475 922.5,501.5C 922.5,504.167 922.5,506.833 922.5,509.5C 917.942,515.278 911.942,518.111 904.5,518C 898.627,512.936 895.294,506.436 894.5,498.5C 895.484,493.344 898.484,489.844 903.5,488C 909.844,486.306 916.178,486.14 922.5,487.5 Z"/></g>
<g><path style="opacity:1" fill="#e4b896" d="M 924.5,486.5 C 931.305,486.225 937.972,487.058 944.5,489C 948.265,490.853 950.598,493.853 951.5,498C 950.385,502.961 948.885,507.795 947,512.5C 944.044,517.231 939.878,519.064 934.5,518C 929.787,516.113 925.787,513.279 922.5,509.5C 922.5,506.833 922.5,504.167 922.5,501.5C 929.553,500.475 935.219,497.142 939.5,491.5C 933.872,490.505 928.206,490.171 922.5,490.5C 922.5,489.5 922.5,488.5 922.5,487.5C 923.492,487.672 924.158,487.338 924.5,486.5 Z"/></g>
<g><path style="opacity:1" fill="#ec7865" d="M 922.5,490.5 C 928.206,490.171 933.872,490.505 939.5,491.5C 935.219,497.142 929.553,500.475 922.5,501.5C 915.447,500.475 909.781,497.142 905.5,491.5C 911.128,490.505 916.794,490.171 922.5,490.5 Z"/></g>
<g><path style="opacity:1" fill="#5a331c" d="M 710.5,580.5 C 710.804,581.15 711.137,581.817 711.5,582.5C 708.5,583.833 705.5,583.833 702.5,582.5C 702.137,581.817 701.804,581.15 701.5,580.5C 690.015,557.201 678.849,533.868 668,510.5C 681.995,533.982 696.162,557.316 710.5,580.5 Z"/></g>
<g><path style="opacity:1" fill="#748d87" d="M 556.5,538.5 C 570.167,538.5 583.833,538.5 597.5,538.5C 597.833,538.5 598.167,538.5 598.5,538.5C 612.167,538.5 625.833,538.5 639.5,538.5C 639.5,538.833 639.5,539.167 639.5,539.5C 625.833,539.5 612.167,539.5 598.5,539.5C 598.5,542.5 598.5,545.5 598.5,548.5C 598.167,548.5 597.833,548.5 597.5,548.5C 583.833,548.5 570.167,548.5 556.5,548.5C 556.5,545.167 556.5,541.833 556.5,538.5 Z"/></g>
<g><path style="opacity:1" fill="#4c6c6b" d="M 639.5,539.5 C 639.5,542.5 639.5,545.5 639.5,548.5C 625.833,548.5 612.167,548.5 598.5,548.5C 598.5,545.5 598.5,542.5 598.5,539.5C 612.167,539.5 625.833,539.5 639.5,539.5 Z"/></g>
<g><path style="opacity:1" fill="#e5ba98" d="M 898.5,542.5 C 905.549,545.516 912.882,547.516 920.5,548.5C 922.44,558.91 923.107,569.577 922.5,580.5C 914.586,576.973 906.586,573.639 898.5,570.5C 898.5,561.167 898.5,551.833 898.5,542.5 Z"/></g>
<g><path style="opacity:1" fill="#d1a07e" d="M 946.5,542.5 C 946.5,551.833 946.5,561.167 946.5,570.5C 938.833,573.833 931.167,577.167 923.5,580.5C 923.167,580.5 922.833,580.5 922.5,580.5C 923.107,569.577 922.44,558.91 920.5,548.5C 921.167,548.5 921.833,548.5 922.5,548.5C 930.766,547.522 938.766,545.522 946.5,542.5 Z"/></g>
<g><path style="opacity:1" fill="#bcd6d8" d="M 556.5,548.5 C 570.167,548.5 583.833,548.5 597.5,548.5C 597.5,554.5 597.5,560.5 597.5,566.5C 583.833,566.5 570.167,566.5 556.5,566.5C 548.188,566.689 544.688,562.689 546,554.5C 548.079,550.043 551.579,548.043 556.5,548.5 Z"/></g>
<g><path style="opacity:1" fill="#708e8c" d="M 556.5,566.5 C 570.167,566.5 583.833,566.5 597.5,566.5C 597.833,566.5 598.167,566.5 598.5,566.5C 598.5,569.167 598.5,571.833 598.5,574.5C 598.167,574.5 597.833,574.5 597.5,574.5C 583.833,574.5 570.167,574.5 556.5,574.5C 556.5,571.833 556.5,569.167 556.5,566.5 Z"/></g>
<g><path style="opacity:1" fill="#4d6d6d" d="M 598.5,566.5 C 612.167,566.5 625.833,566.5 639.5,566.5C 639.5,569.167 639.5,571.833 639.5,574.5C 625.833,574.5 612.167,574.5 598.5,574.5C 598.5,571.833 598.5,569.167 598.5,566.5 Z"/></g>
<g><path style="opacity:1" fill="#0cb5e0" d="M 898.5,570.5 C 906.586,573.639 914.586,576.973 922.5,580.5C 921.886,584.135 921.552,587.802 921.5,591.5C 919.362,600.636 917.529,609.97 916,619.5C 907.761,610.018 899.761,600.351 892,590.5C 892.494,587.815 893.327,585.148 894.5,582.5C 895.636,578.426 896.969,574.426 898.5,570.5 Z"/></g>
<g><path style="opacity:1" fill="#08a7c8" d="M 946.5,570.5 C 949.027,574.221 951.027,578.221 952.5,582.5C 953.639,585.425 954.139,588.425 954,591.5C 946.333,600.5 938.667,609.5 931,618.5C 928.176,605.895 925.676,593.228 923.5,580.5C 931.167,577.167 938.833,573.833 946.5,570.5 Z"/></g>
<g><path style="opacity:1" fill="#bcd6d8" d="M 556.5,574.5 C 570.167,574.5 583.833,574.5 597.5,574.5C 597.5,580.5 597.5,586.5 597.5,592.5C 583.99,592.171 570.656,592.504 557.5,593.5C 547.575,592.981 544.075,587.981 547,578.5C 549.408,575.38 552.574,574.047 556.5,574.5 Z"/></g>
<g><path style="opacity:1" fill="#85bcbe" d="M 639.5,538.5 C 639.833,538.5 640.167,538.5 640.5,538.5C 640.5,541.833 640.5,545.167 640.5,548.5C 646.545,548.71 649.878,551.876 650.5,558C 649.459,563.542 646.125,566.376 640.5,566.5C 640.5,569.167 640.5,571.833 640.5,574.5C 646.588,574.754 649.921,577.921 650.5,584C 649.313,590.018 645.646,592.852 639.5,592.5C 625.5,592.5 611.5,592.5 597.5,592.5C 597.5,586.5 597.5,580.5 597.5,574.5C 597.833,574.5 598.167,574.5 598.5,574.5C 612.167,574.5 625.833,574.5 639.5,574.5C 639.5,571.833 639.5,569.167 639.5,566.5C 625.833,566.5 612.167,566.5 598.5,566.5C 598.167,566.5 597.833,566.5 597.5,566.5C 597.5,560.5 597.5,554.5 597.5,548.5C 597.833,548.5 598.167,548.5 598.5,548.5C 612.167,548.5 625.833,548.5 639.5,548.5C 639.5,545.5 639.5,542.5 639.5,539.5C 639.5,539.167 639.5,538.833 639.5,538.5 Z"/></g>
<g><path style="opacity:1" fill="#e6bb99" d="M 701.5,580.5 C 701.804,581.15 702.137,581.817 702.5,582.5C 705.5,583.833 708.5,583.833 711.5,582.5C 711.137,581.817 710.804,581.15 710.5,580.5C 716.572,579.777 722.072,581.111 727,584.5C 729.307,592.368 730.974,600.368 732,608.5C 737.689,619.228 743.856,629.561 750.5,639.5C 753.596,645.367 756.929,651.033 760.5,656.5C 757.833,662.833 755.167,669.167 752.5,675.5C 750.567,674.358 749.067,672.692 748,670.5C 742.378,659.579 736.545,648.913 730.5,638.5C 726.679,631.527 722.846,624.527 719,617.5C 714.433,614.967 709.6,613.133 704.5,612C 703.707,610.915 703.04,609.748 702.5,608.5C 697.393,607.595 695.393,604.762 696.5,600C 689.946,598.777 688.946,595.777 693.5,591C 691.714,590.215 690.214,589.049 689,587.5C 686.825,584.332 687.659,582.165 691.5,581C 694.817,580.502 698.15,580.335 701.5,580.5 Z"/></g>
<g><path style="opacity:1" fill="#5a6476" d="M 894.5,582.5 C 893.327,585.148 892.494,587.815 892,590.5C 899.761,600.351 907.761,610.018 916,619.5C 917.529,609.97 919.362,600.636 921.5,591.5C 921.5,627.167 921.5,662.833 921.5,698.5C 898.466,692.251 875.133,690.918 851.5,694.5C 851.054,672.652 850.054,650.985 848.5,629.5C 848.5,617.833 848.5,606.167 848.5,594.5C 863.804,590.373 879.137,586.373 894.5,582.5 Z"/></g>
<g><path style="opacity:1" fill="#384254" d="M 922.5,580.5 C 922.833,580.5 923.167,580.5 923.5,580.5C 925.676,593.228 928.176,605.895 931,618.5C 938.667,609.5 946.333,600.5 954,591.5C 954.139,588.425 953.639,585.425 952.5,582.5C 967.414,586.789 982.414,590.789 997.5,594.5C 996.434,615.148 995.767,635.815 995.5,656.5C 992.82,717.81 990.487,779.144 988.5,840.5C 988.068,841.71 987.401,842.71 986.5,843.5C 967.5,843.5 948.5,843.5 929.5,843.5C 939.192,827.926 945.025,810.926 947,792.5C 947.667,771.5 947.667,750.5 947,729.5C 944.125,714.356 935.625,704.023 921.5,698.5C 921.5,662.833 921.5,627.167 921.5,591.5C 921.552,587.802 921.886,584.135 922.5,580.5 Z"/></g>
<g><path style="opacity:1" fill="#09b7e2" d="M 844.5,592.5 C 845.514,593.674 846.847,594.34 848.5,594.5C 848.5,606.167 848.5,617.833 848.5,629.5C 833.528,649.981 816.528,668.815 797.5,686C 786.135,693.986 774.468,694.486 762.5,687.5C 765.189,678.063 767.856,668.729 770.5,659.5C 772.308,659.509 773.975,659.009 775.5,658C 781.196,652.082 786.529,645.915 791.5,639.5C 802.307,623.403 813.973,607.903 826.5,593C 832.42,589.843 838.42,589.676 844.5,592.5 Z"/></g>
<g><path style="opacity:1" fill="#6e8d8c" d="M 597.5,592.5 C 611.5,592.5 625.5,592.5 639.5,592.5C 639.5,593.167 639.167,593.5 638.5,593.5C 625.167,593.5 611.833,593.5 598.5,593.5C 598.5,596.5 598.5,599.5 598.5,602.5C 598.167,602.5 597.833,602.5 597.5,602.5C 586.833,602.5 576.167,602.5 565.5,602.5C 562.833,599.5 560.167,596.5 557.5,593.5C 570.656,592.504 583.99,592.171 597.5,592.5 Z"/></g>
<g><path style="opacity:1" fill="#4c6c6c" d="M 638.5,593.5 C 635.833,596.833 632.833,599.833 629.5,602.5C 619.167,602.5 608.833,602.5 598.5,602.5C 598.5,599.5 598.5,596.5 598.5,593.5C 611.833,593.5 625.167,593.5 638.5,593.5 Z"/></g>
<g><path style="opacity:1" fill="#08aed3" d="M 1049.5,680.5 C 1048.39,690.134 1047.73,699.8 1047.5,709.5C 1043.17,709.5 1038.83,709.5 1034.5,709.5C 1026.91,708.288 1020.75,704.621 1016,698.5C 1008.86,684.562 1002.03,670.562 995.5,656.5C 995.767,635.815 996.434,615.148 997.5,594.5C 1005.93,591.711 1013.09,593.711 1019,600.5C 1026.79,623.336 1034.13,646.336 1041,669.5C 1042.33,672.167 1043.67,674.833 1045,677.5C 1046.13,679.141 1047.63,680.141 1049.5,680.5 Z"/></g>
<g><path style="opacity:1" fill="#bcd6d7" d="M 565.5,602.5 C 576.167,602.5 586.833,602.5 597.5,602.5C 598.445,607.405 598.779,612.405 598.5,617.5C 585.088,617.625 574.088,612.625 565.5,602.5 Z"/></g>
<g><path style="opacity:1" fill="#87bcbe" d="M 597.5,602.5 C 597.833,602.5 598.167,602.5 598.5,602.5C 608.833,602.5 619.167,602.5 629.5,602.5C 626.273,607.965 621.606,611.798 615.5,614C 609.949,615.769 604.282,616.935 598.5,617.5C 598.779,612.405 598.445,607.405 597.5,602.5 Z"/></g>
<g><path style="opacity:1" fill="#572e16" d="M 715.5,610.5 C 718.024,609.2 720.691,609.2 723.5,610.5C 725.457,614.328 724.457,616.162 720.5,616C 718.598,614.27 716.931,612.437 715.5,610.5 Z"/></g>
<g><path style="opacity:0.972" fill="#e6bb99" d="M 1103.5,655.5 C 1102.18,655.33 1101.01,655.663 1100,656.5C 1087.39,674.079 1074.56,691.413 1061.5,708.5C 1060.94,698.825 1060.27,689.159 1059.5,679.5C 1068.83,667.996 1078,656.329 1087,644.5C 1091.81,634.551 1098.31,625.885 1106.5,618.5C 1108.46,616.688 1110.79,615.688 1113.5,615.5C 1113.97,619.874 1112.97,623.874 1110.5,627.5C 1111.33,627.833 1112.17,628.167 1113,628.5C 1121.44,626.509 1129.94,625.343 1138.5,625C 1143.13,634.739 1140.47,641.739 1130.5,646C 1121.36,648.88 1112.36,652.047 1103.5,655.5 Z"/></g>
<g><path style="opacity:1" fill="#c8b9a0" d="M 750.5,639.5 C 764.167,639.5 777.833,639.5 791.5,639.5C 786.529,645.915 781.196,652.082 775.5,658C 773.975,659.009 772.308,659.509 770.5,659.5C 770.244,657.224 768.91,656.057 766.5,656C 764.402,655.322 762.402,655.489 760.5,656.5C 756.929,651.033 753.596,645.367 750.5,639.5 Z"/></g>
<g><path style="opacity:1" fill="#5fc0e3" d="M 770.5,659.5 C 767.856,668.729 765.189,678.063 762.5,687.5C 750.463,690.507 747.13,686.507 752.5,675.5C 755.167,669.167 757.833,662.833 760.5,656.5C 762.402,655.489 764.402,655.322 766.5,656C 768.91,656.057 770.244,657.224 770.5,659.5 Z"/></g>
<g><path style="opacity:0.992" fill="#c7b79d" d="M 1103.5,655.5 C 1100.83,686.522 1094.83,716.855 1085.5,746.5C 1082.04,747.482 1078.37,747.815 1074.5,747.5C 1052.35,745.353 1031.35,749.186 1011.5,759C 1001.48,765.858 995.649,775.358 994,787.5C 993.5,804.163 993.333,820.83 993.5,837.5C 991.999,838.752 990.332,839.752 988.5,840.5C 990.487,779.144 992.82,717.81 995.5,656.5C 1002.03,670.562 1008.86,684.562 1016,698.5C 1020.75,704.621 1026.91,708.288 1034.5,709.5C 1041.27,710.22 1048.1,711.22 1055,712.5C 1056.83,712.333 1058.67,712.167 1060.5,712C 1061.34,710.989 1061.67,709.822 1061.5,708.5C 1074.56,691.413 1087.39,674.079 1100,656.5C 1101.01,655.663 1102.18,655.33 1103.5,655.5 Z"/></g>
<g><path style="opacity:1" fill="#27b5ce" d="M 1059.5,679.5 C 1060.27,689.159 1060.94,698.825 1061.5,708.5C 1061.67,709.822 1061.34,710.989 1060.5,712C 1058.67,712.167 1056.83,712.333 1055,712.5C 1048.1,711.22 1041.27,710.22 1034.5,709.5C 1038.83,709.5 1043.17,709.5 1047.5,709.5C 1047.73,699.8 1048.39,690.134 1049.5,680.5C 1049.61,679.883 1049.94,679.383 1050.5,679C 1053.59,678.264 1056.59,678.431 1059.5,679.5 Z"/></g>
<g><path style="opacity:0.999" fill="#e84c26" d="M 328.5,751.5 C 305.098,761.746 290.598,779.412 285,804.5C 281.485,825.061 280.652,845.727 282.5,866.5C 281.883,866.611 281.383,866.944 281,867.5C 280.5,878.161 280.333,888.828 280.5,899.5C 284.167,899.5 287.833,899.5 291.5,899.5C 298.971,916.755 310.471,930.755 326,941.5C 327.272,946.431 329.772,950.597 333.5,954C 332.633,957.105 332.299,960.272 332.5,963.5C 315.497,963.333 298.497,963.5 281.5,964C 271.632,966.016 263.132,970.516 256,977.5C 251.973,982.896 248.473,988.562 245.5,994.5C 243.5,994.5 241.5,994.5 239.5,994.5C 232.071,976.569 218.737,966.402 199.5,964C 185.504,963.5 171.504,963.333 157.5,963.5C 156.986,950.733 157.653,938.066 159.5,925.5C 160.167,925.5 160.5,925.167 160.5,924.5C 169.432,918.57 177.098,911.237 183.5,902.5C 186.054,901.394 188.721,900.561 191.5,900C 206.496,899.5 221.496,899.333 236.5,899.5C 236.667,888.828 236.5,878.161 236,867.5C 222.084,860.747 211.25,850.747 203.5,837.5C 203.667,820.497 203.5,803.497 203,786.5C 201.004,776.167 196.171,767.501 188.5,760.5C 188.334,750.828 188.5,741.161 189,731.5C 191.565,714.934 200.731,703.767 216.5,698C 237.877,692.396 259.543,691.062 281.5,694C 316.417,697.418 332.084,716.585 328.5,751.5 Z"/></g>
<g><path style="opacity:1" fill="#e84c26" d="M 533.5,740.5 C 529.77,740.146 526.437,738.813 523.5,736.5C 522.934,740.008 523.767,743.341 526,746.5C 528.34,750.006 531.174,753.006 534.5,755.5C 526.196,763.438 521.03,773.105 519,784.5C 518.5,803.164 518.333,821.83 518.5,840.5C 515.177,844.46 511.844,848.46 508.5,852.5C 502.542,858.803 495.542,863.47 487.5,866.5C 487.5,877.5 487.5,888.5 487.5,899.5C 502.17,899.333 516.837,899.5 531.5,900C 533.518,900.505 535.518,901.005 537.5,901.5C 544.639,911.642 553.639,919.642 564.5,925.5C 566.347,938.066 567.014,950.733 566.5,963.5C 550.83,963.333 535.163,963.5 519.5,964C 502.011,967.882 490.011,978.048 483.5,994.5C 481.167,994.5 478.833,994.5 476.5,994.5C 470.169,977.671 458.169,967.504 440.5,964C 423.503,963.5 406.503,963.333 389.5,963.5C 393.832,956.893 395.665,949.56 395,941.5C 410.818,930.863 422.651,916.863 430.5,899.5C 434.5,899.5 438.5,899.5 442.5,899.5C 443.166,894.177 443.499,888.677 443.5,883C 443.495,877.124 442.829,871.624 441.5,866.5C 441.167,866.5 440.833,866.5 440.5,866.5C 441.606,844.623 440.106,822.957 436,801.5C 431.555,782.762 421.722,767.595 406.5,756C 402.593,753.879 398.593,752.045 394.5,750.5C 394.253,743.112 394.753,735.779 396,728.5C 398.72,714.115 406.887,704.282 420.5,699C 447.631,691.131 474.965,690.465 502.5,697C 524.873,703.17 535.206,717.67 533.5,740.5 Z"/></g>
<g><path style="opacity:1" fill="#e84c26" d="M 772.5,963.5 C 747.958,961.918 730.958,972.252 721.5,994.5C 718.833,994.5 716.167,994.5 713.5,994.5C 708.577,979.079 698.244,969.246 682.5,965C 663.203,963.592 643.87,963.092 624.5,963.5C 624.5,952.167 624.5,940.833 624.5,929.5C 649.764,918.232 666.097,899.232 673.5,872.5C 684.16,870.668 688.993,864.335 688,853.5C 686.404,848.408 683.237,844.742 678.5,842.5C 679.178,825.169 679.344,807.836 679,790.5C 677.628,769.212 667.128,754.712 647.5,747C 632.529,742.378 617.196,740.212 601.5,740.5C 601.5,740.167 601.5,739.833 601.5,739.5C 601.896,715.937 613.563,701.437 636.5,696C 661.988,690.91 687.321,691.577 712.5,698C 729.76,703.595 739.26,715.428 741,733.5C 741.775,758.581 740.775,783.581 738,808.5C 731.99,834.815 717.324,854.481 694,867.5C 693.5,878.161 693.333,888.828 693.5,899.5C 708.17,899.333 722.837,899.5 737.5,900C 755.246,903.078 766.746,913.245 772,930.5C 772.5,941.495 772.667,952.495 772.5,963.5 Z"/></g>
<g><path style="opacity:1" fill="#e84c26" d="M 921.5,698.5 C 935.625,704.023 944.125,714.356 947,729.5C 947.667,750.5 947.667,771.5 947,792.5C 945.025,810.926 939.192,827.926 929.5,843.5C 927.367,845.091 925.701,847.091 924.5,849.5C 922.597,846.542 919.93,844.542 916.5,843.5C 916.667,824.497 916.5,805.497 916,786.5C 911.869,767.702 900.369,756.202 881.5,752C 866.765,748.043 851.765,746.543 836.5,747.5C 826.794,747.245 817.127,747.579 807.5,748.5C 805.142,716.521 819.809,698.521 851.5,694.5C 875.133,690.918 898.466,692.251 921.5,698.5 Z"/></g>
<g><path style="opacity:0.999" fill="#4c2216" d="M 124.5,736.5 C 132.145,739.654 139.812,742.821 147.5,746C 161.829,749.164 175.495,753.997 188.5,760.5C 196.171,767.501 201.004,776.167 203,786.5C 203.5,803.497 203.667,820.497 203.5,837.5C 203.5,841.167 203.5,844.833 203.5,848.5C 202.183,858.753 199.85,868.753 196.5,878.5C 193.198,887.107 188.865,895.107 183.5,902.5C 177.098,911.237 169.432,918.57 160.5,924.5C 159.833,924.5 159.5,924.833 159.5,925.5C 156.386,927.391 153.052,928.724 149.5,929.5C 143.459,932.108 137.125,933.442 130.5,933.5C 128.167,933.5 125.833,933.5 123.5,933.5C 123.168,867.665 123.501,801.998 124.5,736.5 Z"/></g>
<g><path style="opacity:0.991" fill="#603628" d="M 124.5,736.5 C 123.501,801.998 123.168,867.665 123.5,933.5C 125.833,933.5 128.167,933.5 130.5,933.5C 128.393,934.468 126.059,934.802 123.5,934.5C 114.535,934.94 106.035,933.274 98,929.5C 97.6012,929.728 97.4346,930.062 97.5,930.5C 74.9352,920.27 59.2685,903.603 50.5,880.5C 47.3459,870.229 45.0126,859.895 43.5,849.5C 42.3933,829.187 42.2267,808.853 43,788.5C 45.0417,771.791 53.875,760.291 69.5,754C 78.8366,751.053 88.17,748.22 97.5,745.5C 104.343,744.387 111.01,742.553 117.5,740C 119.642,737.59 121.975,736.423 124.5,736.5 Z"/></g>
<g><path style="opacity:1" fill="#443e3c" d="M 533.5,740.5 C 538.65,741.651 543.984,741.817 549.5,741C 566.76,737.207 584.094,736.707 601.5,739.5C 601.5,739.833 601.5,740.167 601.5,740.5C 600.5,740.5 599.5,740.5 598.5,740.5C 598.5,805.167 598.5,869.833 598.5,934.5C 589.984,934.287 581.651,932.954 573.5,930.5C 573.158,929.662 572.492,929.328 571.5,929.5C 569.071,928.449 566.738,927.116 564.5,925.5C 553.639,919.642 544.639,911.642 537.5,901.5C 531.746,892.659 527.079,883.326 523.5,873.5C 520.856,862.639 519.19,851.639 518.5,840.5C 518.333,821.83 518.5,803.164 519,784.5C 521.03,773.105 526.196,763.438 534.5,755.5C 531.174,753.006 528.34,750.006 526,746.5C 523.767,743.341 522.934,740.008 523.5,736.5C 526.437,738.813 529.77,740.146 533.5,740.5 Z"/></g>
<g><path style="opacity:1" fill="#2a2422" d="M 601.5,740.5 C 617.196,740.212 632.529,742.378 647.5,747C 667.128,754.712 677.628,769.212 679,790.5C 679.344,807.836 679.178,825.169 678.5,842.5C 677.973,852.731 676.306,862.731 673.5,872.5C 666.097,899.232 649.764,918.232 624.5,929.5C 616.114,932.444 607.447,934.11 598.5,934.5C 598.5,869.833 598.5,805.167 598.5,740.5C 599.5,740.5 600.5,740.5 601.5,740.5 Z"/></g>
<g><path style="opacity:0.99" fill="#361a10" d="M 1085.5,746.5 C 1103.03,746.705 1119.7,750.538 1135.5,758C 1146.09,764.951 1152.26,774.784 1154,787.5C 1154.59,793.493 1155.09,799.493 1155.5,805.5C 1154.7,815.818 1154.36,826.152 1154.5,836.5C 1153.5,846.356 1152.5,856.356 1151.5,866.5C 1144.58,896.347 1127.25,917.68 1099.5,930.5C 1099.57,930.062 1099.4,929.728 1099,929.5C 1094.03,931.528 1088.86,932.862 1083.5,933.5C 1080.5,933.5 1077.5,933.5 1074.5,933.5C 1073.22,871.501 1073.22,809.501 1074.5,747.5C 1078.37,747.815 1082.04,747.482 1085.5,746.5 Z"/></g>
<g><path style="opacity:1" fill="#f2ce03" d="M 360.5,747.5 C 360.333,813.834 360.5,880.168 361,946.5C 363.374,948.539 365.374,950.872 367,953.5C 368.073,959.603 368.573,965.77 368.5,972C 367.342,989.861 365.675,1007.69 363.5,1025.5C 366.789,1024.63 370.123,1023.96 373.5,1023.5C 375.562,1025.41 377.062,1027.74 378,1030.5C 380.186,1040.45 377.02,1048.12 368.5,1053.5C 367.833,1053.83 367.167,1054.17 366.5,1054.5C 362.982,1057 359.649,1057 356.5,1054.5C 360.146,1053.54 361.313,1051.21 360,1047.5C 358.039,1044.54 355.706,1041.87 353,1039.5C 348.674,1033.41 348.507,1027.24 352.5,1021C 349.589,1018.28 346.756,1015.45 344,1012.5C 341.85,1007.86 342.016,1003.36 344.5,999C 337.732,992.867 335.732,985.367 338.5,976.5C 337.233,974.056 335.733,971.723 334,969.5C 333.187,967.564 332.687,965.564 332.5,963.5C 332.299,960.272 332.633,957.105 333.5,954C 329.772,950.597 327.272,946.431 326,941.5C 310.471,930.755 298.971,916.755 291.5,899.5C 286.787,888.985 283.787,877.985 282.5,866.5C 280.652,845.727 281.485,825.061 285,804.5C 290.598,779.412 305.098,761.746 328.5,751.5C 338.853,748.103 349.52,746.77 360.5,747.5 Z"/></g>
<g><path style="opacity:1" fill="#d79d00" d="M 360.5,747.5 C 372.002,746.92 383.336,747.92 394.5,750.5C 398.593,752.045 402.593,753.879 406.5,756C 421.722,767.595 431.555,782.762 436,801.5C 440.106,822.957 441.606,844.623 440.5,866.5C 437.957,877.653 434.624,888.653 430.5,899.5C 422.651,916.863 410.818,930.863 395,941.5C 395.665,949.56 393.832,956.893 389.5,963.5C 387.349,965.15 385.349,966.983 383.5,969C 385.959,977.162 384.292,984.328 378.5,990.5C 384.164,997.312 383.83,1003.65 377.5,1009.5C 379.706,1015.29 378.373,1019.96 373.5,1023.5C 370.123,1023.96 366.789,1024.63 363.5,1025.5C 365.675,1007.69 367.342,989.861 368.5,972C 368.573,965.77 368.073,959.603 367,953.5C 365.374,950.872 363.374,948.539 361,946.5C 360.5,880.168 360.333,813.834 360.5,747.5 Z"/></g>
<g><path style="opacity:1" fill="#7e5242" d="M 836.5,747.5 C 836.5,809.5 836.5,871.5 836.5,933.5C 839.5,933.5 842.5,933.5 845.5,933.5C 842.713,934.477 839.713,934.81 836.5,934.5C 827.605,934.587 818.938,933.254 810.5,930.5C 801.849,926.172 793.849,920.839 786.5,914.5C 774.939,903.254 766.605,889.92 761.5,874.5C 758.646,865.043 756.979,855.377 756.5,845.5C 755.976,827.166 755.809,808.832 756,790.5C 757.063,779.878 761.229,770.711 768.5,763C 780.013,754.327 793.013,749.494 807.5,748.5C 817.127,747.579 826.794,747.245 836.5,747.5 Z"/></g>
<g><path style="opacity:1" fill="#603628" d="M 836.5,747.5 C 851.765,746.543 866.765,748.043 881.5,752C 900.369,756.202 911.869,767.702 916,786.5C 916.5,805.497 916.667,824.497 916.5,843.5C 915.221,853.433 913.554,863.433 911.5,873.5C 908.402,881.701 904.735,889.701 900.5,897.5C 899.094,897.973 898.427,898.973 898.5,900.5C 888.826,913.501 876.493,923.168 861.5,929.5C 856.471,931.897 851.138,933.23 845.5,933.5C 842.5,933.5 839.5,933.5 836.5,933.5C 836.5,871.5 836.5,809.5 836.5,747.5 Z"/></g>
<g><path style="opacity:0.997" fill="#4e2614" d="M 1074.5,747.5 C 1073.22,809.501 1073.22,871.501 1074.5,933.5C 1077.5,933.5 1080.5,933.5 1083.5,933.5C 1080.38,934.479 1077.04,934.813 1073.5,934.5C 1064.47,934.626 1055.8,932.96 1047.5,929.5C 1038.99,926.494 1031.32,921.994 1024.5,916C 1019.59,910.602 1014.93,905.102 1010.5,899.5C 1004.61,889.498 1000.28,878.831 997.5,867.5C 995.247,857.639 993.913,847.639 993.5,837.5C 993.333,820.83 993.5,804.163 994,787.5C 995.649,775.358 1001.48,765.858 1011.5,759C 1031.35,749.186 1052.35,745.353 1074.5,747.5 Z"/></g>
<g><path style="opacity:0.917" fill="#cf9e7c" d="M 1154.5,836.5 C 1162.62,840.655 1165.46,847.322 1163,856.5C 1160.85,861.816 1157.02,865.149 1151.5,866.5C 1152.5,856.356 1153.5,846.356 1154.5,836.5 Z"/></g>
<g><path style="opacity:1" fill="#e2b796" d="M 993.5,837.5 C 993.913,847.639 995.247,857.639 997.5,867.5C 988.837,865.825 984.504,860.492 984.5,851.5C 984.385,848.591 985.051,845.925 986.5,843.5C 987.401,842.71 988.068,841.71 988.5,840.5C 990.332,839.752 991.999,838.752 993.5,837.5 Z"/></g>
<g><path style="opacity:1" fill="#c9b79d" d="M 203.5,837.5 C 211.25,850.747 222.084,860.747 236,867.5C 236.5,878.161 236.667,888.828 236.5,899.5C 221.496,899.333 206.496,899.5 191.5,900C 188.721,900.561 186.054,901.394 183.5,902.5C 188.865,895.107 193.198,887.107 196.5,878.5C 209.612,877.645 215.112,870.645 213,857.5C 211.256,852.921 208.09,849.921 203.5,848.5C 203.5,844.833 203.5,841.167 203.5,837.5 Z"/></g>
<g><path style="opacity:1" fill="#d19c7a" d="M 678.5,842.5 C 683.237,844.742 686.404,848.408 688,853.5C 688.993,864.335 684.16,870.668 673.5,872.5C 676.306,862.731 677.973,852.731 678.5,842.5 Z"/></g>
<g><path style="opacity:1" fill="#cf9d7c" d="M 916.5,843.5 C 919.93,844.542 922.597,846.542 924.5,849.5C 929.544,862.75 925.211,870.75 911.5,873.5C 913.554,863.433 915.221,853.433 916.5,843.5 Z"/></g>
<g><path style="opacity:1" fill="#e1b796" d="M 518.5,840.5 C 519.19,851.639 520.856,862.639 523.5,873.5C 519.158,873.764 515.325,872.098 512,868.5C 510.153,863.197 508.987,857.864 508.5,852.5C 511.844,848.46 515.177,844.46 518.5,840.5 Z"/></g>
<g><path style="opacity:0.994" fill="#c8b89e" d="M 929.5,843.5 C 948.5,843.5 967.5,843.5 986.5,843.5C 985.051,845.925 984.385,848.591 984.5,851.5C 984.504,860.492 988.837,865.825 997.5,867.5C 1000.28,878.831 1004.61,889.498 1010.5,899.5C 1001.28,913.388 990.944,926.388 979.5,938.5C 977.386,916.387 965.386,903.721 943.5,900.5C 928.971,900.161 914.638,899.161 900.5,897.5C 904.735,889.701 908.402,881.701 911.5,873.5C 925.211,870.75 929.544,862.75 924.5,849.5C 925.701,847.091 927.367,845.091 929.5,843.5 Z"/></g>
<g><path style="opacity:1" fill="#e5b998" d="M 756.5,845.5 C 756.979,855.377 758.646,865.043 761.5,874.5C 755.801,874.234 751.635,871.567 749,866.5C 745.359,857.145 747.859,850.145 756.5,845.5 Z"/></g>
<g><path style="opacity:1" fill="#d09f7e" d="M 203.5,848.5 C 208.09,849.921 211.256,852.921 213,857.5C 215.112,870.645 209.612,877.645 196.5,878.5C 199.85,868.753 202.183,858.753 203.5,848.5 Z"/></g>
<g><path style="opacity:0.913" fill="#e2b695" d="M 43.5,849.5 C 45.0126,859.895 47.3459,870.229 50.5,880.5C 43.2994,880.317 38.1327,876.983 35,870.5C 32.3672,861.119 35.2005,854.119 43.5,849.5 Z"/></g>
<g><path style="opacity:1" fill="#c8b89e" d="M 508.5,852.5 C 508.987,857.864 510.153,863.197 512,868.5C 515.325,872.098 519.158,873.764 523.5,873.5C 527.079,883.326 531.746,892.659 537.5,901.5C 535.518,901.005 533.518,900.505 531.5,900C 516.837,899.5 502.17,899.333 487.5,899.5C 487.5,888.5 487.5,877.5 487.5,866.5C 495.542,863.47 502.542,858.803 508.5,852.5 Z"/></g>
<g><path style="opacity:1" fill="#c9b89c" d="M 440.5,866.5 C 440.833,866.5 441.167,866.5 441.5,866.5C 442.477,877.419 442.81,888.419 442.5,899.5C 438.5,899.5 434.5,899.5 430.5,899.5C 434.624,888.653 437.957,877.653 440.5,866.5 Z"/></g>
<g><path style="opacity:1" fill="#df6d4b" d="M 441.5,866.5 C 442.829,871.624 443.495,877.124 443.5,883C 443.499,888.677 443.166,894.177 442.5,899.5C 442.81,888.419 442.477,877.419 441.5,866.5 Z"/></g>
<g><path style="opacity:1" fill="#cbb698" d="M 282.5,866.5 C 283.787,877.985 286.787,888.985 291.5,899.5C 287.833,899.5 284.167,899.5 280.5,899.5C 280.333,888.828 280.5,878.161 281,867.5C 281.383,866.944 281.883,866.611 282.5,866.5 Z"/></g>
<g><path style="opacity:1" fill="#de6c4a" d="M 900.5,897.5 C 914.638,899.161 928.971,900.161 943.5,900.5C 928.5,900.5 913.5,900.5 898.5,900.5C 898.427,898.973 899.094,897.973 900.5,897.5 Z"/></g>
<g><path style="opacity:0.999" fill="#e84c26" d="M 898.5,900.5 C 913.5,900.5 928.5,900.5 943.5,900.5C 965.386,903.721 977.386,916.387 979.5,938.5C 979.5,948.5 979.5,958.5 979.5,968.5C 974.895,972.602 970.395,976.936 966,981.5C 963.473,985.896 960.973,990.229 958.5,994.5C 956.5,994.5 954.5,994.5 952.5,994.5C 945.484,977.992 933.151,967.826 915.5,964C 897.503,963.5 879.503,963.333 861.5,963.5C 861.5,952.167 861.5,940.833 861.5,929.5C 876.493,923.168 888.826,913.501 898.5,900.5 Z"/></g>
<g><path style="opacity:1" fill="#e84c26" d="M 786.5,914.5 C 793.849,920.839 801.849,926.172 810.5,930.5C 810.5,941.5 810.5,952.5 810.5,963.5C 799.5,963.5 788.5,963.5 777.5,963.5C 777.333,952.495 777.5,941.495 778,930.5C 779.56,924.374 782.393,919.041 786.5,914.5 Z"/></g>
<g><path style="opacity:1" fill="#c8b89e" d="M 564.5,925.5 C 566.738,927.116 569.071,928.449 571.5,929.5C 571.5,929.833 571.5,930.167 571.5,930.5C 570.545,941.449 570.211,952.449 570.5,963.5C 569.167,963.5 567.833,963.5 566.5,963.5C 567.014,950.733 566.347,938.066 564.5,925.5 Z"/></g>
<g><path style="opacity:1" fill="#e6ba98" d="M 123.5,934.5 C 123.5,944.167 123.5,953.833 123.5,963.5C 114.833,963.5 106.167,963.5 97.5,963.5C 97.5,952.5 97.5,941.5 97.5,930.5C 97.4346,930.062 97.6012,929.728 98,929.5C 106.035,933.274 114.535,934.94 123.5,934.5 Z"/></g>
<g><path style="opacity:0.971" fill="#d2a07e" d="M 149.5,929.5 C 149.5,940.833 149.5,952.167 149.5,963.5C 140.833,963.5 132.167,963.5 123.5,963.5C 123.5,953.833 123.5,944.167 123.5,934.5C 126.059,934.802 128.393,934.468 130.5,933.5C 137.125,933.442 143.459,932.108 149.5,929.5 Z"/></g>
<g><path style="opacity:1" fill="#e18f6f" d="M 571.5,930.5 C 571.5,930.167 571.5,929.833 571.5,929.5C 572.492,929.328 573.158,929.662 573.5,930.5C 573.5,941.5 573.5,952.5 573.5,963.5C 573.167,963.5 572.833,963.5 572.5,963.5C 572.828,952.321 572.495,941.321 571.5,930.5 Z"/></g>
<g><path style="opacity:1" fill="#e6ba98" d="M 573.5,930.5 C 581.651,932.954 589.984,934.287 598.5,934.5C 598.5,944.167 598.5,953.833 598.5,963.5C 590.167,963.5 581.833,963.5 573.5,963.5C 573.5,952.5 573.5,941.5 573.5,930.5 Z"/></g>
<g><path style="opacity:1" fill="#d29e7d" d="M 624.5,929.5 C 624.5,940.833 624.5,952.167 624.5,963.5C 615.833,963.5 607.167,963.5 598.5,963.5C 598.5,953.833 598.5,944.167 598.5,934.5C 607.447,934.11 616.114,932.444 624.5,929.5 Z"/></g>
<g><path style="opacity:1" fill="#e6ba98" d="M 810.5,930.5 C 818.938,933.254 827.605,934.587 836.5,934.5C 836.5,944.167 836.5,953.833 836.5,963.5C 827.833,963.5 819.167,963.5 810.5,963.5C 810.5,952.5 810.5,941.5 810.5,930.5 Z"/></g>
<g><path style="opacity:1" fill="#d2a07e" d="M 861.5,929.5 C 861.5,940.833 861.5,952.167 861.5,963.5C 853.167,963.5 844.833,963.5 836.5,963.5C 836.5,953.833 836.5,944.167 836.5,934.5C 839.713,934.81 842.713,934.477 845.5,933.5C 851.138,933.23 856.471,931.897 861.5,929.5 Z"/></g>
<g><path style="opacity:1" fill="#e6ba98" d="M 1047.5,929.5 C 1055.8,932.96 1064.47,934.626 1073.5,934.5C 1073.5,944.167 1073.5,953.833 1073.5,963.5C 1064.83,963.5 1056.17,963.5 1047.5,963.5C 1047.5,952.167 1047.5,940.833 1047.5,929.5 Z"/></g>
<g><path style="opacity:0.992" fill="#d2a07e" d="M 1099.5,930.5 C 1099.5,941.5 1099.5,952.5 1099.5,963.5C 1090.83,963.5 1082.17,963.5 1073.5,963.5C 1073.5,953.833 1073.5,944.167 1073.5,934.5C 1077.04,934.813 1080.38,934.479 1083.5,933.5C 1088.86,932.862 1094.03,931.528 1099,929.5C 1099.4,929.728 1099.57,930.062 1099.5,930.5 Z"/></g>
<g><path style="opacity:1" fill="#e65731" d="M 571.5,930.5 C 572.495,941.321 572.828,952.321 572.5,963.5C 571.833,963.5 571.167,963.5 570.5,963.5C 570.211,952.449 570.545,941.449 571.5,930.5 Z"/></g>
<g><path style="opacity:0.985" fill="#6b7584" d="M 97.5,963.5 C 106.167,963.5 114.833,963.5 123.5,963.5C 123.5,994.167 123.5,1024.83 123.5,1055.5C 84.5,1055.5 45.5,1055.5 6.5,1055.5C 6.33339,1038.16 6.50006,1020.83 7,1003.5C 9.6772,982.154 21.5105,968.987 42.5,964C 60.8303,963.5 79.1636,963.333 97.5,963.5 Z"/></g>
<g><path style="opacity:0.991" fill="#5a6375" d="M 123.5,963.5 C 132.167,963.5 140.833,963.5 149.5,963.5C 152.167,963.5 154.833,963.5 157.5,963.5C 171.504,963.333 185.504,963.5 199.5,964C 218.737,966.402 232.071,976.569 239.5,994.5C 240.453,1014.81 240.786,1035.14 240.5,1055.5C 201.5,1055.5 162.5,1055.5 123.5,1055.5C 123.5,1024.83 123.5,994.167 123.5,963.5 Z"/></g>
<g><path style="opacity:1" fill="#f2f2f2" d="M 772.5,963.5 C 774.167,963.5 775.833,963.5 777.5,963.5C 788.5,963.5 799.5,963.5 810.5,963.5C 819.167,963.5 827.833,963.5 836.5,963.5C 836.5,994.167 836.5,1024.83 836.5,1055.5C 834.833,1055.5 833.167,1055.5 831.5,1055.5C 794.5,1055.5 757.5,1055.5 720.5,1055.5C 720.214,1035.14 720.547,1014.81 721.5,994.5C 730.958,972.252 747.958,961.918 772.5,963.5 Z"/></g>
<g><path style="opacity:0.991" fill="#db77ac" d="M 1047.5,963.5 C 1056.17,963.5 1064.83,963.5 1073.5,963.5C 1073.5,994.167 1073.5,1024.83 1073.5,1055.5C 1034.83,1055.5 996.167,1055.5 957.5,1055.5C 957.214,1035.14 957.547,1014.81 958.5,994.5C 960.973,990.229 963.473,985.896 966,981.5C 970.395,976.936 974.895,972.602 979.5,968.5C 984.045,966.707 988.712,965.207 993.5,964C 1011.5,963.5 1029.5,963.333 1047.5,963.5 Z"/></g>
<g><path style="opacity:0.986" fill="#c13e8b" d="M 1073.5,963.5 C 1082.17,963.5 1090.83,963.5 1099.5,963.5C 1118.17,963.333 1136.84,963.5 1155.5,964C 1173.49,967.991 1184.99,978.824 1190,996.5C 1191.41,1016.13 1191.91,1035.8 1191.5,1055.5C 1152.17,1055.5 1112.83,1055.5 1073.5,1055.5C 1073.5,1024.83 1073.5,994.167 1073.5,963.5 Z"/></g>
<g><path style="opacity:0.99" fill="#04b6e2" d="M 332.5,963.5 C 332.687,965.564 333.187,967.564 334,969.5C 335.733,971.723 337.233,974.056 338.5,976.5C 335.732,985.367 337.732,992.867 344.5,999C 342.016,1003.36 341.85,1007.86 344,1012.5C 346.756,1015.45 349.589,1018.28 352.5,1021C 348.507,1027.24 348.674,1033.41 353,1039.5C 355.706,1041.87 358.039,1044.54 360,1047.5C 361.313,1051.21 360.146,1053.54 356.5,1054.5C 355.292,1055.23 353.959,1055.57 352.5,1055.5C 316.5,1055.5 280.5,1055.5 244.5,1055.5C 244.227,1035.14 244.56,1014.81 245.5,994.5C 248.473,988.562 251.973,982.896 256,977.5C 263.132,970.516 271.632,966.016 281.5,964C 298.497,963.5 315.497,963.333 332.5,963.5 Z"/></g>
<g><path style="opacity:1" fill="#039ab8" d="M 389.5,963.5 C 406.503,963.333 423.503,963.5 440.5,964C 458.169,967.504 470.169,977.671 476.5,994.5C 477.476,1014.45 477.81,1034.45 477.5,1054.5C 440.996,1054.83 404.663,1054.5 368.5,1053.5C 377.02,1048.12 380.186,1040.45 378,1030.5C 377.062,1027.74 375.562,1025.41 373.5,1023.5C 378.373,1019.96 379.706,1015.29 377.5,1009.5C 383.83,1003.65 384.164,997.312 378.5,990.5C 384.292,984.328 385.959,977.162 383.5,969C 385.349,966.983 387.349,965.15 389.5,963.5 Z"/></g>
<g><path style="opacity:1" fill="#394354" d="M 566.5,963.5 C 567.833,963.5 569.167,963.5 570.5,963.5C 571.167,963.5 571.833,963.5 572.5,963.5C 572.833,963.5 573.167,963.5 573.5,963.5C 581.833,963.5 590.167,963.5 598.5,963.5C 598.5,993.833 598.5,1024.17 598.5,1054.5C 637.5,1054.5 676.5,1054.5 715.5,1054.5C 638.002,1055.5 560.335,1055.83 482.5,1055.5C 482.214,1035.14 482.547,1014.81 483.5,994.5C 490.011,978.048 502.011,967.882 519.5,964C 535.163,963.5 550.83,963.333 566.5,963.5 Z"/></g>
<g><path style="opacity:1" fill="#2a3444" d="M 598.5,963.5 C 607.167,963.5 615.833,963.5 624.5,963.5C 643.87,963.092 663.203,963.592 682.5,965C 698.244,969.246 708.577,979.079 713.5,994.5C 713.709,995.922 714.209,997.255 715,998.5C 715.5,1017.16 715.667,1035.83 715.5,1054.5C 676.5,1054.5 637.5,1054.5 598.5,1054.5C 598.5,1024.17 598.5,993.833 598.5,963.5 Z"/></g>
<g><path style="opacity:0.992" fill="#c1c0c0" d="M 836.5,963.5 C 844.833,963.5 853.167,963.5 861.5,963.5C 879.503,963.333 897.503,963.5 915.5,964C 933.151,967.826 945.484,977.992 952.5,994.5C 953.44,1014.81 953.773,1035.14 953.5,1055.5C 914.5,1055.5 875.5,1055.5 836.5,1055.5C 836.5,1024.83 836.5,994.167 836.5,963.5 Z"/></g>
<g><path style="opacity:0.985" fill="#c8b99f" d="M 476.5,994.5 C 478.833,994.5 481.167,994.5 483.5,994.5C 482.547,1014.81 482.214,1035.14 482.5,1055.5C 560.335,1055.83 638.002,1055.5 715.5,1054.5C 715.667,1035.83 715.5,1017.16 715,998.5C 714.209,997.255 713.709,995.922 713.5,994.5C 716.167,994.5 718.833,994.5 721.5,994.5C 720.547,1014.81 720.214,1035.14 720.5,1055.5C 757.5,1055.5 794.5,1055.5 831.5,1055.5C 739.91,1103.12 642.576,1121.95 539.5,1112C 473.344,1105.33 411.01,1086.5 352.5,1055.5C 353.959,1055.57 355.292,1055.23 356.5,1054.5C 359.649,1057 362.982,1057 366.5,1054.5C 403.5,1055.83 440.5,1055.83 477.5,1054.5C 477.81,1034.45 477.476,1014.45 476.5,994.5 Z"/></g>
<g><path style="opacity:1" fill="#65aaaa" d="M 368.5,1053.5 C 404.663,1054.5 440.996,1054.83 477.5,1054.5C 440.5,1055.83 403.5,1055.83 366.5,1054.5C 367.167,1054.17 367.833,1053.83 368.5,1053.5 Z"/></g>
</svg>
