<?xml version="1.0" standalone="no"?>
<!DOCTYPE svg PUBLIC "-//W3C//DTD SVG 20010904//EN"
 "http://www.w3.org/TR/2001/REC-SVG-20010904/DTD/svg10.dtd">
<svg version="1.0" xmlns="http://www.w3.org/2000/svg"
 width="860.000000pt" height="1085.000000pt" viewBox="0 0 860.000000 1085.000000"
 preserveAspectRatio="xMidYMid meet">

<g transform="translate(0.000000,1085.000000) scale(0.100000,-0.100000)"
fill="#000000" stroke="none">
<path d="M2767 10423 l-39 -4 119 -78 c65 -44 145 -107 179 -142 78 -81 174
-222 251 -369 83 -158 268 -649 251 -666 -3 -2 -63 10 -134 27 -115 28 -145
32 -284 32 -137 1 -169 -2 -275 -28 -225 -54 -452 -168 -670 -339 -126 -98
-232 -192 -225 -199 3 -3 48 -1 100 5 52 5 172 7 265 5 196 -6 279 -23 407
-88 78 -39 302 -182 313 -199 3 -4 -30 2 -72 15 -117 35 -269 50 -383 38 l-95
-10 140 -2 c206 -2 338 -26 424 -75 35 -20 35 -20 10 -27 -13 -4 -47 -7 -75
-8 -76 -2 -243 -62 -363 -132 -103 -61 -313 -211 -319 -230 -2 -5 34 -9 84 -9
129 0 427 -46 599 -92 133 -35 385 -132 385 -147 0 -3 -48 -36 -106 -73 -59
-37 -143 -97 -189 -135 l-83 -68 237 -6 c230 -6 374 -22 506 -55 68 -17 105
-51 97 -89 -5 -31 -13 -36 -87 -65 -99 -39 -232 -108 -326 -170 l-88 -58 -53
14 c-104 27 -266 13 -400 -37 -140 -52 -215 -100 -320 -206 -81 -84 -102 -112
-141 -193 -76 -157 -99 -285 -78 -429 7 -45 19 -100 26 -122 14 -39 13 -43
-16 -101 -56 -112 -73 -181 -73 -308 0 -75 5 -129 14 -155 11 -31 14 -101 15
-300 l0 -260 44 -75 c120 -205 252 -361 352 -414 30 -16 70 -43 89 -60 19 -17
46 -38 60 -47 31 -20 27 -27 -87 -115 -46 -37 -83 -68 -81 -69 2 -2 36 6 77
17 42 11 77 16 82 11 5 -5 5 -53 -1 -113 -10 -102 -4 -246 10 -255 4 -2 14 19
23 48 17 55 69 127 92 127 18 0 25 -23 25 -83 0 -44 -17 -177 -23 -184 -1 -1
-48 4 -104 12 -96 12 -106 16 -193 69 -121 75 -129 78 -241 77 -73 -1 -106 3
-140 17 -88 38 -266 75 -324 68 -57 -6 -636 -242 -687 -279 -52 -39 -188 -273
-214 -370 -19 -73 -18 -111 12 -238 23 -97 24 -114 13 -136 -20 -38 -71 -68
-191 -114 -60 -23 -107 -43 -105 -45 1 -2 63 -20 137 -40 74 -20 141 -41 149
-47 10 -8 12 -27 8 -72 -3 -33 -3 -77 1 -98 l7 -38 39 52 c27 37 41 48 46 38
23 -36 -86 -170 -262 -322 -65 -55 -118 -102 -118 -104 0 -1 37 11 83 29 93
35 280 102 315 112 l22 7 -20 -51 c-32 -82 -27 -161 21 -320 22 -74 42 -136
43 -138 2 -1 20 51 40 115 20 65 48 143 63 173 l27 55 11 -98 c11 -84 19 -113
59 -193 26 -52 51 -94 55 -94 5 0 10 53 13 117 2 65 9 127 15 137 10 19 11 19
21 0 5 -10 19 -68 31 -129 24 -120 74 -243 143 -359 l43 -71 5 160 5 160 30
-55 30 -55 3 58 3 58 47 -52 c26 -28 64 -84 85 -123 l38 -71 -6 110 c-4 61
-15 148 -26 195 -11 47 -19 98 -17 115 3 30 4 29 61 -42 32 -39 69 -78 82 -87
36 -24 228 -75 345 -91 76 -11 113 -21 135 -38 27 -20 40 -22 135 -20 58 1
119 5 136 8 l30 5 -4 -85 c-5 -96 4 -181 54 -510 59 -386 76 -433 210 -578 38
-41 49 -48 70 -43 53 14 88 56 230 280 168 265 195 299 284 373 56 47 68 52
96 47 24 -4 37 -1 52 14 17 17 34 19 128 20 98 0 119 3 211 35 l102 35 43 -31
c24 -16 65 -51 91 -76 53 -51 75 -106 123 -309 28 -118 40 -145 98 -220 49
-62 106 -105 163 -122 36 -11 49 -11 86 4 24 9 54 27 65 39 41 43 94 194 152
427 17 69 49 191 72 272 37 133 43 148 63 148 12 0 55 14 95 30 40 17 76 28
79 25 5 -6 -15 -217 -25 -268 -4 -15 -2 -27 2 -26 5 0 67 66 139 146 l130 146
6 -34 c4 -18 10 -69 14 -113 l7 -80 22 37 c11 20 25 37 30 37 15 0 -3 -157
-24 -213 -11 -28 -18 -53 -15 -55 2 -3 36 29 74 69 l70 74 0 -75 c0 -41 -6
-111 -13 -155 -12 -72 -13 -96 -2 -84 2 2 42 56 89 119 48 63 120 151 160 194
l75 79 37 -57 c21 -31 40 -55 42 -53 2 2 11 28 21 57 l19 54 12 -34 c7 -19 15
-88 18 -153 3 -65 9 -114 13 -110 20 22 82 281 100 417 6 44 12 81 14 83 2 2
34 -30 72 -71 37 -42 69 -74 72 -72 2 3 -26 68 -63 146 -37 78 -64 145 -60
148 4 4 68 9 143 12 l137 5 -109 64 c-163 95 -259 158 -249 164 4 2 24 8 43
12 111 22 412 111 450 133 85 49 255 190 357 295 l102 106 22 -30 c18 -26 23
-50 28 -136 l6 -106 58 82 c33 44 63 78 68 75 5 -3 9 -41 9 -85 0 -43 4 -79 8
-79 12 0 96 163 123 238 25 71 40 83 69 57 20 -18 20 -17 20 20 l0 38 26 -24
26 -24 -22 55 c-91 228 -111 295 -93 313 3 4 15 0 25 -10 26 -23 30 -13 18 43
-7 32 -8 50 -1 52 6 2 8 23 4 51 -7 59 7 86 48 95 l32 6 -25 33 c-30 39 -93
84 -130 92 -33 8 -73 65 -89 128 -18 74 -6 148 35 215 19 31 33 58 32 59 -2 2
-56 -13 -121 -33 -136 -42 -136 -42 -205 41 -25 29 -61 62 -80 73 -58 34 -171
73 -238 82 -43 5 -74 16 -97 34 -53 41 -136 76 -178 76 -21 0 -93 -14 -160
-32 -114 -29 -132 -31 -272 -29 -155 2 -291 -16 -394 -53 -24 -9 -49 -16 -56
-16 -7 0 -22 37 -35 86 -13 47 -32 96 -42 110 l-19 24 38 1 c21 0 57 4 81 7
l43 7 -65 43 c-78 51 -93 72 -67 96 16 15 21 13 74 -25 31 -22 57 -37 57 -34
0 3 -15 36 -34 73 -33 66 -49 122 -61 212 -10 71 -14 78 -46 85 l-30 7 35 43
c106 129 254 402 284 525 8 32 26 60 61 97 28 29 62 76 77 105 36 71 119 371
133 483 8 63 20 107 41 145 120 230 80 606 -92 865 -79 118 -135 165 -283 238
-66 33 -93 40 -159 45 -56 4 -98 13 -141 32 -68 31 -161 55 -250 66 -54 6 -73
16 -180 89 -66 45 -142 92 -170 105 -81 37 -199 80 -217 80 -18 0 -38 28 -38
53 0 16 158 77 265 102 39 9 173 25 299 36 126 10 231 21 233 22 4 5 -187 118
-264 156 -35 17 -63 33 -63 36 0 2 20 18 44 35 67 46 232 101 531 179 149 39
279 75 289 79 16 7 2 16 -70 46 -101 42 -300 105 -419 132 -44 9 -83 20 -87
23 -4 3 61 43 145 88 112 60 220 107 412 178 143 54 262 99 264 100 1 2 -48
20 -110 39 -157 49 -548 132 -764 162 -99 13 -193 27 -210 31 -30 6 -30 6 -6
15 32 11 221 38 290 40 54 1 55 2 11 6 -62 5 -250 -15 -301 -33 -23 -8 -45
-15 -49 -15 -4 0 -13 30 -20 67 -14 74 -65 194 -107 251 -117 161 -270 247
-473 267 l-65 6 -1 167 c-2 153 -4 177 -33 287 -36 138 -71 248 -77 242 -2 -2
3 -24 11 -48 57 -160 106 -481 90 -585 l-8 -49 -52 111 c-136 288 -269 506
-380 623 -149 157 -367 249 -690 292 -146 19 -634 34 -728 22z m1692 -2103 c1
-92 0 -97 -32 -145 -29 -43 -57 -105 -57 -124 0 -3 16 12 35 34 45 53 45 31 0
-87 -20 -50 -34 -93 -31 -95 2 -2 39 35 83 82 72 76 84 85 116 85 46 0 100
-49 116 -105 12 -44 15 -186 5 -258 l-6 -45 -59 -11 c-33 -5 -67 -15 -76 -21
-16 -10 -16 -10 2 -6 11 3 47 10 79 15 33 6 62 13 64 16 3 3 8 68 10 144 5
157 -2 188 -55 257 -33 44 -34 47 -17 65 12 14 31 19 64 19 30 0 52 6 60 15 7
8 16 13 20 10 14 -8 21 27 9 42 -7 7 -9 16 -6 20 4 3 2 12 -4 19 -8 10 -3 22
18 49 15 19 30 35 34 35 11 0 49 -137 49 -177 0 -30 -10 -56 -40 -102 -22 -34
-40 -64 -40 -67 0 -4 16 -3 35 0 34 7 35 6 37 -26 5 -103 -21 -367 -48 -483
-35 -147 -73 -196 -271 -347 -153 -117 -222 -132 -346 -75 -77 35 -353 241
-388 290 -43 59 -196 529 -205 628 -6 70 -4 81 20 130 26 52 192 305 206 314
3 2 5 -15 4 -38 -1 -23 -2 -60 -3 -83 -1 -39 -3 -42 -58 -70 -52 -27 -58 -33
-64 -69 -4 -24 -3 -44 3 -50 8 -7 9 -6 4 3 -4 6 -3 12 3 12 5 0 13 -9 16 -20
8 -26 26 -25 59 1 29 23 27 26 45 -68 9 -48 9 -73 0 -105 -14 -55 -5 -133 29
-244 l28 -89 62 -1 62 -1 -59 4 -58 4 -22 74 c-27 89 -42 190 -35 225 12 54
15 55 33 15 l18 -40 6 30 c3 17 8 47 12 68 6 35 8 37 42 37 24 0 45 -8 61 -22
25 -23 25 -23 13 -1 -11 23 -74 49 -91 38 -5 -3 -10 -4 -10 -1 0 8 47 109 58
125 15 21 48 -3 83 -62 l31 -52 -5 43 c-3 23 -17 65 -31 92 -22 42 -25 54 -15
73 27 51 196 212 337 320 7 6 1 -16 -13 -49 -78 -175 -161 -401 -151 -411 2
-2 20 45 41 104 21 60 67 169 103 243 l66 135 7 -85 c4 -47 7 -128 8 -180z
m697 -247 c15 -15 16 -34 11 -163 -10 -238 -36 -293 -168 -359 -93 -47 -119
-51 -119 -19 0 27 27 58 50 58 10 0 25 11 34 25 11 17 26 25 45 25 15 0 35 8
45 19 20 21 24 97 7 129 -12 23 0 75 13 54 4 -7 12 -12 18 -12 7 0 7 4 -1 14
-19 23 10 39 37 20 21 -14 22 -14 23 8 3 65 -11 108 -36 108 -38 0 -145 -130
-145 -176 0 -25 13 -38 55 -51 19 -6 31 -17 33 -31 3 -20 0 -21 -46 -15 -49 5
-49 5 -55 -26 -5 -23 -12 -31 -28 -31 -17 0 -20 5 -16 23 3 12 15 69 27 127
33 156 47 189 101 243 53 51 85 59 115 30z m-1617 -109 c17 -14 42 -45 55 -68
29 -50 103 -263 95 -271 -11 -10 -37 6 -42 26 -5 20 -32 26 -42 9 -3 -5 3 -10
14 -10 12 0 21 -7 21 -15 0 -19 -59 -9 -79 14 -9 11 -9 8 2 -9 8 -15 25 -26
41 -28 18 -2 30 -12 36 -28 6 -16 17 -24 33 -24 32 0 52 -19 66 -59 15 -46 14
-51 -9 -51 -26 0 -128 51 -167 84 -62 52 -142 258 -143 366 0 87 56 117 119
64z m155 -362 c4 -2 2 -8 -5 -13 -13 -8 -39 6 -39 22 0 8 22 3 44 -9z m1134
-359 c11 -27 29 -83 40 -126 23 -89 32 -105 32 -58 0 30 1 31 23 20 12 -6 47
-32 77 -58 98 -82 96 -82 66 -22 -15 29 -49 76 -74 104 -26 28 -39 48 -29 44
10 -4 43 -14 75 -23 115 -33 343 -166 416 -243 36 -38 49 -39 36 -5 -6 14 -10
29 -10 33 0 10 113 3 179 -11 l53 -12 -47 -13 c-66 -20 -50 -26 30 -12 109 19
208 7 298 -34 105 -49 129 -68 183 -144 108 -150 168 -364 169 -593 0 -133 -1
-136 -34 -208 -19 -40 -35 -71 -36 -70 -2 2 6 46 17 98 51 245 -13 502 -159
640 l-47 45 47 -57 c89 -106 123 -226 121 -418 -2 -156 -48 -328 -99 -370 -15
-13 -20 -11 -38 15 -12 17 -52 59 -89 95 l-68 65 -7 185 c-6 186 -22 284 -23
140 0 -41 -5 -93 -11 -115 -13 -52 -41 -105 -54 -105 -6 0 -40 20 -75 45 -35
25 -65 43 -67 41 -2 -1 12 -28 30 -58 18 -31 49 -93 67 -139 31 -75 35 -94 34
-174 -1 -179 -98 -387 -251 -537 -72 -71 -180 -123 -298 -144 l-84 -15 -91 52
c-59 34 -106 53 -136 57 l-46 5 6 47 c13 96 38 169 107 310 145 298 316 497
514 598 81 42 81 43 4 56 -51 9 -109 76 -143 166 -21 56 -78 135 -108 151 -19
10 -17 6 10 -25 17 -20 32 -45 32 -55 0 -17 -10 -15 -102 19 -132 48 -139 51
-103 45 22 -4 26 -3 14 5 -9 5 -40 7 -70 3 l-54 -6 71 -18 c96 -23 191 -68
235 -110 39 -37 52 -77 65 -203 l7 -66 -115 -118 c-64 -64 -131 -142 -151
-173 -19 -31 -40 -60 -45 -63 -6 -3 -16 10 -22 29 -6 19 -21 42 -33 50 -30 21
-90 19 -118 -4 -22 -18 -25 -18 -42 -4 -44 41 -239 15 -406 -52 -89 -36 -93
-37 -111 -20 -14 13 -34 18 -70 16 -46 -1 -50 1 -56 26 -7 26 1 396 11 503 4
44 3 49 -4 25 -6 -16 -15 -81 -20 -144 -6 -63 -13 -116 -16 -119 -2 -3 -9 7
-14 22 -6 14 -17 26 -25 26 -12 0 -12 -5 2 -32 12 -25 17 -68 20 -169 l3 -135
-83 -32 c-64 -24 -98 -31 -148 -30 -36 1 -75 -4 -87 -11 -16 -8 -29 -9 -42 -1
-35 18 -66 11 -107 -24 -22 -19 -56 -37 -76 -41 -31 -6 -36 -4 -41 16 -4 14 1
31 14 47 39 50 15 117 -49 137 -14 4 -30 22 -39 43 -28 69 -216 262 -254 262
-5 0 -18 19 -30 43 -12 23 -39 68 -61 99 -31 47 -37 62 -28 77 10 20 102 80
161 106 19 8 27 14 19 15 -14 0 -118 -49 -180 -85 -32 -19 -66 -19 -73 0 -7
17 -70 45 -101 45 -15 0 -10 -5 19 -20 56 -28 118 -137 140 -247 6 -31 5 -33
-23 -33 -29 0 -62 -22 -62 -41 0 -5 -14 -9 -30 -9 -33 0 -80 -38 -80 -63 0 -8
11 -31 25 -51 14 -20 25 -38 25 -40 0 -2 -13 -6 -30 -9 -35 -8 -64 -48 -55
-77 10 -30 52 -68 115 -100 59 -30 139 -105 126 -117 -4 -4 -20 6 -34 23 -34
39 -86 70 -133 79 -31 6 -39 3 -53 -16 -30 -44 -22 -68 57 -167 l47 -61 -82
-40 c-46 -22 -98 -49 -116 -62 l-33 -22 -54 56 c-97 100 -100 111 -99 337 1
210 23 372 64 482 26 69 152 198 194 198 32 0 33 10 0 33 l-25 19 -62 -68
c-34 -37 -67 -76 -73 -87 -7 -12 -31 -26 -55 -32 -24 -7 -52 -15 -61 -20 -16
-6 -18 -1 -18 51 1 102 39 226 90 294 43 57 45 69 3 21 -57 -67 -104 -195
-120 -328 -6 -53 -9 -58 -94 -144 l-87 -88 -15 37 c-89 223 -5 522 199 705
146 132 446 216 623 175 54 -12 60 -18 36 -38 -8 -7 -15 -17 -15 -22 0 -6 16
4 35 21 89 78 294 197 433 251 79 31 77 33 63 -51 -14 -83 -22 -153 -16 -147
3 3 12 45 21 94 25 150 35 194 44 194 8 0 244 -180 352 -269 51 -42 109 -57
175 -45 56 10 81 25 158 97 88 81 258 226 266 226 4 1 16 -20 27 -46z m-2395
-688 c-3 -9 -8 -14 -10 -11 -3 3 -2 9 2 15 9 16 15 13 8 -4z m-27 -71 c-40
-103 -38 -258 5 -379 21 -59 21 -63 4 -88 -23 -35 -31 -34 -44 6 -32 97 -36
261 -10 362 16 59 50 147 55 142 3 -3 -2 -22 -10 -43z m339 -241 c-50 -117
-78 -336 -72 -553 4 -173 14 -218 59 -267 11 -12 17 -26 14 -31 -3 -5 1 -16
10 -23 8 -7 22 -26 31 -42 14 -28 13 -31 -14 -71 -52 -73 -48 -72 23 3 38 41
92 89 119 106 68 42 186 92 276 116 77 20 528 89 584 89 56 0 157 -87 213
-182 29 -51 62 -162 62 -208 0 -63 -81 -186 -226 -345 -283 -310 -322 -341
-473 -369 -46 -9 -86 -16 -89 -16 -3 0 10 16 29 36 l34 37 -33 -19 c-19 -10
-93 -63 -165 -118 l-132 -98 -62 6 c-95 8 -125 29 -205 141 -38 53 -78 94 -78
80 0 -4 15 -26 33 -49 52 -64 53 -69 8 -46 -86 43 -242 233 -340 411 l-41 76
0 140 c0 77 3 168 7 203 l6 62 23 -38 c39 -64 30 -10 -18 107 -41 101 -42 108
-42 214 0 167 45 289 166 448 59 78 83 95 55 40 -33 -63 -63 -265 -48 -323 7
-29 9 -21 10 47 2 144 57 329 114 382 33 30 115 70 146 71 18 0 22 -4 16 -17z
m553 -170 c40 -11 68 -29 116 -74 35 -32 75 -76 91 -98 25 -37 28 -49 29 -133
0 -54 -3 -94 -9 -96 -5 -2 -19 19 -30 47 -11 29 -50 89 -87 135 -66 81 -70 84
-180 134 -116 52 -137 73 -102 99 21 15 87 10 172 -14z m-94 -88 c141 -65 166
-89 225 -210 32 -65 78 -214 68 -221 -1 -1 -17 -4 -35 -7 -26 -5 -34 -3 -39
11 -41 122 -143 242 -255 298 -37 19 -74 34 -82 34 -22 0 -86 77 -86 105 0 27
23 44 59 45 13 0 79 -25 145 -55z m-53 -136 c96 -48 228 -227 229 -310 0 -4
-23 -9 -50 -13 -28 -4 -56 -9 -64 -12 -9 -4 -15 7 -20 35 -8 52 -104 151 -179
185 -64 29 -107 69 -107 100 0 62 85 68 191 15z m2880 -111 c15 -22 38 -69 49
-104 18 -54 21 -77 15 -137 -13 -135 -53 -275 -111 -390 l-17 -32 28 25 c28
25 28 25 -4 -22 -18 -27 -30 -48 -27 -48 11 0 65 83 60 91 -3 5 6 24 19 41 20
27 59 107 90 188 4 8 4 -19 0 -60 -7 -83 -30 -162 -67 -224 -24 -40 -191 -209
-271 -274 l-40 -33 52 26 c29 14 54 25 57 25 2 0 -7 -35 -19 -77 -72 -240
-106 -303 -250 -459 -111 -121 -188 -179 -248 -188 -54 -8 -156 26 -322 109
-77 38 -99 46 -75 27 19 -15 53 -44 75 -64 l40 -37 -61 -1 c-127 0 -349 62
-509 143 -184 94 -454 321 -455 383 0 53 32 114 82 154 50 39 50 39 86 24 l37
-15 -33 34 c-27 28 -30 36 -20 49 17 21 233 144 287 163 23 8 52 21 64 30 13
9 44 15 82 15 33 0 98 10 145 21 115 29 201 29 262 0 26 -13 83 -56 128 -97
81 -75 109 -87 139 -60 9 8 71 42 137 75 139 70 201 120 287 236 101 136 145
241 182 440 10 50 19 93 22 97 7 13 75 -35 104 -74z m-966 47 c56 -55 10 -134
-51 -86 -15 11 -33 21 -40 21 -7 0 -20 10 -28 22 -15 20 -14 24 6 45 30 32 81
31 113 -2z m-187 -10 c28 -23 49 -65 33 -65 -4 0 -16 -7 -27 -15 -17 -13 -16
-14 15 -4 27 10 40 9 67 -4 29 -14 34 -22 34 -50 0 -23 8 -41 25 -57 31 -29
31 -37 0 -92 -14 -25 -34 -71 -45 -103 -25 -73 -40 -90 -115 -128 -99 -50
-185 -67 -264 -51 -30 6 -31 8 -31 60 0 103 -55 291 -109 372 -29 44 -32 55
-20 63 29 18 186 71 249 84 106 21 154 19 188 -10z m-1238 -5 c23 -23 26 -58
6 -85 -12 -17 -14 -15 -28 26 -9 24 -19 52 -23 62 -10 24 19 23 45 -3z m-588
-98 c51 -24 121 -97 136 -142 10 -28 9 -29 -38 -44 -27 -9 -53 -16 -58 -16 -5
0 -34 32 -65 71 -42 53 -57 80 -57 103 0 30 17 60 30 53 3 -2 26 -13 52 -25z
m305 -1534 c-23 -29 -53 -70 -65 -90 -13 -21 -26 -38 -28 -38 -11 0 61 107 99
148 45 48 43 39 -6 -20z m-80 -158 c-10 -25 -13 -27 -18 -13 -4 11 -1 23 9 31
22 17 22 16 9 -18z m-1154 -110 c82 -21 220 -70 214 -77 -2 -2 -29 6 -60 16
-98 34 -267 64 -323 57 -54 -6 -596 -223 -646 -258 -39 -27 -107 -126 -164
-238 l-49 -95 0 -130 c1 -128 0 -129 -13 -75 -7 30 -11 88 -9 127 3 63 11 87
55 178 60 123 121 216 159 243 28 19 590 256 628 265 48 11 133 6 208 -13z
m425 -80 c23 -10 42 -22 42 -25 0 -3 -15 2 -32 12 -18 9 -64 20 -103 23 l-70
7 60 1 c40 1 74 -5 103 -18z m839 -2 c-3 -8 -6 -5 -6 6 -1 11 2 17 5 13 3 -3
4 -12 1 -19z m-747 -54 c0 -2 -9 0 -20 6 -11 6 -20 13 -20 16 0 2 9 0 20 -6
11 -6 20 -13 20 -16z m265 -84 l60 -9 -79 4 c-43 2 -84 9 -90 15 -7 7 -2 9 19
5 17 -3 57 -10 90 -15z m-708 -11 c170 -14 234 -36 543 -184 218 -104 460
-241 460 -260 0 -8 -7 -4 -110 64 -140 91 -557 289 -695 330 -59 17 -159 32
-375 54 -90 10 58 6 177 -4z m-394 -86 c-7 -2 -21 -2 -30 0 -10 3 -4 5 12 5
17 0 24 -2 18 -5z m-89 -22 c-22 -10 -57 -38 -78 -62 -20 -24 -33 -35 -27 -23
17 35 99 104 123 104 18 0 13 -5 -18 -19z m3388 -183 c-123 -113 -144 -129
-53 -41 53 51 99 93 103 93 4 0 -19 -23 -50 -52z m2156 43 c18 -6 91 -49 162
-96 112 -75 134 -94 164 -143 80 -132 95 -216 55 -309 l-21 -48 -60 65 -59 65
27 -55 c41 -82 42 -132 2 -205 -22 -40 -48 -69 -78 -90 -44 -29 -48 -30 -168
-30 -67 0 -122 -1 -122 -2 0 -2 32 -19 71 -38 l71 -36 -24 -29 c-164 -200
-326 -357 -433 -419 -55 -32 -794 -245 -769 -222 16 15 275 133 343 156 36 12
72 20 79 17 15 -5 361 115 377 131 14 13 -15 4 -193 -59 -84 -30 -157 -52
-163 -49 -5 3 -120 -30 -256 -75 -258 -85 -339 -103 -348 -79 -2 8 -6 38 -7
68 l-3 54 125 51 c283 118 634 288 710 346 75 57 128 88 185 109 17 6 44 23
60 37 l30 26 -37 -22 c-50 -29 -48 -20 2 15 22 15 38 30 36 32 -2 3 -31 -13
-63 -35 -98 -66 -301 -176 -448 -242 -349 -156 -598 -260 -624 -260 -18 0 -55
19 -102 53 l-74 53 0 94 0 95 28 2 c48 3 507 235 726 366 90 54 222 178 254
238 18 34 18 34 -14 -6 -71 -87 -169 -173 -260 -227 -173 -102 -617 -328 -604
-308 9 15 -1 12 -46 -10 -87 -45 -85 -45 -118 17 -17 31 -28 60 -25 65 3 4 10
43 15 86 5 42 12 96 16 119 l8 43 26 -23 c18 -14 38 -54 59 -117 32 -91 50
-128 50 -102 0 23 113 277 141 317 89 127 354 375 400 375 11 0 78 -29 149
-65 71 -36 133 -65 137 -65 5 0 18 33 31 73 33 107 32 106 90 61 27 -21 62
-58 77 -82 15 -23 32 -39 37 -36 6 4 46 80 88 169 68 140 83 164 112 178 37
18 125 22 176 8z m-5881 -283 c-2 -35 -3 -9 -3 57 0 66 1 94 3 63 2 -32 2 -86
0 -120z m1913 21 c17 -5 19 -8 7 -8 -18 -1 -177 75 -177 84 0 3 33 -11 73 -31
39 -20 83 -40 97 -45z m1650 78 c0 -2 -19 -21 -42 -42 l-43 -40 40 43 c36 39
45 47 45 39z m380 -60 c0 -2 -24 -20 -53 -40 -30 -21 -64 -48 -77 -62 -13 -14
-31 -25 -39 -25 -18 0 23 36 108 93 55 37 61 40 61 34z m-1272 -131 c23 -10
42 -23 42 -28 0 -13 -96 38 -167 89 -35 24 -63 46 -63 48 0 3 33 -17 73 -43
40 -26 91 -56 115 -66z m-668 94 c20 -6 21 -8 5 -8 -11 0 -31 4 -45 8 -20 6
-21 8 -5 8 11 0 31 -4 45 -8z m149 -26 c8 -7 -63 -2 -94 7 -20 5 -9 6 30 2 33
-3 62 -7 64 -9z m54 -11 c-7 -2 -19 -2 -25 0 -7 3 -2 5 12 5 14 0 19 -2 13 -5z
m-2476 -85 c-3 -8 -6 -5 -6 6 -1 11 2 17 5 13 3 -3 4 -12 1 -19z m4023 2 c-14
-5 -47 -11 -75 -15 -45 -6 -55 -13 -111 -73 -33 -37 -76 -83 -93 -102 -18 -19
2 11 44 68 43 56 82 105 89 109 15 10 82 20 131 21 35 0 37 -1 15 -8z m-3743
-37 c-3 -10 -5 -4 -5 12 0 17 2 24 5 18 2 -7 2 -21 0 -30z m-286 -97 c-15 -18
-104 -76 -116 -76 -5 0 13 14 41 31 27 18 55 40 63 51 7 11 15 17 18 14 3 -3
0 -12 -6 -20z m3734 -26 c-3 -5 -21 -10 -39 -10 -79 0 -95 -9 -154 -88 -61
-83 -101 -159 -103 -194 -1 -19 -2 -20 -6 -4 -8 29 26 104 88 197 50 75 63 88
96 97 51 13 126 15 118 2z m-3875 -60 c-8 -5 -19 -10 -25 -10 -5 0 -3 5 5 10
8 5 20 10 25 10 6 0 3 -5 -5 -10z m-58 -26 c-12 -8 -28 -13 -35 -11 -7 3 -1 9
13 15 37 16 47 14 22 -4z m373 -176 c8 -44 21 -85 50 -151 15 -36 15 -38 -1
-29 -20 11 -124 132 -124 145 0 11 53 77 62 77 3 0 9 -19 13 -42z m4284 -114
c-13 -16 -181 -135 -209 -148 -8 -4 -4 1 9 11 14 10 66 48 115 85 95 71 107
78 85 52z m-1104 -24 c20 -8 -86 -63 -432 -226 -125 -58 -322 -176 -354 -211
-14 -15 -40 -54 -58 -85 -22 -39 -36 -55 -46 -51 -20 7 -20 6 18 76 61 117 88
135 527 363 151 79 286 143 300 143 14 0 34 -4 45 -9z m-3248 -292 c-3 -8 -6
-5 -6 6 -1 11 2 17 5 13 3 -3 4 -12 1 -19z m-10 -70 c-2 -13 -4 -5 -4 17 -1
22 1 32 4 23 2 -10 2 -28 0 -40z m10 -70 c-3 -7 -5 -2 -5 12 0 14 2 19 5 13 2
-7 2 -19 0 -25z m2361 -172 c50 -32 100 -86 102 -111 6 -57 0 -57 -47 -4 -27
30 -65 69 -85 88 -34 31 -41 51 -17 51 5 0 26 -11 47 -24z m-61 -32 c2 -6 -30
-16 -79 -23 -72 -11 -141 -34 -416 -139 -10 -3 -10 1 -1 22 7 14 16 26 22 26
5 0 68 23 141 52 170 68 322 96 333 62z m212 -494 c-23 -38 -47 -70 -55 -70
-13 0 -12 5 3 31 18 31 81 109 88 109 2 0 -14 -31 -36 -70z m290 -40 c1 -17
-26 14 -54 64 -16 27 -13 26 18 -9 20 -22 36 -47 36 -55z"/>
<path d="M4440 7779 c-29 -47 -13 -119 26 -119 36 0 48 105 15 135 -19 17 -21
16 -41 -16z"/>
<path d="M4091 7764 c-24 -31 -25 -39 -10 -83 20 -58 69 -31 69 39 0 34 -15
70 -30 70 -5 0 -18 -12 -29 -26z"/>
<path d="M4685 7598 c-22 -5 -53 -13 -69 -16 -16 -4 16 -7 74 -8 100 0 101 0
78 18 -25 19 -26 20 -83 6z"/>
<path d="M4548 7573 c7 -3 16 -2 19 1 4 3 -2 6 -13 5 -11 0 -14 -3 -6 -6z"/>
<path d="M3988 7553 c7 -3 16 -2 19 1 4 3 -2 6 -13 5 -11 0 -14 -3 -6 -6z"/>
<path d="M4232 7512 c-13 -60 -7 -81 31 -101 19 -10 29 -10 46 -2 33 18 25 30
-17 24 -52 -7 -68 13 -52 62 6 19 10 43 8 52 -2 10 -9 -6 -16 -35z"/>
<path d="M3898 7533 c7 -3 16 -2 19 1 4 3 -2 6 -13 5 -11 0 -14 -3 -6 -6z"/>
<path d="M4270 7340 l-75 -6 75 -2 c41 -1 82 3 90 8 13 9 13 10 0 8 -8 -1 -49
-4 -90 -8z"/>
<path d="M3477 7904 c-10 -11 -8 -57 3 -74 7 -11 8 -6 4 16 -8 42 16 62 41 34
14 -16 16 -23 7 -32 -17 -17 -15 -33 3 -18 12 10 16 8 24 -11 6 -18 4 -30 -10
-48 -21 -26 -24 -68 -8 -91 8 -12 9 -10 4 8 -8 29 2 59 22 66 12 5 14 0 11
-23 -3 -17 0 -27 5 -24 29 18 -40 195 -79 201 -11 2 -23 0 -27 -4z"/>
<path d="M4686 7123 c-20 -65 -44 -195 -52 -290 -5 -57 -2 -95 10 -142 9 -36
13 -68 9 -71 -5 -4 -38 -17 -75 -29 -77 -25 -147 -62 -173 -91 -51 -57 -33 5
80 267 43 98 93 209 112 247 19 37 32 70 29 73 -11 11 -184 -367 -248 -544
-26 -71 -33 -83 -57 -88 -69 -15 -117 15 -169 104 -33 58 -44 93 -70 222 -17
85 -40 181 -51 214 -25 72 -21 39 13 -110 14 -60 30 -152 36 -204 6 -51 13
-98 16 -102 9 -15 -3 -11 -74 25 -37 18 -82 37 -99 41 l-33 7 25 46 c14 26 25
60 24 77 -1 27 -2 26 -10 -11 -5 -22 -22 -53 -37 -67 l-27 -26 -223 -4 -222
-4 37 46 c20 25 59 70 87 99 28 28 46 52 42 52 -5 0 -1 9 9 20 10 11 13 20 7
20 -11 0 -30 -27 -30 -43 0 -5 -49 -54 -108 -108 l-108 -100 -45 7 c-40 5 -73
15 -166 48 -11 4 0 -4 25 -17 25 -14 65 -28 89 -32 l44 -7 -24 -19 c-29 -23
-27 -23 36 -3 67 22 452 32 550 15 78 -14 183 -63 275 -131 88 -64 101 -70
157 -70 40 0 56 6 100 40 98 73 200 112 400 149 257 49 405 60 537 41 80 -12
97 -7 35 11 l-44 12 97 26 c53 14 100 29 104 34 13 12 -32 8 -69 -8 -20 -8
-66 -15 -102 -15 -62 0 -72 3 -135 44 -38 25 -74 54 -80 66 -6 11 -15 18 -19
15 -5 -2 -20 5 -35 16 -33 26 -33 20 4 -37 16 -26 35 -63 41 -82 17 -50 21
-49 -250 -92 -155 -25 -158 -24 -188 64 -22 63 -21 184 3 334 9 57 14 106 11
108 -3 3 -12 -16 -21 -43z"/>
<path d="M3943 6880 c0 -41 2 -58 4 -37 2 20 2 54 0 75 -2 20 -4 3 -4 -38z"/>
<path d="M4202 6805 c4 -24 63 -65 93 -65 13 0 28 7 35 15 14 17 0 21 -17 4
-14 -14 -75 12 -97 42 -15 21 -17 22 -14 4z"/>
<path d="M5098 6493 c7 -3 16 -2 19 1 4 3 -2 6 -13 5 -11 0 -14 -3 -6 -6z"/>
<path d="M5700 6156 c0 -2 7 -9 15 -16 9 -7 15 -8 15 -2 0 5 -7 12 -15 16 -8
3 -15 4 -15 2z"/>
<path d="M4091 6136 c13 -11 99 -43 93 -35 -7 12 -67 39 -85 39 -7 0 -10 -2
-8 -4z"/>
<path d="M4360 6100 c-18 -12 -2 -12 25 0 13 6 15 9 5 9 -8 0 -22 -4 -30 -9z"/>
<path d="M4295 6070 c-3 -6 1 -7 9 -4 18 7 21 14 7 14 -6 0 -13 -4 -16 -10z"/>
<path d="M3187 5202 c-23 -22 -90 -71 -148 -110 -58 -38 -130 -94 -160 -122
-55 -54 -42 -50 21 5 20 17 92 70 160 117 111 77 196 148 177 148 -4 0 -26
-17 -50 -38z"/>
<path d="M3883 5115 c-29 -13 -137 -80 -240 -148 -238 -158 -448 -264 -530
-268 -12 0 -13 -2 -5 -6 44 -17 419 150 552 246 36 26 105 72 153 102 145 90
176 122 70 74z"/>
<path d="M2481 4907 c-2 -110 47 -180 144 -201 17 -3 4 6 -32 23 -74 35 -94
66 -103 166 l-7 70 -2 -58z"/>
<path d="M3080 4495 c-14 -8 -20 -14 -14 -15 5 0 19 7 30 15 24 18 16 19 -16
0z"/>
<path d="M2998 4463 c7 -3 16 -2 19 1 4 3 -2 6 -13 5 -11 0 -14 -3 -6 -6z"/>
<path d="M2933 4453 c9 -2 25 -2 35 0 9 3 1 5 -18 5 -19 0 -27 -2 -17 -5z"/>
<path d="M3345 5780 c-3 -5 -2 -10 4 -10 5 0 13 5 16 10 3 6 2 10 -4 10 -5 0
-13 -4 -16 -10z"/>
<path d="M4701 4861 c24 -16 517 -148 580 -156 40 -5 65 -3 92 9 20 8 37 16
37 18 0 2 -42 3 -93 4 -77 1 -131 11 -337 62 -324 81 -298 75 -279 63z"/>
<path d="M4300 4769 c56 -48 424 -218 529 -244 93 -24 86 -11 -11 19 -104 32
-256 98 -418 182 -69 35 -114 55 -100 43z"/>
<path d="M4885 4490 c11 -5 29 -9 40 -9 l20 0 -20 9 c-11 5 -29 9 -40 9 l-20
0 20 -9z"/>
<path d="M5594 4391 c-21 -15 -85 -52 -141 -81 l-102 -53 -60 10 c-72 11 -69
-6 6 -31 103 -35 178 -11 267 85 49 53 83 99 73 99 -2 0 -21 -13 -43 -29z"/>
<path d="M7167 2920 c-4 -30 -9 -66 -12 -80 -3 -14 2 -7 10 15 9 22 14 58 13
80 -3 39 -3 38 -11 -15z"/>
<path d="M2423 8413 c9 -2 25 -2 35 0 9 3 1 5 -18 5 -19 0 -27 -2 -17 -5z"/>
<path d="M2368 8403 c6 -2 18 -2 25 0 6 3 1 5 -13 5 -14 0 -19 -2 -12 -5z"/>
<path d="M2318 8393 c6 -2 18 -2 25 0 6 3 1 5 -13 5 -14 0 -19 -2 -12 -5z"/>
<path d="M2278 8383 c7 -3 16 -2 19 1 4 3 -2 6 -13 5 -11 0 -14 -3 -6 -6z"/>
</g>
</svg>
