<?xml version="1.0" encoding="UTF-8"?>
<!DOCTYPE svg PUBLIC "-//W3C//DTD SVG 1.1//EN" "http://www.w3.org/Graphics/SVG/1.1/DTD/svg11.dtd">
<svg xmlns="http://www.w3.org/2000/svg" version="1.1" width="1024px" height="1024px" style="shape-rendering:geometricPrecision; text-rendering:geometricPrecision; image-rendering:optimizeQuality; fill-rule:evenodd; clip-rule:evenodd" xmlns:xlink="http://www.w3.org/1999/xlink">
<g><path style="opacity:0.979" fill="#000000" d="M 215.5,-0.5 C 231.167,-0.5 246.833,-0.5 262.5,-0.5C 262.5,14.5 262.5,29.5 262.5,44.5C 276.5,44.5 290.5,44.5 304.5,44.5C 304.5,29.5 304.5,14.5 304.5,-0.5C 320.167,-0.5 335.833,-0.5 351.5,-0.5C 351.5,45.5 351.5,91.5 351.5,137.5C 335.833,137.5 320.167,137.5 304.5,137.5C 304.5,122.167 304.5,106.833 304.5,91.5C 290.833,91.5 277.167,91.5 263.5,91.5C 263.5,106.833 263.5,122.167 263.5,137.5C 247.5,137.5 231.5,137.5 215.5,137.5C 215.5,91.5 215.5,45.5 215.5,-0.5 Z"/></g>
<g><path style="opacity:0.997" fill="#000000" d="M 370.5,-0.5 C 413.167,-0.5 455.833,-0.5 498.5,-0.5C 498.5,14.8333 498.5,30.1667 498.5,45.5C 484.833,45.5 471.167,45.5 457.5,45.5C 457.5,76.1667 457.5,106.833 457.5,137.5C 442.167,137.5 426.833,137.5 411.5,137.5C 411.5,106.833 411.5,76.1667 411.5,45.5C 397.833,45.5 384.167,45.5 370.5,45.5C 370.5,30.1667 370.5,14.8333 370.5,-0.5 Z"/></g>
<g><path style="opacity:0.983" fill="#000000" d="M 518.5,-0.5 C 534.833,-0.5 551.167,-0.5 567.5,-0.5C 576.989,15.1389 586.489,30.8055 596,46.5C 606.025,31.1104 615.525,15.4438 624.5,-0.5C 641.167,-0.5 657.833,-0.5 674.5,-0.5C 674.5,45.5 674.5,91.5 674.5,137.5C 658.833,137.5 643.167,137.5 627.5,137.5C 627.667,115.497 627.5,93.4975 627,71.5C 617.061,87.769 606.727,103.769 596,119.5C 585.667,103.833 575.333,88.1667 565,72.5C 564.5,94.1641 564.333,115.831 564.5,137.5C 549.167,137.5 533.833,137.5 518.5,137.5C 518.5,91.5 518.5,45.5 518.5,-0.5 Z"/></g>
<g><path style="opacity:0.984" fill="#000000" d="M 696.5,-0.5 C 712.167,-0.5 727.833,-0.5 743.5,-0.5C 743.5,30.1667 743.5,60.8333 743.5,91.5C 765.167,91.5 786.833,91.5 808.5,91.5C 808.5,106.833 808.5,122.167 808.5,137.5C 771.167,137.5 733.833,137.5 696.5,137.5C 696.5,91.5 696.5,45.5 696.5,-0.5 Z"/></g>
<g><path style="opacity:0.997" fill="#e44d26" d="M 514.5,1023.5 C 511.833,1023.5 509.167,1023.5 506.5,1023.5C 409.435,995.898 312.102,968.898 214.5,942.5C 192.08,695.214 170.08,447.881 148.5,200.5C 390.5,200.5 632.5,200.5 874.5,200.5C 852.833,446.842 830.999,693.175 809,939.5C 808.626,940.416 808.126,941.25 807.5,942C 709.634,968.906 611.968,996.073 514.5,1023.5 Z"/></g>
<g><path style="opacity:1" fill="#f16529" d="M 511.5,866.5 C 511.5,866.167 511.5,865.833 511.5,865.5C 573.295,848.968 634.962,831.968 696.5,814.5C 705.434,722.559 713.767,630.559 721.5,538.5C 722.404,537.791 722.737,536.791 722.5,535.5C 652.167,535.5 581.833,535.5 511.5,535.5C 511.5,504.833 511.5,474.167 511.5,443.5C 468.833,443.5 426.167,443.5 383.5,443.5C 425.997,442.501 468.663,442.168 511.5,442.5C 584.5,442.5 657.5,442.5 730.5,442.5C 733.014,412.487 735.681,382.487 738.5,352.5C 662.833,352.5 587.167,352.5 511.5,352.5C 435.5,352.5 359.5,352.5 283.5,352.5C 359.332,351.501 435.332,351.167 511.5,351.5C 511.5,321.5 511.5,291.5 511.5,261.5C 610.167,261.5 708.833,261.5 807.5,261.5C 789.341,472.246 770.341,682.913 750.5,893.5C 670.911,915.605 591.411,937.938 512,960.5C 511.5,929.168 511.333,897.835 511.5,866.5 Z"/></g>
<g><path style="opacity:1" fill="#ebeaea" d="M 283.5,352.5 C 359.5,352.5 435.5,352.5 511.5,352.5C 511.5,382.5 511.5,412.5 511.5,442.5C 468.663,442.168 425.997,442.501 383.5,443.5C 385.986,474.183 388.653,504.85 391.5,535.5C 431.33,536.499 471.33,536.832 511.5,536.5C 511.5,566.5 511.5,596.5 511.5,626.5C 443.833,626.5 376.167,626.5 308.5,626.5C 300.356,535.151 292.023,443.818 283.5,352.5 Z"/></g>
<g><path style="opacity:1" fill="#fffefe" d="M 511.5,352.5 C 587.167,352.5 662.833,352.5 738.5,352.5C 735.681,382.487 733.014,412.487 730.5,442.5C 657.5,442.5 584.5,442.5 511.5,442.5C 511.5,412.5 511.5,382.5 511.5,352.5 Z"/></g>
<g><path style="opacity:1" fill="#e44d26" d="M 383.5,443.5 C 426.167,443.5 468.833,443.5 511.5,443.5C 511.5,474.167 511.5,504.833 511.5,535.5C 471.5,535.5 431.5,535.5 391.5,535.5C 388.653,504.85 385.986,474.183 383.5,443.5 Z"/></g>
<g><path style="opacity:1" fill="#f4bba5" d="M 391.5,535.5 C 431.5,535.5 471.5,535.5 511.5,535.5C 581.833,535.5 652.167,535.5 722.5,535.5C 722.737,536.791 722.404,537.791 721.5,538.5C 651.841,536.503 581.841,535.837 511.5,536.5C 471.33,536.832 431.33,536.499 391.5,535.5 Z"/></g>
<g><path style="opacity:1" fill="#fffefe" d="M 511.5,536.5 C 581.841,535.837 651.841,536.503 721.5,538.5C 713.767,630.559 705.434,722.559 696.5,814.5C 634.962,831.968 573.295,848.968 511.5,865.5C 511.175,834.093 511.508,802.76 512.5,771.5C 545.531,762.659 578.531,753.659 611.5,744.5C 615.825,705.251 619.491,665.917 622.5,626.5C 585.5,626.5 548.5,626.5 511.5,626.5C 511.5,596.5 511.5,566.5 511.5,536.5 Z"/></g>
<g><path style="opacity:1" fill="#f16529" d="M 511.5,626.5 C 548.5,626.5 585.5,626.5 622.5,626.5C 619.491,665.917 615.825,705.251 611.5,744.5C 578.531,753.659 545.531,762.659 512.5,771.5C 512.167,771.5 511.833,771.5 511.5,771.5C 511.5,723.167 511.5,674.833 511.5,626.5 Z"/></g>
<g><path style="opacity:1" fill="#ebeaea" d="M 511.5,771.5 C 511.833,771.5 512.167,771.5 512.5,771.5C 511.508,802.76 511.175,834.093 511.5,865.5C 511.5,865.833 511.5,866.167 511.5,866.5C 449.406,849.617 387.406,832.45 325.5,815C 320.84,767.579 316.507,720.079 312.5,672.5C 342.835,672.333 373.168,672.5 403.5,673C 405.966,696.988 408.299,720.988 410.5,745C 444.203,753.861 477.87,762.695 511.5,771.5 Z"/></g>
</svg>
