<?xml version="1.0" encoding="UTF-8"?>
<!DOCTYPE svg PUBLIC "-//W3C//DTD SVG 1.1//EN" "http://www.w3.org/Graphics/SVG/1.1/DTD/svg11.dtd">
<svg xmlns="http://www.w3.org/2000/svg" version="1.1" width="512px" height="512px" style="shape-rendering:geometricPrecision; text-rendering:geometricPrecision; image-rendering:optimizeQuality; fill-rule:evenodd; clip-rule:evenodd" xmlns:xlink="http://www.w3.org/1999/xlink">
<g><path style="opacity:0.973" fill="#010101" d="M 67.5,7.5 C 104.533,4.2581 131.033,19.2581 147,52.5C 156.063,78.8357 152.397,103.169 136,125.5C 129.152,132.886 121.819,139.553 114,145.5C 112.908,148.044 112.241,150.711 112,153.5C 111.667,160.833 111.333,168.167 111,175.5C 104.645,194.438 91.478,202.272 71.5,199C 59,195.833 51.1667,188 48,175.5C 47.6667,168.167 47.3333,160.833 47,153.5C 46.6694,149.169 45.1694,145.336 42.5,142C 10.4392,119.821 0.272515,89.9876 12,52.5C 22.8134,27.8641 41.3134,12.8641 67.5,7.5 Z"/></g>
<g><path style="opacity:0.962" fill="#010000" d="M 244.5,7.5 C 279.018,4.55224 301.185,19.5522 311,52.5C 314.4,87.0662 299.567,109.233 266.5,119C 231.934,122.4 209.767,107.567 200,74.5C 196.806,39.9102 211.639,17.5769 244.5,7.5 Z"/></g>
<g><path style="opacity:0.964" fill="#010100" d="M 392.5,7.5 C 407.833,7.5 423.167,7.5 438.5,7.5C 440.167,13.5 441.833,19.5 443.5,25.5C 449.369,23.5677 455.036,21.0677 460.5,18C 461.5,17.3333 462.5,17.3333 463.5,18C 473.333,27.8333 483.167,37.6667 493,47.5C 493.667,48.5 493.667,49.5 493,50.5C 489.932,55.964 487.432,61.6307 485.5,67.5C 491.5,69.1667 497.5,70.8333 503.5,72.5C 503.5,87.8333 503.5,103.167 503.5,118.5C 497.5,120.167 491.5,121.833 485.5,123.5C 487.432,129.369 489.932,135.036 493,140.5C 493.667,141.5 493.667,142.5 493,143.5C 483.167,153.333 473.333,163.167 463.5,173C 462.5,173.667 461.5,173.667 460.5,173C 455.036,169.932 449.369,167.432 443.5,165.5C 441.833,171.5 440.167,177.5 438.5,183.5C 423.167,183.5 407.833,183.5 392.5,183.5C 390.833,177.5 389.167,171.5 387.5,165.5C 381.631,167.432 375.964,169.932 370.5,173C 369.5,173.667 368.5,173.667 367.5,173C 357.667,163.167 347.833,153.333 338,143.5C 337.333,142.5 337.333,141.5 338,140.5C 341.068,135.036 343.568,129.369 345.5,123.5C 339.5,121.833 333.5,120.167 327.5,118.5C 327.5,103.167 327.5,87.8333 327.5,72.5C 333.5,70.8333 339.5,69.1667 345.5,67.5C 343.568,61.6307 341.068,55.964 338,50.5C 337.333,49.5 337.333,48.5 338,47.5C 347.833,37.6667 357.667,27.8333 367.5,18C 368.5,17.3333 369.5,17.3333 370.5,18C 375.964,21.0677 381.631,23.5677 387.5,25.5C 389.167,19.5 390.833,13.5 392.5,7.5 Z M 408.5,72.5 C 422.981,70.3182 432.814,75.9849 438,89.5C 440.366,103.606 434.866,113.106 421.5,118C 407.394,120.366 397.894,114.866 393,101.5C 390.831,87.8339 395.998,78.1672 408.5,72.5 Z"/></g>
<g><path style="opacity:1" fill="#fce8a5" d="M 71.5,23.5 C 105.386,22.2435 126.552,37.9102 135,70.5C 136.987,88.2004 132.321,103.867 121,117.5C 114.667,122.833 108.333,128.167 102,133.5C 98.1476,138.891 95.9809,144.891 95.5,151.5C 92.8333,151.5 90.1667,151.5 87.5,151.5C 87.1672,134.82 87.5005,118.153 88.5,101.5C 102.187,94.1235 106.354,83.1235 101,68.5C 91.5974,55.1904 79.7641,52.3571 65.5,60C 52.2849,72.9091 52.2849,85.9091 65.5,99C 67.1667,99.8333 68.8333,100.667 70.5,101.5C 71.4995,118.153 71.8328,134.82 71.5,151.5C 68.8333,151.5 66.1667,151.5 63.5,151.5C 63.0191,144.891 60.8524,138.891 57,133.5C 50.6667,128.167 44.3333,122.833 38,117.5C 21.0372,96.1842 19.0372,73.5176 32,49.5C 41.614,35.3776 54.7806,26.7109 71.5,23.5 Z"/></g>
<g><path style="opacity:1" fill="#f9d46e" d="M 404.5,23.5 C 411.833,23.5 419.167,23.5 426.5,23.5C 427.999,29.8306 429.999,35.9972 432.5,42C 435.466,43.2663 438.466,44.4329 441.5,45.5C 447.282,43.1092 452.949,40.4425 458.5,37.5C 463.485,41.9848 468.319,46.6515 473,51.5C 471.28,56.9554 468.947,62.2888 466,67.5C 466.111,71.5807 467.277,75.414 469.5,79C 475.35,81.1716 481.183,83.3383 487,85.5C 487.667,92.1667 487.667,98.8333 487,105.5C 481.183,107.662 475.35,109.828 469.5,112C 467.277,115.586 466.111,119.419 466,123.5C 468.947,128.711 471.28,134.045 473,139.5C 468.319,144.349 463.485,149.015 458.5,153.5C 452.949,150.557 447.282,147.891 441.5,145.5C 438.466,146.567 435.466,147.734 432.5,149C 429.971,154.921 427.637,160.921 425.5,167C 418.833,167.667 412.167,167.667 405.5,167C 403.338,161.183 401.172,155.35 399,149.5C 395.414,147.277 391.581,146.111 387.5,146C 382.289,148.947 376.955,151.28 371.5,153C 366.651,148.319 361.985,143.485 357.5,138.5C 360.443,132.949 363.109,127.282 365.5,121.5C 364.433,118.466 363.266,115.466 362,112.5C 355.997,109.999 349.831,107.999 343.5,106.5C 343.5,99.1667 343.5,91.8333 343.5,84.5C 349.831,83.0009 355.997,81.0009 362,78.5C 363.17,75.495 364.336,72.495 365.5,69.5C 362.662,63.5086 360.162,57.5086 358,51.5C 362.681,46.6515 367.515,41.9848 372.5,37.5C 378.051,40.4425 383.718,43.1092 389.5,45.5C 392.495,44.3364 395.495,43.1697 398.5,42C 401.001,35.9972 403.001,29.8306 404.5,23.5 Z M 408.5,72.5 C 395.998,78.1672 390.831,87.8339 393,101.5C 397.894,114.866 407.394,120.366 421.5,118C 434.866,113.106 440.366,103.606 438,89.5C 432.814,75.9849 422.981,70.3182 408.5,72.5 Z"/></g>
<g><path style="opacity:1" fill="#fb806c" d="M 247.5,23.5 C 271.864,21.7222 287.697,32.3889 295,55.5C 296.76,84.7366 283.093,100.737 254,103.5C 229.82,100.317 216.987,86.4833 215.5,62C 217.642,42.0292 228.308,29.1959 247.5,23.5 Z"/></g>
<g><path style="opacity:1" fill="#090303" d="M 272.5,42.5 C 276.737,45.2281 280.571,48.5615 284,52.5C 284.667,53.1667 284.667,53.8333 284,54.5C 272.167,66.3333 260.333,78.1667 248.5,90C 247.833,90.6667 247.167,90.6667 246.5,90C 240,83.5 233.5,77 227,70.5C 229.446,65.8669 232.946,61.8669 237.5,58.5C 240.651,61.1504 243.651,63.9838 246.5,67C 247.167,67.6667 247.833,67.6667 248.5,67C 256.702,58.965 264.702,50.7983 272.5,42.5 Z"/></g>
<g><path style="opacity:0.966" fill="#030201" d="M 407.5,55.5 C 438.569,54.7408 454.402,69.7408 455,100.5C 449.138,125.53 433.305,137.03 407.5,135C 384.244,127.726 373.744,111.893 376,87.5C 380.683,70.9848 391.183,60.3181 407.5,55.5 Z M 408.5,72.5 C 395.998,78.1672 390.831,87.8339 393,101.5C 397.894,114.866 407.394,120.366 421.5,118C 434.866,113.106 440.366,103.606 438,89.5C 432.814,75.9849 422.981,70.3182 408.5,72.5 Z"/></g>
<g><path style="opacity:1" fill="#f1ce6b" d="M 76.5,71.5 C 84.6577,70.8229 88.1577,74.4895 87,82.5C 84.7742,86.8608 81.2742,88.3608 76.5,87C 72.1392,84.7742 70.6392,81.2742 72,76.5C 73.025,74.313 74.525,72.6464 76.5,71.5 Z"/></g>
<g><path style="opacity:0.985" fill="#010100" d="M 237.5,135.5 C 289.392,132.012 323.892,154.678 341,203.5C 342.882,211.722 343.882,220.055 344,228.5C 357.731,245.456 362.731,264.789 359,286.5C 357,295.833 355,305.167 353,314.5C 352.333,319.833 352.333,325.167 353,330.5C 359.311,337.143 365.978,343.476 373,349.5C 376.992,354.159 380.158,359.326 382.5,365C 386.394,367.59 389.227,366.757 391,362.5C 391.667,338.833 391.667,315.167 391,291.5C 384.476,286.316 379.476,279.983 376,272.5C 373.113,258.611 377.946,248.611 390.5,242.5C 390.185,229.277 396.185,220.443 408.5,216C 418.5,215.333 428.5,215.333 438.5,216C 445.519,218.351 450.686,222.851 454,229.5C 455.653,280.108 455.986,330.775 455,381.5C 447.502,411.091 428.502,427.091 398,429.5C 382.489,427.873 366.989,426.207 351.5,424.5C 351.5,450.833 351.5,477.167 351.5,503.5C 287.5,503.5 223.5,503.5 159.5,503.5C 159.5,477.167 159.5,450.833 159.5,424.5C 144.011,426.207 128.511,427.873 113,429.5C 82.4976,427.091 63.4976,411.091 56,381.5C 55.3333,331.833 55.3333,282.167 56,232.5C 58.8333,224.333 64.3333,218.833 72.5,216C 82.5,215.333 92.5,215.333 102.5,216C 114.815,220.443 120.815,229.277 120.5,242.5C 136.031,250.609 139.865,262.609 132,278.5C 128.702,282.8 125.035,286.8 121,290.5C 120.333,315.167 120.333,339.833 121,364.5C 121.739,365.574 122.739,366.241 124,366.5C 132.181,365.093 140.347,363.593 148.5,362C 134.417,343.889 131.584,324.055 140,302.5C 143.917,293.749 150.084,287.083 158.5,282.5C 159.333,259.507 159.833,236.507 160,213.5C 166.134,180.064 184.634,156.231 215.5,142C 222.807,139.282 230.141,137.115 237.5,135.5 Z"/></g>
<g><path style="opacity:1" fill="#646c77" d="M 240.5,151.5 C 287.01,149.863 315.843,171.529 327,216.5C 327.333,222.833 327.667,229.167 328,235.5C 339.974,247.755 344.974,262.422 343,279.5C 340.667,291.5 338.333,303.5 336,315.5C 333.288,327.309 335.955,337.642 344,346.5C 349.833,351.667 355.667,356.833 361.5,362C 339.774,359.754 318.108,356.754 296.5,353C 293.428,343.23 295.928,335.397 304,329.5C 312.248,319.665 317.248,308.331 319,295.5C 319.5,271.502 319.667,247.502 319.5,223.5C 301.164,223.667 282.83,223.5 264.5,223C 249.617,220.321 235.95,214.821 223.5,206.5C 213.035,212.903 202.702,219.57 192.5,226.5C 191.334,249.826 191.167,273.16 192,296.5C 195.343,315.878 205.177,330.878 221.5,341.5C 222.745,345.214 222.579,348.88 221,352.5C 218.872,355.63 216.372,358.463 213.5,361C 220.127,366.62 225.627,373.12 230,380.5C 233.455,404.589 224.789,422.922 204,435.5C 193.148,424.53 182.148,413.53 171,402.5C 166.966,395.422 166.466,388.089 169.5,380.5C 180.697,388.098 192.697,394.098 205.5,398.5C 206.426,394.053 207.76,389.72 209.5,385.5C 209.167,384.833 208.833,384.167 208.5,383.5C 194.204,377.691 181.204,369.858 169.5,360C 156.074,349.321 150.241,335.487 152,318.5C 154.936,305.402 162.769,297.069 175.5,293.5C 175.333,267.831 175.5,242.165 176,216.5C 183.68,180.987 205.18,159.32 240.5,151.5 Z"/></g>
<g><path style="opacity:1" fill="#a6aeb9" d="M 63.5,167.5 C 74.1667,167.5 84.8333,167.5 95.5,167.5C 92.6272,181.938 84.2939,186.438 70.5,181C 65.9134,177.66 63.5801,173.16 63.5,167.5 Z"/></g>
<g><path style="opacity:1" fill="#efcfb3" d="M 222.5,225.5 C 229.25,228.039 235.917,230.872 242.5,234C 247.531,235.206 252.531,236.54 257.5,238C 272.794,239.379 288.127,239.879 303.5,239.5C 303.667,257.503 303.5,275.503 303,293.5C 296.167,323.513 277.334,337.346 246.5,335C 227.073,329.906 214.573,317.739 209,298.5C 207.392,277.543 207.058,256.543 208,235.5C 212.987,232.267 217.82,228.934 222.5,225.5 Z"/></g>
<g><path style="opacity:1" fill="#eecfb3" d="M 76.5,231.5 C 84.6112,231.065 92.6112,231.565 100.5,233C 101.701,233.903 102.535,235.069 103,236.5C 103.333,241.833 103.667,247.167 104,252.5C 108.088,254.794 112.255,256.961 116.5,259C 119.723,262.112 120.223,265.612 118,269.5C 114.833,272.667 111.667,275.833 108.5,279C 96.1712,279.5 83.8378,279.667 71.5,279.5C 71.3334,265.163 71.5001,250.829 72,236.5C 73.025,234.313 74.525,232.646 76.5,231.5 Z"/></g>
<g><path style="opacity:1" fill="#eecfb3" d="M 412.5,231.5 C 419.841,231.334 427.174,231.5 434.5,232C 435.931,232.465 437.097,233.299 438,234.5C 439.467,249.403 439.967,264.403 439.5,279.5C 427.162,279.667 414.829,279.5 402.5,279C 397.635,275.151 393.969,270.485 391.5,265C 391.625,263.373 392.125,261.873 393,260.5C 397.504,257.58 402.171,254.914 407,252.5C 407.333,247.167 407.667,241.833 408,236.5C 409.025,234.313 410.525,232.646 412.5,231.5 Z"/></g>
<g><path style="opacity:1" fill="#b2db7e" d="M 71.5,295.5 C 82.1667,295.5 92.8333,295.5 103.5,295.5C 103.333,319.169 103.5,342.836 104,366.5C 105.842,375.009 111.009,380.176 119.5,382C 130.544,381.494 141.544,380.327 152.5,378.5C 150.522,388.483 151.522,398.149 155.5,407.5C 138.346,411.145 121.012,412.645 103.5,412C 85.4571,406.294 74.9571,394.127 72,375.5C 71.5,348.835 71.3334,322.169 71.5,295.5 Z"/></g>
<g><path style="opacity:1" fill="#b3db7e" d="M 407.5,295.5 C 418.167,295.5 428.833,295.5 439.5,295.5C 439.667,322.169 439.5,348.835 439,375.5C 435.936,394.565 425.102,406.732 406.5,412C 388.722,412.404 371.055,411.07 353.5,408C 347.509,407.501 341.509,407.334 335.5,407.5C 335.5,434.167 335.5,460.833 335.5,487.5C 319.167,487.5 302.833,487.5 286.5,487.5C 283.836,467.526 281.669,447.526 280,427.5C 284,431.5 288,435.5 292,439.5C 297.028,416.86 301.861,394.193 306.5,371.5C 332.994,375.098 359.494,378.765 386,382.5C 397.109,382.456 404.109,377.122 407,366.5C 407.5,342.836 407.667,319.169 407.5,295.5 Z"/></g>
<g><path style="opacity:1" fill="#edcdb1" d="M 278.5,346.5 C 279.641,349.64 279.808,352.973 279,356.5C 270.167,365.333 261.333,374.167 252.5,383C 250.527,383.495 248.527,383.662 246.5,383.5C 246.579,380.729 246.079,378.063 245,375.5C 242.217,369.732 239.05,364.232 235.5,359C 236.536,356.226 237.369,353.393 238,350.5C 240.443,349.715 242.943,349.881 245.5,351C 257.052,352.516 268.052,351.016 278.5,346.5 Z"/></g>
<g><path style="opacity:1" fill="#9cd066" d="M 289.5,368.5 C 290.376,368.369 291.043,368.702 291.5,369.5C 288.56,382.138 285.727,394.804 283,407.5C 277.652,402.319 272.485,396.985 267.5,391.5C 274.855,383.813 282.188,376.146 289.5,368.5 Z"/></g>
<g><path style="opacity:1" fill="#f97e6b" d="M 246.5,399.5 C 248.527,399.338 250.527,399.505 252.5,400C 255,402.5 257.5,405 260,407.5C 263.902,434.124 267.402,460.791 270.5,487.5C 260.5,487.5 250.5,487.5 240.5,487.5C 242.041,458.136 244.041,428.802 246.5,399.5 Z"/></g>
<g><path style="opacity:1" fill="#b2db7e" d="M 175.5,429.5 C 185.379,436.915 192.045,446.582 195.5,458.5C 206.909,453.41 217.243,446.743 226.5,438.5C 226.833,440.167 227.167,441.833 227.5,443.5C 226.092,458.143 225.092,472.81 224.5,487.5C 208.167,487.5 191.833,487.5 175.5,487.5C 175.5,468.167 175.5,448.833 175.5,429.5 Z"/></g>
</svg>
