<?xml version="1.0" standalone="no"?>
<!DOCTYPE svg PUBLIC "-//W3C//DTD SVG 20010904//EN"
 "http://www.w3.org/TR/2001/REC-SVG-20010904/DTD/svg10.dtd">
<svg version="1.0" xmlns="http://www.w3.org/2000/svg"
 width="512.000000pt" height="512.000000pt" viewBox="0 0 512.000000 512.000000"
 preserveAspectRatio="xMidYMid meet">

<g transform="translate(0.000000,512.000000) scale(0.100000,-0.100000)"
fill="#000000" stroke="none">
<path d="M672 5030 c-251 -46 -476 -244 -559 -495 -23 -71 -26 -96 -26 -215
-1 -118 3 -145 25 -212 50 -150 127 -258 260 -365 100 -80 102 -83 109 -247 5
-126 9 -147 32 -192 38 -75 69 -107 139 -145 58 -31 70 -34 148 -34 78 0 90 3
148 34 70 38 101 70 139 145 23 45 27 66 32 192 7 156 13 172 78 221 73 54
188 179 226 243 21 36 49 101 64 145 23 71 26 96 26 215 0 119 -3 144 -26 215
-39 117 -91 199 -187 295 -93 93 -198 155 -315 186 -73 19 -241 26 -313 14z
m309 -182 c177 -65 293 -185 355 -368 26 -76 26 -244 0 -320 -44 -132 -109
-219 -234 -313 -73 -56 -116 -118 -133 -193 -12 -54 -12 -54 -51 -54 l-38 0 0
249 0 249 30 12 c68 28 130 129 130 210 0 92 -80 202 -166 228 -187 55 -358
-114 -302 -300 14 -48 76 -121 118 -138 l30 -12 0 -249 0 -249 -38 0 c-39 0
-39 0 -51 54 -18 79 -60 137 -153 210 -115 90 -167 161 -209 285 -94 273 57
588 334 693 81 31 125 37 222 33 63 -2 110 -11 156 -27z m-147 -459 c58 -27
55 -115 -5 -139 -63 -26 -125 36 -100 99 19 44 60 60 105 40z m121 -976 c-17
-72 -89 -133 -155 -133 -66 0 -138 61 -155 133 l-7 27 162 0 162 0 -7 -27z"/>
<path d="M2445 5028 c-90 -17 -204 -80 -279 -154 -219 -219 -220 -568 -2 -786
114 -114 233 -163 396 -163 159 0 284 50 391 158 112 112 164 237 164 397 0
162 -49 281 -162 395 -130 132 -320 189 -508 153z m206 -164 c208 -47 339
-252 295 -463 -18 -86 -48 -142 -111 -204 -91 -91 -224 -130 -354 -103 -165
35 -281 156 -312 327 -24 133 38 288 148 370 63 48 81 57 150 73 77 19 101 19
184 0z"/>
<path d="M2612 4568 l-132 -133 -53 53 -53 52 -57 -58 -57 -57 110 -110 110
-110 190 190 190 190 -58 58 -57 57 -133 -132z"/>
<path d="M3910 4945 c-17 -52 -35 -95 -38 -95 -4 0 -41 18 -82 40 -41 22 -82
40 -90 40 -8 0 -83 -67 -165 -150 l-150 -150 43 -85 c23 -47 42 -89 42 -94 0
-5 -43 -24 -95 -41 l-95 -32 0 -218 0 -218 95 -32 c52 -17 95 -36 95 -41 0 -5
-19 -47 -42 -94 l-43 -85 153 -152 152 -153 85 43 c47 23 89 42 94 42 5 0 24
-43 41 -95 l32 -95 218 0 218 0 32 95 c17 52 36 95 41 95 5 0 47 -19 94 -42
l85 -43 152 153 153 152 -43 85 c-23 47 -42 89 -42 94 0 5 43 24 95 41 l95 32
0 218 0 218 -95 32 c-52 17 -95 36 -95 41 0 5 19 47 42 94 l43 85 -153 152
-152 153 -85 -43 c-47 -23 -89 -42 -94 -42 -5 0 -24 43 -41 95 l-32 95 -218 0
-218 0 -32 -95z m383 -158 c29 -87 30 -89 74 -108 59 -25 66 -24 153 21 l75
38 72 -70 72 -71 -40 -78 c-21 -43 -39 -85 -39 -93 0 -8 9 -34 19 -59 19 -44
21 -45 108 -74 l88 -30 0 -103 0 -103 -88 -30 c-87 -29 -89 -30 -108 -74 -25
-59 -24 -66 21 -153 l38 -75 -70 -72 -71 -72 -78 40 c-43 21 -85 39 -93 39 -8
0 -34 -9 -59 -19 -44 -19 -45 -21 -74 -108 l-30 -88 -103 0 -103 0 -30 88
c-29 87 -30 89 -74 108 -25 10 -51 19 -58 19 -7 0 -48 -18 -91 -41 l-77 -41
-73 73 -73 72 40 78 c21 43 39 85 39 93 0 8 -9 34 -19 59 -19 44 -21 45 -108
74 l-88 30 0 103 0 103 88 30 c87 29 89 30 108 74 10 25 19 51 19 59 0 8 -18
50 -39 93 l-40 78 73 72 73 73 77 -41 c43 -23 84 -41 91 -41 7 0 33 9 58 19
43 19 46 22 72 103 15 46 30 87 32 91 3 4 50 6 105 5 l101 -3 30 -88z"/>
<path d="M4034 4539 c-117 -40 -214 -138 -253 -256 -68 -207 47 -433 256 -502
307 -101 603 195 502 502 -69 210 -297 325 -505 256z m200 -151 c86 -26 166
-136 166 -228 0 -124 -116 -240 -240 -240 -63 0 -114 23 -165 75 -102 101
-102 229 0 330 70 71 145 90 239 63z"/>
<path d="M2340 3741 c-304 -65 -565 -281 -671 -556 -60 -155 -69 -225 -69
-577 l0 -316 -50 -37 c-88 -65 -150 -165 -176 -284 -33 -156 -6 -287 87 -423
27 -40 35 -60 27 -63 -7 -2 -68 -12 -135 -21 -100 -14 -125 -15 -137 -4 -14
11 -16 60 -16 379 l0 367 51 49 c80 79 104 127 104 210 0 89 -32 148 -105 196
-41 27 -50 37 -50 62 0 89 -74 193 -157 221 -57 20 -256 22 -317 4 -55 -16
-138 -99 -154 -154 -9 -31 -12 -222 -12 -746 0 -672 1 -708 20 -783 65 -254
293 -435 550 -435 41 0 163 11 270 25 107 14 196 25 198 25 1 0 2 -180 2 -400
l0 -400 960 0 960 0 0 400 c0 220 1 400 3 400 1 0 90 -11 197 -25 225 -29 322
-31 404 -10 75 20 178 74 238 125 62 54 142 174 170 258 23 67 23 69 26 792 2
539 0 736 -9 768 -17 61 -87 136 -146 156 -57 20 -256 22 -317 4 -84 -25 -166
-136 -166 -225 0 -25 -9 -35 -50 -62 -73 -48 -105 -107 -105 -196 0 -83 24
-131 104 -210 l51 -49 0 -366 c0 -271 -3 -369 -12 -378 -7 -7 -27 -12 -44 -12
-29 0 -36 5 -58 50 -36 71 -69 110 -169 196 -48 42 -95 90 -104 107 -20 40
-13 142 21 282 32 131 46 229 46 310 0 128 -50 282 -125 386 -28 40 -35 58
-35 97 0 68 -33 215 -67 303 -56 144 -180 305 -308 399 -208 153 -479 213
-725 161z m-25 -915 c164 -80 296 -106 546 -106 l179 0 -1 -267 c0 -220 -3
-280 -17 -334 -61 -234 -300 -390 -535 -351 -101 17 -190 63 -263 137 -127
126 -144 193 -144 571 l0 281 78 52 c42 28 79 51 82 51 3 0 36 -15 75 -34z
m-1322 -37 c35 -16 47 -49 47 -129 l0 -70 70 -35 c110 -55 116 -89 33 -176
l-56 -59 -184 0 -183 0 0 205 c0 214 5 245 44 263 29 14 199 15 229 1z m3360
0 c42 -19 47 -47 47 -264 l0 -205 -183 0 -184 0 -56 59 c-83 87 -77 121 33
176 l70 35 0 70 c0 77 12 113 44 128 29 14 199 15 229 1z m-3313 -987 c0 -356
0 -359 23 -403 31 -59 92 -100 155 -107 40 -3 206 15 289 33 21 5 22 4 16 -82
-4 -72 -2 -99 15 -146 13 -40 16 -60 8 -62 -49 -15 -390 -47 -450 -42 -130 11
-249 89 -319 208 -53 90 -57 128 -57 561 l0 398 160 0 160 0 0 -358z m3360
-40 c0 -327 -3 -408 -16 -457 -31 -121 -108 -216 -219 -271 -101 -50 -172 -53
-430 -20 -110 14 -239 26 -287 26 l-88 0 0 -400 0 -400 -245 0 c-135 0 -245 3
-245 8 0 4 -16 131 -35 282 -19 151 -35 284 -35 295 0 15 16 4 65 -45 36 -35
65 -61 65 -57 0 11 149 680 152 682 2 1 172 -25 378 -57 239 -37 396 -57 433
-55 71 4 130 42 164 106 23 44 23 47 23 403 l0 358 160 0 160 0 0 -398z
m-1600 -164 c0 -41 -4 -47 -137 -180 -111 -111 -143 -138 -165 -138 -21 0 -28
5 -28 20 0 35 -37 118 -74 169 l-37 50 18 50 18 51 40 -8 c67 -12 246 -5 295
11 68 23 70 22 70 -25z m117 -180 c-2 -7 -22 -93 -43 -190 -21 -98 -41 -178
-44 -178 -3 0 -39 34 -80 75 l-75 75 115 115 c107 107 139 133 127 103z m-352
-338 l40 -41 50 -399 51 -400 -149 0 -150 0 6 57 c4 32 18 216 32 408 14 193
28 365 31 383 7 46 39 43 89 -8z m-685 -385 c15 -22 37 -68 50 -102 12 -35 24
-63 27 -63 2 0 36 16 76 36 83 42 145 83 199 132 21 19 41 32 44 29 3 -3 -2
-114 -12 -246 l-18 -241 -243 0 -243 0 0 292 0 292 46 -44 c25 -25 58 -63 74
-85z"/>
</g>
</svg>
