<?xml version="1.0" standalone="no"?>
<!DOCTYPE svg PUBLIC "-//W3C//DTD SVG 20010904//EN"
 "http://www.w3.org/TR/2001/REC-SVG-20010904/DTD/svg10.dtd">
<svg version="1.0" xmlns="http://www.w3.org/2000/svg"
 width="512.000000pt" height="512.000000pt" viewBox="0 0 512.000000 512.000000"
 preserveAspectRatio="xMidYMid meet">

<g transform="translate(0.000000,512.000000) scale(0.100000,-0.100000)"
fill="#000000" stroke="none">
<path d="M1222 5095 c-105 -23 -202 -94 -258 -191 -50 -86 -54 -131 -54 -761
l0 -583 -99 0 -99 0 -4 95 c-3 88 -5 97 -31 122 l-28 28 -177 0 c-149 0 -185
-3 -227 -19 -305 -115 -305 -537 0 -652 42 -16 78 -19 227 -19 l177 0 28 28
c26 25 28 34 31 122 l4 95 99 0 99 0 0 -350 0 -350 -99 0 -99 0 -4 95 c-3 88
-5 97 -31 122 l-28 28 -177 0 c-149 0 -185 -3 -227 -19 -305 -115 -305 -537 0
-652 42 -16 78 -19 227 -19 l177 0 28 28 c26 25 28 34 31 122 l4 95 99 0 99 0
0 -350 0 -350 -99 0 -99 0 -4 95 c-3 88 -5 97 -31 122 l-28 28 -177 0 c-149 0
-185 -3 -227 -19 -305 -115 -305 -537 0 -652 42 -16 78 -19 227 -19 l177 0 28
28 c26 25 28 34 31 122 l4 95 99 0 98 0 3 -613 c3 -549 5 -617 21 -664 36
-108 148 -217 256 -251 52 -16 147 -17 1371 -17 1224 0 1319 1 1371 17 108 34
220 143 256 251 16 47 18 115 21 665 l3 612 98 0 99 0 4 -95 c3 -88 5 -97 31
-122 l28 -28 182 0 182 0 65 31 c82 40 135 92 173 173 85 180 -6 395 -198 467
-42 16 -78 19 -227 19 l-177 0 -28 -28 c-26 -25 -28 -34 -31 -122 l-4 -95 -99
0 -99 0 0 350 0 350 99 0 99 0 4 -95 c3 -88 5 -97 31 -122 l28 -28 182 0 182
0 65 31 c82 40 135 92 173 173 85 180 -6 395 -198 467 -42 16 -78 19 -227 19
l-177 0 -28 -28 c-26 -25 -28 -34 -31 -122 l-4 -95 -99 0 -99 0 0 350 0 350
99 0 99 0 4 -95 c3 -88 5 -97 31 -122 l28 -28 182 0 182 0 65 31 c82 40 135
92 173 173 85 180 -6 395 -198 467 -42 16 -78 19 -227 19 l-177 0 -28 -28
c-26 -25 -28 -34 -31 -122 l-4 -95 -99 0 -98 0 -3 613 c-4 691 -1 667 -82 774
-50 65 -119 116 -192 141 -45 16 -155 17 -1349 19 -1076 1 -1311 -1 -1363 -12z
m2676 -204 c43 -22 73 -53 96 -98 15 -29 16 -226 16 -2233 0 -2144 0 -2202
-19 -2238 -22 -43 -53 -73 -98 -96 -29 -14 -155 -16 -1333 -16 -1178 0 -1304
2 -1333 16 -45 23 -76 53 -98 96 -19 36 -19 94 -19 2238 0 2144 0 2202 19
2238 22 42 52 72 96 95 27 15 165 16 1333 17 1261 0 1304 -1 1340 -19z m-3388
-1431 l0 -150 -92 0 c-148 0 -203 41 -203 150 0 109 55 150 203 150 l92 0 0
-150z m4319 132 c55 -27 76 -64 76 -132 0 -109 -55 -150 -202 -150 l-93 0 0
150 0 150 93 0 c68 0 101 -5 126 -18z m-4319 -1032 l0 -150 -92 0 c-148 0
-203 41 -203 150 0 109 55 150 203 150 l92 0 0 -150z m4319 132 c55 -27 76
-64 76 -132 0 -109 -55 -150 -202 -150 l-93 0 0 150 0 150 93 0 c68 0 101 -5
126 -18z m-4319 -1032 l0 -150 -92 0 c-148 0 -203 41 -203 150 0 109 55 150
203 150 l92 0 0 -150z m4319 132 c55 -27 76 -64 76 -132 0 -109 -55 -150 -202
-150 l-93 0 0 150 0 150 93 0 c68 0 101 -5 126 -18z"/>
<path d="M1375 4701 c-11 -5 -29 -19 -40 -31 -20 -22 -20 -36 -20 -2111 l0
-2089 28 -27 27 -28 1190 0 1190 0 27 28 28 27 0 2090 0 2090 -28 27 -27 28
-1178 2 c-647 1 -1186 -2 -1197 -6z m338 -278 c3 -49 13 -111 22 -140 32 -105
145 -217 254 -251 50 -15 109 -17 571 -17 462 0 521 2 571 17 109 34 222 146
254 251 9 29 19 91 22 140 l6 87 98 0 99 0 0 -475 0 -475 -110 0 -110 0 -19
38 c-27 52 -87 107 -146 133 -134 60 -308 -2 -376 -133 l-19 -38 -270 0 -270
0 -19 38 c-68 131 -242 193 -376 133 -59 -26 -119 -81 -146 -133 l-19 -38
-110 0 -110 0 0 475 0 475 99 0 98 0 6 -87z m1497 17 c0 -110 -35 -174 -115
-211 -37 -17 -75 -19 -535 -19 -460 0 -498 2 -535 19 -80 37 -115 101 -115
211 l0 70 650 0 650 0 0 -70z m-1129 -909 c64 -65 20 -171 -71 -171 -33 0 -48
6 -71 29 -64 65 -20 171 71 171 33 0 48 -6 71 -29z m1100 0 c64 -65 20 -171
-71 -171 -33 0 -48 6 -71 29 -23 23 -29 38 -29 71 0 33 6 48 29 71 23 23 38
29 71 29 33 0 48 -6 71 -29z m-1432 -208 c27 -53 87 -108 146 -134 134 -60
308 2 376 134 l19 37 270 0 270 0 19 -37 c27 -53 87 -108 146 -134 134 -60
308 2 376 134 l19 37 110 0 110 0 0 -350 0 -350 -110 0 -110 0 -19 38 c-27 52
-87 107 -146 133 -134 60 -308 -2 -376 -133 l-19 -38 -270 0 -270 0 -19 38
c-27 52 -87 107 -146 133 -134 60 -308 -2 -376 -133 l-19 -38 -110 0 -110 0 0
350 0 350 110 0 110 0 19 -37z m332 -692 c23 -23 29 -38 29 -71 0 -91 -106
-135 -171 -71 -64 65 -20 171 71 171 33 0 48 -6 71 -29z m1100 0 c64 -65 20
-171 -71 -171 -58 0 -100 42 -100 100 0 33 6 48 29 71 23 23 38 29 71 29 33 0
48 -6 71 -29z m-1432 -208 c27 -53 87 -108 146 -134 134 -60 308 2 376 134
l19 37 270 0 270 0 19 -37 c27 -53 87 -108 146 -134 134 -60 308 2 376 134
l19 37 110 0 110 0 0 -350 0 -350 -110 0 -110 0 -19 38 c-68 131 -242 193
-376 133 -59 -26 -119 -81 -146 -133 l-19 -38 -270 0 -270 0 -19 38 c-27 52
-87 107 -146 133 -134 60 -308 -2 -376 -133 l-19 -38 -110 0 -110 0 0 350 0
350 110 0 110 0 19 -37z m332 -692 c23 -23 29 -38 29 -71 0 -91 -106 -135
-171 -71 -23 23 -29 38 -29 71 0 33 6 48 29 71 23 23 38 29 71 29 33 0 48 -6
71 -29z m1100 0 c23 -23 29 -38 29 -71 0 -91 -106 -135 -171 -71 -64 65 -20
171 71 171 33 0 48 -6 71 -29z m-1432 -208 c27 -53 87 -108 146 -134 134 -60
308 2 376 134 l19 37 270 0 270 0 19 -37 c68 -132 242 -194 376 -134 59 26
119 81 146 134 l19 37 110 0 110 0 0 -475 0 -475 -99 0 -98 0 -6 88 c-3 48
-13 110 -22 138 -33 112 -153 226 -267 255 -41 11 -165 14 -563 14 -457 0
-516 -2 -566 -17 -109 -34 -222 -146 -254 -251 -9 -29 -19 -91 -22 -139 l-6
-88 -98 0 -99 0 0 475 0 475 110 0 110 0 19 -37z m1346 -632 c80 -37 115 -101
115 -211 l0 -70 -650 0 -650 0 0 70 c0 110 35 174 115 211 37 17 75 19 535 19
460 0 498 -2 535 -19z"/>
</g>
</svg>
