<?xml version="1.0" encoding="UTF-8"?>
<!DOCTYPE svg PUBLIC "-//W3C//DTD SVG 1.1//EN" "http://www.w3.org/Graphics/SVG/1.1/DTD/svg11.dtd">
<svg xmlns="http://www.w3.org/2000/svg" version="1.1" width="512px" height="512px" style="shape-rendering:geometricPrecision; text-rendering:geometricPrecision; image-rendering:optimizeQuality; fill-rule:evenodd; clip-rule:evenodd" xmlns:xlink="http://www.w3.org/1999/xlink">
<g><path style="opacity:0.994" fill="#4269a7" d="M 121.5,0.5 C 210.834,0.333336 300.167,0.500002 389.5,1C 405.667,5.16667 415.833,15.3333 420,31.5C 420.5,72.832 420.667,114.165 420.5,155.5C 427.167,155.5 433.833,155.5 440.5,155.5C 440.334,148.825 440.5,142.158 441,135.5C 442.167,133.667 443.667,132.167 445.5,131C 458.5,130.333 471.5,130.333 484.5,131C 501.282,136.403 509.949,147.903 510.5,165.5C 510.005,183.658 501.005,195.158 483.5,200C 470.833,200.667 458.167,200.667 445.5,200C 443.667,198.833 442.167,197.333 441,195.5C 440.5,188.842 440.334,182.175 440.5,175.5C 433.833,175.5 427.167,175.5 420.5,175.5C 420.5,198.833 420.5,222.167 420.5,245.5C 427.167,245.5 433.833,245.5 440.5,245.5C 440.334,238.825 440.5,232.158 441,225.5C 442.167,223.667 443.667,222.167 445.5,221C 458.5,220.333 471.5,220.333 484.5,221C 501.282,226.403 509.949,237.903 510.5,255.5C 510.005,273.658 501.005,285.158 483.5,290C 470.833,290.667 458.167,290.667 445.5,290C 443.667,288.833 442.167,287.333 441,285.5C 440.5,278.842 440.334,272.175 440.5,265.5C 433.833,265.5 427.167,265.5 420.5,265.5C 420.5,288.833 420.5,312.167 420.5,335.5C 427.167,335.5 433.833,335.5 440.5,335.5C 440.334,328.825 440.5,322.158 441,315.5C 442.167,313.667 443.667,312.167 445.5,311C 458.5,310.333 471.5,310.333 484.5,311C 501.282,316.403 509.949,327.903 510.5,345.5C 510.005,363.658 501.005,375.158 483.5,380C 470.833,380.667 458.167,380.667 445.5,380C 443.667,378.833 442.167,377.333 441,375.5C 440.5,368.842 440.334,362.175 440.5,355.5C 433.833,355.5 427.167,355.5 420.5,355.5C 420.667,396.835 420.5,438.168 420,479.5C 415.833,495.667 405.667,505.833 389.5,510C 300.167,510.667 210.833,510.667 121.5,510C 105.333,505.833 95.1667,495.667 91,479.5C 90.5,438.168 90.3333,396.835 90.5,355.5C 83.8333,355.5 77.1667,355.5 70.5,355.5C 70.6663,362.175 70.4996,368.842 70,375.5C 68.8333,377.333 67.3333,378.833 65.5,380C 52.8333,380.667 40.1667,380.667 27.5,380C 9.99545,375.158 0.995449,363.658 0.5,345.5C 1.05085,327.903 9.71752,316.403 26.5,311C 39.5,310.333 52.5,310.333 65.5,311C 67.3333,312.167 68.8333,313.667 70,315.5C 70.4996,322.158 70.6663,328.825 70.5,335.5C 77.1667,335.5 83.8333,335.5 90.5,335.5C 90.5,312.167 90.5,288.833 90.5,265.5C 83.8333,265.5 77.1667,265.5 70.5,265.5C 70.6663,272.175 70.4996,278.842 70,285.5C 68.8333,287.333 67.3333,288.833 65.5,290C 52.8333,290.667 40.1667,290.667 27.5,290C 9.99545,285.158 0.995449,273.658 0.5,255.5C 1.05085,237.903 9.71752,226.403 26.5,221C 39.5,220.333 52.5,220.333 65.5,221C 67.3333,222.167 68.8333,223.667 70,225.5C 70.4996,232.158 70.6663,238.825 70.5,245.5C 77.1667,245.5 83.8333,245.5 90.5,245.5C 90.5,222.167 90.5,198.833 90.5,175.5C 83.8333,175.5 77.1667,175.5 70.5,175.5C 70.6663,182.175 70.4996,188.842 70,195.5C 68.8333,197.333 67.3333,198.833 65.5,200C 52.8333,200.667 40.1667,200.667 27.5,200C 9.99545,195.158 0.995449,183.658 0.5,165.5C 1.05085,147.903 9.71752,136.403 26.5,131C 39.5,130.333 52.5,130.333 65.5,131C 67.3333,132.167 68.8333,133.667 70,135.5C 70.4996,142.158 70.6663,148.825 70.5,155.5C 77.1667,155.5 83.8333,155.5 90.5,155.5C 90.3333,114.165 90.5,72.832 91,31.5C 95.3489,15.3186 105.516,4.98523 121.5,0.5 Z"/></g>
<g><path style="opacity:1" fill="#fefefe" d="M 125.5,20.5 C 212.167,20.3333 298.834,20.5 385.5,21C 393,23.1667 397.833,28 400,35.5C 400.667,182.167 400.667,328.833 400,475.5C 397.833,483 393,487.833 385.5,490C 298.833,490.667 212.167,490.667 125.5,490C 118,487.833 113.167,483 111,475.5C 110.333,328.833 110.333,182.167 111,35.5C 113.351,27.9841 118.184,22.9841 125.5,20.5 Z"/></g>
<g><path style="opacity:1" fill="#4269a7" d="M 136.5,40.5 C 215.167,40.3333 293.834,40.5 372.5,41C 376.02,41.504 378.52,43.3374 380,46.5C 380.667,185.167 380.667,323.833 380,462.5C 379.5,467 377,469.5 372.5,470C 293.833,470.667 215.167,470.667 136.5,470C 133.337,468.52 131.504,466.02 131,462.5C 130.333,323.833 130.333,185.167 131,46.5C 132.36,43.9774 134.193,41.9774 136.5,40.5 Z"/></g>
<g><path style="opacity:1" fill="#fefefe" d="M 150.5,60.5 C 157.167,60.5 163.833,60.5 170.5,60.5C 168.016,85.7357 178.683,102.236 202.5,110C 236.833,110.667 271.167,110.667 305.5,110C 325,106.5 336.5,95 340,75.5C 340.499,70.5111 340.666,65.5111 340.5,60.5C 347.167,60.5 353.833,60.5 360.5,60.5C 360.5,92.1667 360.5,123.833 360.5,155.5C 353.137,155.831 345.803,155.497 338.5,154.5C 330.518,138.678 317.851,132.844 300.5,137C 292.031,140.302 286.031,146.136 282.5,154.5C 264.5,155.833 246.5,155.833 228.5,154.5C 220.518,138.678 207.851,132.844 190.5,137C 182.031,140.302 176.031,146.136 172.5,154.5C 165.197,155.497 157.863,155.831 150.5,155.5C 150.5,123.833 150.5,92.1667 150.5,60.5 Z"/></g>
<g><path style="opacity:1" fill="#9cc9fb" d="M 190.5,60.5 C 233.833,60.5 277.167,60.5 320.5,60.5C 322.854,71.9217 319.521,81.0883 310.5,88C 308.754,88.4709 307.087,89.1376 305.5,90C 288.833,90.1667 272.167,90.3333 255.5,90.5C 237.77,90.6469 220.103,90.1469 202.5,89C 196.508,86.3413 192.675,81.8413 191,75.5C 190.501,70.5111 190.334,65.5111 190.5,60.5 Z"/></g>
<g><path style="opacity:1" fill="#9cc9fb" d="M 31.5,150.5 C 37.8333,150.5 44.1667,150.5 50.5,150.5C 50.5,160.5 50.5,170.5 50.5,180.5C 44.1579,180.666 37.8246,180.5 31.5,180C 23.2395,176.656 19.7395,170.489 21,161.5C 22.6844,155.984 26.1844,152.318 31.5,150.5 Z"/></g>
<g><path style="opacity:1" fill="#9cc9fb" d="M 460.5,150.5 C 467.589,150.116 474.589,150.616 481.5,152C 489.687,156.219 492.187,162.719 489,171.5C 487.412,176.052 484.245,178.885 479.5,180C 473.175,180.5 466.842,180.666 460.5,180.5C 460.5,170.5 460.5,160.5 460.5,150.5 Z"/></g>
<g><path style="opacity:1" fill="#f8f9fc" d="M 196.5,155.5 C 208.854,155.559 212.687,161.225 208,172.5C 200.682,177.511 195.016,176.178 191,168.5C 189.831,162.853 191.665,158.519 196.5,155.5 Z"/></g>
<g><path style="opacity:1" fill="#f8f9fc" d="M 306.5,155.5 C 318.854,155.559 322.687,161.225 318,172.5C 310.682,177.511 305.016,176.178 301,168.5C 299.831,162.853 301.665,158.519 306.5,155.5 Z"/></g>
<g><path style="opacity:1" fill="#fefefe" d="M 150.5,175.5 C 157.863,175.169 165.197,175.503 172.5,176.5C 182.512,195.226 197.179,200.059 216.5,191C 222.138,187.528 226.138,182.695 228.5,176.5C 246.5,175.167 264.5,175.167 282.5,176.5C 292.512,195.226 307.179,200.059 326.5,191C 332.138,187.528 336.138,182.695 338.5,176.5C 345.803,175.503 353.137,175.169 360.5,175.5C 360.5,198.833 360.5,222.167 360.5,245.5C 353.137,245.831 345.803,245.497 338.5,244.5C 330.518,228.678 317.851,222.844 300.5,227C 292.031,230.302 286.031,236.136 282.5,244.5C 264.5,245.833 246.5,245.833 228.5,244.5C 220.518,228.678 207.851,222.844 190.5,227C 182.031,230.302 176.031,236.136 172.5,244.5C 165.197,245.497 157.863,245.831 150.5,245.5C 150.5,222.167 150.5,198.833 150.5,175.5 Z"/></g>
<g><path style="opacity:1" fill="#9cc9fb" d="M 31.5,240.5 C 37.8333,240.5 44.1667,240.5 50.5,240.5C 50.5,250.5 50.5,260.5 50.5,270.5C 44.1579,270.666 37.8246,270.5 31.5,270C 23.2395,266.656 19.7395,260.489 21,251.5C 22.6844,245.984 26.1844,242.318 31.5,240.5 Z"/></g>
<g><path style="opacity:1" fill="#9cc9fb" d="M 460.5,240.5 C 467.589,240.116 474.589,240.616 481.5,242C 489.687,246.219 492.187,252.719 489,261.5C 487.412,266.052 484.245,268.885 479.5,270C 473.175,270.5 466.842,270.666 460.5,270.5C 460.5,260.5 460.5,250.5 460.5,240.5 Z"/></g>
<g><path style="opacity:1" fill="#f8f9fc" d="M 196.5,245.5 C 208.854,245.559 212.687,251.225 208,262.5C 200.682,267.511 195.016,266.178 191,258.5C 189.831,252.853 191.665,248.519 196.5,245.5 Z"/></g>
<g><path style="opacity:1" fill="#f8f9fc" d="M 306.5,245.5 C 318.854,245.559 322.687,251.225 318,262.5C 310.682,267.511 305.016,266.178 301,258.5C 299.831,252.853 301.665,248.519 306.5,245.5 Z"/></g>
<g><path style="opacity:1" fill="#fefefe" d="M 150.5,265.5 C 157.863,265.169 165.197,265.503 172.5,266.5C 182.512,285.226 197.179,290.059 216.5,281C 222.138,277.528 226.138,272.695 228.5,266.5C 246.5,265.167 264.5,265.167 282.5,266.5C 292.512,285.226 307.179,290.059 326.5,281C 332.138,277.528 336.138,272.695 338.5,266.5C 345.803,265.503 353.137,265.169 360.5,265.5C 360.5,288.833 360.5,312.167 360.5,335.5C 353.137,335.831 345.803,335.497 338.5,334.5C 330.518,318.678 317.851,312.844 300.5,317C 292.031,320.302 286.031,326.136 282.5,334.5C 264.5,335.833 246.5,335.833 228.5,334.5C 220.518,318.678 207.851,312.844 190.5,317C 182.031,320.302 176.031,326.136 172.5,334.5C 165.197,335.497 157.863,335.831 150.5,335.5C 150.5,312.167 150.5,288.833 150.5,265.5 Z"/></g>
<g><path style="opacity:1" fill="#9cc9fb" d="M 31.5,330.5 C 37.8333,330.5 44.1667,330.5 50.5,330.5C 50.5,340.5 50.5,350.5 50.5,360.5C 44.1579,360.666 37.8246,360.5 31.5,360C 23.2395,356.656 19.7395,350.489 21,341.5C 22.6844,335.984 26.1844,332.318 31.5,330.5 Z"/></g>
<g><path style="opacity:1" fill="#9cc9fb" d="M 460.5,330.5 C 467.589,330.116 474.589,330.616 481.5,332C 489.687,336.219 492.187,342.719 489,351.5C 487.412,356.052 484.245,358.885 479.5,360C 473.175,360.5 466.842,360.666 460.5,360.5C 460.5,350.5 460.5,340.5 460.5,330.5 Z"/></g>
<g><path style="opacity:1" fill="#f8f9fc" d="M 196.5,335.5 C 208.854,335.559 212.687,341.225 208,352.5C 200.682,357.511 195.016,356.178 191,348.5C 189.831,342.853 191.665,338.519 196.5,335.5 Z"/></g>
<g><path style="opacity:1" fill="#f8f9fc" d="M 306.5,335.5 C 318.854,335.559 322.687,341.225 318,352.5C 310.682,357.511 305.016,356.178 301,348.5C 299.831,342.853 301.665,338.519 306.5,335.5 Z"/></g>
<g><path style="opacity:1" fill="#fefefe" d="M 150.5,355.5 C 157.863,355.169 165.197,355.503 172.5,356.5C 182.512,375.226 197.179,380.059 216.5,371C 222.138,367.528 226.138,362.695 228.5,356.5C 246.5,355.167 264.5,355.167 282.5,356.5C 292.512,375.226 307.179,380.059 326.5,371C 332.138,367.528 336.138,362.695 338.5,356.5C 345.803,355.503 353.137,355.169 360.5,355.5C 360.5,387.167 360.5,418.833 360.5,450.5C 353.833,450.5 347.167,450.5 340.5,450.5C 342.879,432.436 336.879,417.936 322.5,407C 317.184,404.006 311.518,402.006 305.5,401C 271.167,400.333 236.833,400.333 202.5,401C 178.659,408.825 167.992,425.325 170.5,450.5C 163.833,450.5 157.167,450.5 150.5,450.5C 150.5,418.833 150.5,387.167 150.5,355.5 Z"/></g>
<g><path style="opacity:1" fill="#9cc9fb" d="M 205.5,420.5 C 238.835,420.333 272.168,420.5 305.5,421C 318.497,426.49 323.497,436.323 320.5,450.5C 277.167,450.5 233.833,450.5 190.5,450.5C 187.633,436.231 192.633,426.231 205.5,420.5 Z"/></g>
</svg>
