<?xml version="1.0" standalone="no"?>
<!DOCTYPE svg PUBLIC "-//W3C//DTD SVG 20010904//EN"
 "http://www.w3.org/TR/2001/REC-SVG-20010904/DTD/svg10.dtd">
<svg version="1.0" xmlns="http://www.w3.org/2000/svg"
 width="552.000000pt" height="469.000000pt" viewBox="0 0 552.000000 469.000000"
 preserveAspectRatio="xMidYMid meet">

<g transform="translate(0.000000,469.000000) scale(0.100000,-0.100000)"
fill="#000000" stroke="none">
<path d="M320 4629 c-146 -29 -272 -159 -300 -311 -7 -36 -10 -339 -8 -859 3
-920 -6 -828 103 -993 96 -146 311 -349 598 -565 93 -69 114 -81 148 -81 52 0
89 35 89 82 0 18 -11 89 -25 158 -13 69 -25 138 -25 153 0 43 28 94 65 117 31
19 48 20 544 20 l511 0 0 93 c0 61 7 121 20 172 11 43 20 81 20 84 0 4 -37 12
-82 18 -96 13 -183 40 -285 89 l-73 35 -52 -27 c-128 -65 -297 -104 -448 -104
-74 0 -92 3 -121 23 -46 30 -71 81 -65 131 10 81 71 126 172 126 84 0 259 35
283 56 3 2 -5 14 -17 27 -82 88 -199 332 -187 391 15 69 71 116 140 116 71 0
98 -27 159 -152 29 -63 73 -138 97 -168 l42 -54 29 34 c59 72 148 291 148 367
l0 23 -377 0 c-422 0 -425 0 -470 69 -41 62 -22 152 42 191 30 18 49 20 254
20 l221 0 0 126 c0 95 4 134 16 160 47 98 201 98 248 0 12 -26 16 -65 16 -160
l0 -126 223 0 c203 0 225 -2 254 -20 46 -27 66 -73 61 -132 -8 -77 -70 -128
-157 -128 -39 0 -39 0 -45 -47 -22 -154 -90 -334 -179 -471 l-45 -70 26 -11
c51 -20 157 -41 214 -41 32 0 75 -7 96 -15 l38 -16 80 54 c46 31 114 65 164
82 l85 29 318 4 318 4 -3 607 -3 606 -32 65 c-35 71 -96 139 -158 175 -96 57
-52 55 -1400 54 -682 -1 -1260 -5 -1285 -10z"/>
<path d="M2590 2834 c-114 -31 -202 -105 -254 -214 l-31 -65 0 -850 0 -850 33
-67 c57 -116 158 -195 281 -218 34 -6 392 -10 969 -10 900 0 915 0 947 -20 37
-23 65 -74 65 -117 0 -15 -12 -84 -25 -153 -14 -69 -25 -139 -25 -155 0 -41
23 -71 65 -85 32 -10 40 -9 78 14 111 66 443 342 560 466 88 93 139 165 195
279 l37 75 3 804 c2 528 -1 823 -8 860 -23 126 -121 247 -237 294 l-58 23
-1270 2 c-1095 2 -1278 0 -1325 -13z m1400 -429 c23 -22 85 -169 281 -657 228
-572 251 -634 246 -674 -11 -99 -121 -155 -204 -104 -42 25 -44 28 -121 220
l-67 165 -226 3 -227 2 -68 -172 c-73 -181 -99 -221 -155 -233 -89 -20 -179
49 -179 136 0 38 500 1270 528 1303 47 53 143 58 192 11z"/>
<path d="M3890 1909 c0 -3 -25 -64 -55 -137 l-54 -132 114 0 113 0 -50 128
c-44 110 -68 159 -68 141z"/>
</g>
</svg>
