<?xml version="1.0" standalone="no"?>
<!DOCTYPE svg PUBLIC "-//W3C//DTD SVG 20010904//EN"
 "http://www.w3.org/TR/2001/REC-SVG-20010904/DTD/svg10.dtd">
<svg version="1.0" xmlns="http://www.w3.org/2000/svg"
 width="512.000000pt" height="512.000000pt" viewBox="0 0 512.000000 512.000000"
 preserveAspectRatio="xMidYMid meet">

<g transform="translate(0.000000,512.000000) scale(0.100000,-0.100000)"
fill="#000000" stroke="none">
<path d="M1405 4309 c-302 -31 -589 -231 -725 -504 -62 -125 -626 -1719 -649
-1834 -63 -315 -13 -612 150 -898 95 -166 194 -240 352 -263 124 -18 283 35
363 122 22 24 163 216 314 428 151 211 298 407 325 435 59 60 126 94 210 106
78 11 1552 11 1630 0 73 -11 139 -40 192 -86 33 -28 333 -437 565 -770 65 -92
137 -164 197 -194 146 -75 322 -62 457 34 137 97 280 388 318 646 25 171 19
316 -20 484 -17 70 -567 1621 -619 1745 -96 229 -310 426 -552 509 -151 51
-153 51 -1332 50 -603 -1 -1132 -5 -1176 -10z m130 -374 c24 -23 25 -30 25
-139 l0 -114 119 -4 c164 -4 161 -1 161 -175 0 -176 3 -173 -160 -173 l-120 0
0 -120 c0 -163 4 -160 -174 -160 -133 0 -135 0 -155 26 -18 23 -21 41 -21 140
l0 114 -115 0 c-111 0 -117 1 -141 25 -25 25 -26 28 -22 155 4 168 0 164 158
169 l120 3 0 103 c0 116 9 151 42 165 13 5 76 9 141 9 112 1 119 0 142 -24z
m2250 -41 c82 -39 94 -149 24 -208 -24 -20 -42 -26 -80 -26 -93 0 -151 87
-116 173 29 67 103 94 172 61z m-1130 -93 c103 -47 155 -159 126 -269 -15 -53
-73 -119 -126 -143 -47 -22 -133 -24 -178 -6 -88 37 -140 117 -140 212 0 94
52 173 138 211 44 19 133 17 180 -5z m882 -215 c28 -31 33 -43 33 -87 0 -45
-4 -55 -34 -85 -30 -30 -40 -34 -86 -34 -46 0 -56 4 -85 33 -44 44 -54 94 -28
143 42 81 140 96 200 30z m270 -267 c61 -57 63 -142 3 -192 -43 -37 -81 -42
-133 -19 -68 30 -92 96 -63 167 31 74 135 97 193 44z m-1715 -445 c64 -21 131
-83 165 -152 23 -47 28 -70 28 -132 -1 -124 -62 -223 -173 -277 -47 -23 -70
-28 -132 -28 -123 1 -216 59 -270 169 -70 142 -22 317 107 393 92 54 171 62
275 27z m1185 -15 c70 -33 106 -71 139 -144 33 -74 38 -124 20 -196 -51 -195
-252 -290 -433 -203 -205 98 -229 388 -42 521 96 68 205 76 316 22z"/>
</g>
</svg>
