<?xml version="1.0" encoding="UTF-8"?>
<!DOCTYPE svg PUBLIC "-//W3C//DTD SVG 1.1//EN" "http://www.w3.org/Graphics/SVG/1.1/DTD/svg11.dtd">
<svg xmlns="http://www.w3.org/2000/svg" version="1.1" width="512px" height="512px" style="shape-rendering:geometricPrecision; text-rendering:geometricPrecision; image-rendering:optimizeQuality; fill-rule:evenodd; clip-rule:evenodd" xmlns:xlink="http://www.w3.org/1999/xlink">
<g><path style="opacity:0.998" fill="#407093" d="M 282.5,79.5 C 317.517,84.1857 343.183,102.186 359.5,133.5C 359.94,136.38 360.94,139.046 362.5,141.5C 366.899,153.029 370.899,164.696 374.5,176.5C 363.928,176.649 359.094,181.983 360,192.5C 363.243,200.538 369.077,203.371 377.5,201C 379.323,200.003 380.99,198.836 382.5,197.5C 393.65,228.475 404.817,259.475 416,290.5C 426.561,317.632 428.228,345.299 421,373.5C 417.424,383.642 413.591,393.642 409.5,403.5C 392.53,380.348 375.696,357.015 359,333.5C 352.431,327.132 344.597,323.299 335.5,322C 282.167,321.333 228.833,321.333 175.5,322C 166.403,323.299 158.569,327.132 152,333.5C 132.421,360.324 113.088,387.324 94,414.5C 77.4484,432.719 57.9484,436.553 35.5,426C 23.6447,416.161 14.8114,403.995 9,389.5C 4.5592,378.389 1.39253,367.056 -0.5,355.5C -0.5,344.833 -0.5,334.167 -0.5,323.5C 1.18594,313.761 3.68594,304.094 7,294.5C 26,241.5 45,188.5 64,135.5C 78.7155,104.127 103.216,85.6265 137.5,80C 185.832,79.5 234.166,79.3333 282.5,79.5 Z"/></g>
<g><path style="opacity:1" fill="#2b4d66" d="M 282.5,79.5 C 312.835,79.3334 343.168,79.5 373.5,80C 409.677,86.4962 434.844,106.663 449,140.5C 467.136,191.909 485.47,243.243 504,294.5C 507.314,304.094 509.814,313.761 511.5,323.5C 511.5,334.167 511.5,344.833 511.5,355.5C 508.159,376.864 500.326,396.531 488,414.5C 473.03,431.451 454.864,435.951 433.5,428C 423.287,421.954 415.287,413.787 409.5,403.5C 413.591,393.642 417.424,383.642 421,373.5C 428.228,345.299 426.561,317.632 416,290.5C 404.817,259.475 393.65,228.475 382.5,197.5C 387.222,187.62 384.556,180.62 374.5,176.5C 370.899,164.696 366.899,153.029 362.5,141.5C 368.052,146.207 374.052,146.707 380.5,143C 382.049,141.786 383.215,140.286 384,138.5C 386.094,126.171 380.927,120.338 368.5,121C 363.17,123.496 360.17,127.663 359.5,133.5C 343.183,102.186 317.517,84.1857 282.5,79.5 Z"/></g>
<g><path style="opacity:1" fill="#d8e6ee" d="M 169.5,144.5 C 169.91,150.621 169.41,156.621 168,162.5C 167.25,163.126 166.416,163.626 165.5,164C 158.833,164.333 152.167,164.667 145.5,165C 144.333,166.167 143.167,167.333 142,168.5C 141.93,175.939 141.263,183.272 140,190.5C 139.5,191 139,191.5 138.5,192C 132.843,192.499 127.176,192.666 121.5,192.5C 121.8,187.901 121.467,183.401 120.5,179C 112.833,178.667 105.167,178.333 97.5,178C 96.5838,177.626 95.7504,177.126 95,176.5C 93.3866,166.934 93.0532,157.267 94,147.5C 94.8333,146.667 95.6667,145.833 96.5,145C 104.5,144.667 112.5,144.333 120.5,144C 121.317,135.912 121.817,127.745 122,119.5C 122.833,118.667 123.667,117.833 124.5,117C 134.267,116.053 143.934,116.387 153.5,118C 154.126,118.75 154.626,119.584 155,120.5C 155.333,128.167 155.667,135.833 156,143.5C 160.401,144.467 164.901,144.8 169.5,144.5 Z"/></g>
<g><path style="opacity:1" fill="#f0de66" d="M 362.5,141.5 C 360.94,139.046 359.94,136.38 359.5,133.5C 360.17,127.663 363.17,123.496 368.5,121C 380.927,120.338 386.094,126.171 384,138.5C 383.215,140.286 382.049,141.786 380.5,143C 374.052,146.707 368.052,146.207 362.5,141.5 Z"/></g>
<g><path style="opacity:1" fill="#d8e5ee" d="M 265.5,131.5 C 268.095,152.735 258.762,162.902 237.5,162C 236.756,160.961 235.756,160.461 234.5,160.5C 230.581,145.838 235.581,135.671 249.5,130C 254.983,129.15 260.317,129.65 265.5,131.5 Z"/></g>
<g><path style="opacity:1" fill="#bfd4e3" d="M 265.5,131.5 C 278.868,140.118 281.702,151.451 274,165.5C 264.398,175.556 253.564,177.056 241.5,170C 238.547,167.248 236.214,164.082 234.5,160.5C 235.756,160.461 236.756,160.961 237.5,162C 258.762,162.902 268.095,152.735 265.5,131.5 Z"/></g>
<g><path style="opacity:1" fill="#c0d4e3" d="M 169.5,144.5 C 173.182,144.335 176.848,144.501 180.5,145C 181.701,145.903 182.535,147.069 183,148.5C 183.667,157.167 183.667,165.833 183,174.5C 181.786,176.049 180.286,177.215 178.5,178C 170.841,178.5 163.174,178.666 155.5,178.5C 155.666,186.174 155.5,193.841 155,201.5C 154.215,203.286 153.049,204.786 151.5,206C 142.833,206.667 134.167,206.667 125.5,206C 124.069,205.535 122.903,204.701 122,203.5C 121.501,199.848 121.335,196.182 121.5,192.5C 127.176,192.666 132.843,192.499 138.5,192C 139,191.5 139.5,191 140,190.5C 141.263,183.272 141.93,175.939 142,168.5C 143.167,167.333 144.333,166.167 145.5,165C 152.167,164.667 158.833,164.333 165.5,164C 166.416,163.626 167.25,163.126 168,162.5C 169.41,156.621 169.91,150.621 169.5,144.5 Z"/></g>
<g><path style="opacity:1" fill="#60a0f6" d="M 340.5,148.5 C 352.684,148.514 357.85,154.514 356,166.5C 351.422,173.426 345.255,175.259 337.5,172C 328.83,162.859 329.83,155.026 340.5,148.5 Z"/></g>
<g><path style="opacity:1" fill="#d9568f" d="M 396.5,148.5 C 408.684,148.514 413.85,154.514 412,166.5C 408.235,172.76 402.735,174.927 395.5,173C 384.734,164.413 385.068,156.247 396.5,148.5 Z"/></g>
<g><path style="opacity:1" fill="#84eda6" d="M 374.5,176.5 C 384.556,180.62 387.222,187.62 382.5,197.5C 380.99,198.836 379.323,200.003 377.5,201C 369.077,203.371 363.243,200.538 360,192.5C 359.094,181.983 363.928,176.649 374.5,176.5 Z"/></g>
<g><path style="opacity:1" fill="#db5890" d="M 188.5,207.5 C 226.212,206.71 244.046,225.044 242,262.5C 233.307,288.772 215.141,300.272 187.5,297C 161.867,288.353 150.367,270.52 153,243.5C 158.349,224.985 170.183,212.985 188.5,207.5 Z"/></g>
<g><path style="opacity:1" fill="#db5890" d="M 305.5,207.5 C 332.547,205.761 350.047,217.761 358,243.5C 360.53,270.956 348.697,288.789 322.5,297C 294.688,300.021 276.855,288.188 269,261.5C 266.511,233.453 278.677,215.453 305.5,207.5 Z"/></g>
<g><path style="opacity:1" fill="#d9e5ee" d="M 208.5,224.5 C 206.64,248.694 193.64,261.361 169.5,262.5C 164.734,243.204 171.734,230.037 190.5,223C 196.681,222.036 202.681,222.536 208.5,224.5 Z"/></g>
<g><path style="opacity:1" fill="#d9e5ee" d="M 323.5,224.5 C 323.47,242.403 315.137,254.57 298.5,261C 294.246,262.314 289.913,263.147 285.5,263.5C 279.904,243.527 286.904,230.027 306.5,223C 311.167,222.333 315.833,222.333 320.5,223C 321.737,223.232 322.737,223.732 323.5,224.5 Z"/></g>
<g><path style="opacity:1" fill="#c1d4e3" d="M 208.5,224.5 C 227.817,234.621 232.65,249.621 223,269.5C 214.465,280.349 203.299,284.516 189.5,282C 179.682,278.681 173.015,272.181 169.5,262.5C 193.64,261.361 206.64,248.694 208.5,224.5 Z"/></g>
<g><path style="opacity:1" fill="#c1d4e3" d="M 323.5,224.5 C 333.611,228.112 340.111,235.112 343,245.5C 345.352,264.308 337.519,276.475 319.5,282C 303.344,284.426 292.01,278.259 285.5,263.5C 289.913,263.147 294.246,262.314 298.5,261C 315.137,254.57 323.47,242.403 323.5,224.5 Z"/></g>
</svg>
