<?xml version="1.0" standalone="no"?>
<!DOCTYPE svg PUBLIC "-//W3C//DTD SVG 20010904//EN"
 "http://www.w3.org/TR/2001/REC-SVG-20010904/DTD/svg10.dtd">
<svg version="1.0" xmlns="http://www.w3.org/2000/svg"
 width="714.000000pt" height="486.000000pt" viewBox="0 0 714.000000 486.000000"
 preserveAspectRatio="xMidYMid meet">

<g transform="translate(0.000000,486.000000) scale(0.100000,-0.100000)"
fill="#000000" stroke="none">
<path d="M975 4645 c-241 -37 -245 -38 -420 -153 -113 -74 -258 -212 -297
-284 -60 -108 -71 -154 -72 -288 0 -128 7 -176 50 -309 34 -108 66 -151 154
-210 136 -92 260 -122 510 -124 183 -2 215 3 414 65 327 103 513 248 591 463
30 84 42 232 27 348 -9 72 -15 86 -73 173 -76 116 -157 199 -224 230 -199 92
-433 124 -660 89z m310 -59 c179 -27 332 -94 425 -186 116 -114 164 -249 158
-439 -3 -105 -6 -122 -34 -181 -108 -228 -394 -395 -771 -450 -265 -38 -560
39 -687 181 -139 154 -167 425 -66 625 121 238 380 406 695 448 131 18 172 18
280 2z"/>
<path d="M3892 4598 c-26 -29 -50 -85 -91 -213 -58 -182 -91 -254 -122 -270
-15 -8 -40 -15 -54 -15 -14 0 -33 -4 -43 -9 -9 -4 -39 -20 -67 -33 -41 -21
-51 -30 -53 -55 -5 -47 18 -59 87 -45 86 18 81 22 81 -77 0 -133 29 -190 78
-155 26 18 28 40 7 81 -12 24 -13 41 -5 84 22 113 43 132 178 160 74 16 87 27
71 62 -16 36 -50 51 -99 43 -55 -9 -58 5 -25 96 14 40 34 96 43 123 9 28 29
71 44 98 33 57 42 89 34 122 -8 31 -35 33 -64 3z"/>
<path d="M2197 4353 c-31 -83 -85 -248 -108 -330 -5 -18 -13 -48 -18 -65 -29
-102 -60 -228 -66 -264 -5 -32 -2 -45 11 -58 27 -27 33 -22 81 72 1 2 15 -6
32 -19 25 -18 38 -21 80 -16 91 11 193 84 225 162 19 44 21 133 4 172 -34 80
-78 91 -173 43 -33 -16 -64 -30 -69 -30 -9 0 -4 31 13 93 13 43 27 91 42 145
27 96 30 125 12 144 -27 30 -39 21 -66 -49z m167 -395 c26 -37 20 -74 -19
-117 -39 -43 -90 -71 -127 -71 -28 0 -68 30 -68 51 0 18 93 115 134 140 41 25
61 24 80 -3z"/>
<path d="M2647 4362 c-10 -10 -17 -29 -17 -41 0 -26 26 -68 51 -82 27 -14 66
-1 73 24 8 30 -22 85 -55 102 -35 19 -33 19 -52 -3z"/>
<path d="M3340 4197 c-57 -27 -133 -105 -165 -168 -21 -40 -25 -62 -24 -126 1
-88 16 -125 67 -159 92 -63 262 -23 262 60 0 13 -15 16 -89 16 -190 0 -218 61
-90 203 47 52 105 91 121 81 4 -3 8 -15 8 -28 0 -34 11 -39 37 -14 37 34 28
111 -16 145 -23 18 -60 15 -111 -10z"/>
<path d="M3010 4203 c-125 -19 -261 -111 -320 -218 -39 -70 -30 -175 20 -239
61 -76 277 -88 343 -18 20 21 20 25 7 49 -25 44 -43 49 -97 30 -49 -17 -133
-22 -167 -8 -17 7 -17 8 5 22 13 9 62 31 109 49 47 19 101 44 121 57 71 47 99
144 64 226 -12 30 -44 61 -57 56 -2 -1 -14 -3 -28 -6z m20 -121 c0 -28 -70
-90 -145 -128 -115 -57 -123 -46 -32 43 81 81 177 127 177 85z"/>
<path d="M2535 4078 c-3 -7 -11 -44 -19 -83 -19 -91 -43 -180 -62 -230 -73
-182 -104 -280 -104 -331 0 -48 19 -69 53 -60 39 9 84 117 177 426 17 58 36
118 41 134 15 49 10 87 -17 123 -25 33 -61 44 -69 21z"/>
<path d="M4057 3108 c-28 -39 -42 -74 -104 -257 -66 -198 -88 -231 -161 -231
-15 0 -56 -15 -92 -33 -61 -31 -65 -35 -68 -70 -3 -32 0 -37 23 -43 14 -3 45
-1 70 5 75 19 72 22 77 -91 6 -113 11 -134 39 -148 13 -8 24 -5 44 12 l26 23
-21 43 c-21 42 -21 45 -5 110 26 106 27 106 161 141 23 6 51 11 63 11 21 0 25
8 21 45 -4 42 -31 57 -88 53 -36 -3 -55 -1 -58 7 -3 7 4 39 16 71 12 33 32 91
46 131 13 39 38 94 55 121 23 38 30 59 27 88 -4 53 -36 59 -71 12z"/>
<path d="M1045 3080 c-44 -5 -109 -13 -145 -19 -163 -27 -152 -23 -298 -110
-197 -116 -338 -268 -393 -421 -19 -55 -23 -84 -22 -190 0 -198 55 -380 140
-462 84 -81 222 -140 391 -167 92 -14 332 -14 386 0 22 6 57 14 76 19 47 12
230 68 255 79 262 111 398 234 471 426 25 64 27 82 28 225 1 114 -3 164 -13
190 -26 63 -127 204 -187 261 -62 59 -113 87 -226 123 -136 44 -310 61 -463
46z m5 -240 c0 -5 9 -10 20 -10 11 0 20 5 20 10 0 6 7 10 15 10 8 0 15 -5 15
-11 0 -7 14 -8 40 -4 25 4 40 3 40 -3 0 -6 -12 -13 -27 -15 -20 -3 -16 -4 14
-6 23 0 45 -6 49 -12 3 -6 21 -9 39 -7 19 2 31 0 29 -4 -7 -10 64 -80 75 -74
4 3 6 -7 3 -22 -5 -24 -4 -26 11 -13 15 12 17 11 17 -3 0 -9 4 -16 9 -16 4 0
26 -34 47 -76 39 -76 39 -78 39 -195 0 -81 -4 -122 -13 -131 -6 -6 -12 -20
-12 -30 0 -16 -31 -68 -87 -146 -9 -12 -31 -30 -50 -38 -18 -9 -33 -20 -33
-25 0 -5 -6 -9 -14 -9 -8 0 -16 -5 -18 -11 -9 -27 -104 -48 -240 -52 -64 -2
-78 -5 -82 -19 -3 -14 -15 -18 -49 -18 -34 0 -57 9 -103 38 -116 75 -164 162
-164 297 0 53 -4 85 -10 85 -7 0 -10 19 -9 45 2 24 0 48 -4 51 -4 4 -2 13 4
20 5 7 11 32 12 56 1 23 7 49 14 55 6 7 25 37 42 65 53 94 151 168 266 202 33
10 65 19 70 21 19 6 25 5 25 -5z m-427 -535 c4 -8 2 -17 -3 -20 -6 -4 -10 3
-10 14 0 25 6 27 13 6z"/>
<path d="M5103 2983 c-17 -32 -49 -107 -73 -168 -24 -60 -51 -121 -60 -135 -8
-14 -22 -38 -30 -55 -44 -92 -100 -156 -185 -210 -67 -43 -85 -45 -85 -6 0 42
37 106 101 172 54 56 60 59 104 59 46 0 47 0 41 28 -9 34 -53 72 -87 72 -96 0
-239 -197 -239 -329 0 -56 3 -63 38 -101 67 -69 111 -53 258 91 l80 80 18 -38
c23 -50 46 -77 87 -102 43 -27 72 -26 120 1 33 18 39 27 39 54 0 39 -11 44
-78 33 -66 -10 -78 -5 -91 33 -28 78 -8 172 79 387 52 129 58 159 38 179 -25
25 -45 12 -75 -45z"/>
<path d="M2622 2875 c-17 -38 -15 -92 4 -99 63 -24 88 25 51 102 -14 29 -41
28 -55 -3z"/>
<path d="M4485 2783 c-146 -14 -309 -143 -344 -275 -47 -171 141 -299 333
-227 64 23 75 45 49 89 -20 34 -38 37 -98 15 -59 -21 -175 -18 -175 5 0 4 48
27 108 51 59 23 126 55 148 70 72 49 95 131 61 221 -18 48 -31 55 -82 51z m15
-118 c0 -29 -72 -94 -143 -129 -115 -57 -125 -48 -42 35 84 83 185 134 185 94z"/>
<path d="M2960 2709 c-92 -25 -218 -114 -264 -188 -13 -20 -29 -59 -36 -87
-23 -89 19 -173 110 -220 69 -35 240 -17 279 29 16 20 4 64 -22 82 -17 12 -26
11 -71 -6 -73 -27 -176 -25 -176 5 0 6 45 28 99 50 168 65 221 114 221 202 0
125 -37 160 -140 133z m47 -143 c-9 -14 -31 -37 -49 -51 -38 -29 -178 -98
-178 -87 0 21 55 83 109 122 88 64 155 73 118 16z"/>
<path d="M2335 2688 c-39 -14 -124 -70 -155 -103 -24 -26 -54 -33 -65 -15 -8
14 -45 13 -45 -1 0 -6 -5 -87 -11 -179 -12 -189 -8 -210 41 -210 32 0 33 3 49
93 12 66 32 113 75 177 67 100 147 150 242 150 54 0 75 22 48 51 -40 44 -115
59 -179 37z"/>
<path d="M3376 2669 l-59 -30 -21 20 c-12 12 -26 21 -32 20 -19 -1 -95 -101
-89 -117 3 -8 -6 -56 -21 -106 -32 -110 -36 -172 -11 -209 32 -49 50 -36 102
71 96 196 186 297 236 267 12 -8 8 -74 -11 -160 -22 -103 29 -219 61 -137 27
68 41 144 43 222 1 83 0 87 -35 135 -45 64 -78 69 -163 24z"/>
<path d="M2565 2628 c-8 -23 -32 -102 -45 -148 -7 -25 -16 -58 -21 -74 -14
-47 -11 -192 4 -205 29 -23 58 43 92 204 18 85 20 206 3 223 -15 15 -27 15
-33 0z"/>
<path d="M883 1475 c-109 -19 -145 -30 -200 -61 -191 -105 -354 -244 -422
-358 -61 -102 -74 -155 -74 -301 0 -128 11 -193 56 -325 52 -154 198 -251 453
-299 71 -13 383 -15 416 -2 13 5 48 14 78 21 65 15 222 65 265 84 162 74 221
112 307 197 53 53 87 97 111 145 54 109 62 152 61 319 0 136 -3 154 -24 195
-64 124 -188 268 -265 308 -56 28 -181 69 -267 87 -111 23 -332 18 -495 -10z
m390 -250 c79 -33 129 -140 107 -226 -23 -92 -66 -151 -154 -213 -63 -44 -184
-106 -208 -106 -12 0 -117 -36 -123 -42 -3 -3 -17 -34 -82 -178 -26 -57 -50
-90 -65 -90 -18 0 -58 53 -58 77 0 13 19 63 41 111 38 80 40 89 29 117 -7 16
-13 44 -14 60 -1 26 3 30 29 33 46 5 62 26 132 170 93 189 167 263 288 291 22
5 41 9 41 10 1 1 17 -6 37 -14z"/>
<path d="M1153 1100 c-18 -11 -47 -39 -64 -62 -40 -55 -122 -226 -114 -238 8
-12 168 70 219 112 73 60 123 161 96 193 -18 22 -98 19 -137 -5z"/>
<path d="M5843 1461 c-19 -31 -27 -90 -13 -106 15 -18 51 -20 68 -3 18 18 14
67 -9 99 -24 34 -30 35 -46 10z"/>
<path d="M6526 1283 c-44 -7 -109 -47 -133 -83 -27 -39 -31 -116 -8 -159 8
-16 38 -43 67 -61 104 -66 151 -130 164 -228 8 -66 -8 -112 -57 -156 -33 -30
-46 -36 -85 -36 -47 0 -104 29 -104 53 0 6 27 38 61 70 52 49 59 60 48 73 -31
37 -134 -13 -171 -82 -20 -38 -21 -46 -9 -85 18 -60 38 -87 82 -110 101 -51
245 1 288 103 57 138 2 318 -141 459 -85 83 -84 80 -15 118 41 23 77 27 94 10
6 -6 21 -9 34 -7 20 2 25 10 27 39 3 30 -2 41 -28 63 -31 25 -49 28 -114 19z"/>
<path d="M6166 1243 c-10 -3 -33 -13 -50 -22 -53 -30 -64 -31 -91 -9 l-27 21
-42 -48 c-30 -36 -43 -61 -47 -94 -4 -25 -12 -62 -17 -81 -44 -151 -43 -147
-21 -194 23 -49 42 -62 59 -41 6 7 35 61 65 120 86 169 156 251 208 243 19 -3
22 -9 21 -43 -1 -22 -7 -70 -14 -106 -20 -108 6 -208 45 -168 22 22 57 167 58
244 2 60 -2 76 -25 112 -42 64 -70 79 -122 66z"/>
<path d="M5255 1205 l-48 -25 -27 20 c-21 15 -30 17 -37 7 -11 -14 -38 -82
-83 -212 -17 -49 -35 -100 -41 -113 -12 -31 -12 -109 1 -133 12 -22 42 -25 58
-6 6 6 47 85 92 174 110 217 132 235 112 91 -18 -128 -16 -195 9 -229 11 -16
24 -29 28 -29 4 0 32 46 61 103 29 56 70 129 89 162 59 98 91 81 71 -37 -16
-102 -13 -161 11 -192 11 -14 27 -26 34 -26 45 0 66 328 27 423 -12 29 -47 48
-72 39 -8 -3 -41 -22 -72 -44 -32 -21 -62 -38 -67 -38 -5 0 -21 16 -35 35 -41
54 -55 58 -111 30z"/>
<path d="M5775 1198 c-2 -7 -13 -47 -25 -88 -12 -41 -26 -85 -31 -97 -13 -34
-23 -175 -15 -217 8 -39 29 -48 45 -17 46 86 91 335 71 396 -11 34 -37 47 -45
23z"/>
<path d="M4568 1172 c-45 -25 -48 -25 -67 -8 -11 10 -25 16 -31 14 -26 -8
-143 -344 -142 -406 1 -74 43 -96 81 -43 12 16 21 32 21 36 0 4 27 62 61 129
63 128 102 186 115 173 4 -4 2 -36 -4 -71 -7 -35 -12 -98 -12 -141 0 -62 4
-83 21 -106 11 -16 24 -29 28 -29 4 0 31 46 61 103 98 188 134 242 152 231 6
-4 7 -53 3 -143 l-6 -136 25 -29 c33 -37 44 -28 62 56 17 79 18 287 2 325 -15
35 -48 73 -63 73 -6 0 -44 -21 -84 -47 l-73 -46 -40 46 c-22 26 -45 47 -51 46
-7 0 -33 -13 -59 -27z"/>
<path d="M3562 1152 c-29 -15 -74 -46 -101 -69 -49 -43 -74 -52 -86 -33 -3 6
-15 10 -26 10 -15 0 -19 -7 -19 -32 0 -18 -5 -98 -10 -178 -8 -124 -7 -148 6
-168 11 -17 23 -22 42 -20 25 3 28 8 38 68 17 98 38 147 91 217 69 91 124 124
215 131 69 5 90 23 62 53 -48 54 -133 62 -212 21z"/>
<path d="M3894 1130 c-65 -37 -154 -135 -190 -208 -39 -79 -45 -169 -14 -211
32 -46 87 -43 197 10 l85 41 28 -34 c27 -32 30 -33 101 -31 84 1 141 21 165
58 15 23 15 27 0 50 -19 28 -43 31 -101 10 -48 -17 -91 -19 -100 -4 -6 9 9 64
35 124 31 72 34 94 18 128 -8 18 -28 47 -43 65 -24 28 -32 32 -78 32 -39 0
-65 -8 -103 -30z m141 -84 c15 -10 17 -17 8 -27 -6 -8 -21 -32 -33 -54 -37
-67 -83 -122 -124 -149 -47 -31 -103 -43 -119 -27 -24 24 87 190 166 248 35
26 74 29 102 9z"/>
<path d="M3118 1125 c-104 -28 -158 -85 -158 -165 0 -65 16 -88 105 -150 66
-46 85 -65 109 -113 34 -66 45 -151 26 -197 -7 -17 -31 -46 -53 -65 -32 -28
-49 -35 -81 -35 -42 0 -106 31 -106 51 0 6 25 36 55 68 63 66 70 91 26 91 -44
0 -72 -13 -113 -54 -34 -33 -38 -42 -38 -88 0 -57 29 -120 64 -136 38 -18 88
-32 118 -32 35 0 130 45 156 74 38 41 55 110 49 189 -12 134 -46 206 -149 311
-43 43 -78 84 -78 90 0 14 82 56 110 56 10 0 30 -5 44 -11 33 -15 56 2 56 41
0 19 -11 37 -35 59 -40 34 -41 35 -107 16z"/>
<path d="M2302 1092 c-29 -15 -75 -47 -103 -71 -44 -38 -54 -43 -70 -33 -10 7
-27 12 -37 12 -17 0 -20 -12 -25 -122 -14 -249 -10 -278 39 -278 30 0 37 13
45 84 14 116 113 267 206 311 21 10 64 21 95 23 90 7 103 44 29 82 -56 28
-115 26 -179 -8z"/>
<path d="M2643 1084 c-57 -27 -80 -45 -105 -82 -32 -45 -33 -50 -31 -134 3
-114 25 -189 65 -223 17 -14 38 -23 47 -21 9 3 30 8 46 12 69 16 183 123 224
209 41 88 20 182 -56 244 -50 42 -96 40 -190 -5z m171 -87 c22 -16 24 -92 5
-129 -29 -57 -138 -128 -195 -128 -22 0 -25 4 -21 23 3 12 11 51 18 87 12 54
21 72 55 107 51 50 103 65 138 40z"/>
</g>
</svg>
