<?xml version="1.0" encoding="UTF-8"?>
<!DOCTYPE svg PUBLIC "-//W3C//DTD SVG 1.1//EN" "http://www.w3.org/Graphics/SVG/1.1/DTD/svg11.dtd">
<svg xmlns="http://www.w3.org/2000/svg" version="1.1" width="514px" height="512px" style="shape-rendering:geometricPrecision; text-rendering:geometricPrecision; image-rendering:optimizeQuality; fill-rule:evenodd; clip-rule:evenodd" xmlns:xlink="http://www.w3.org/1999/xlink">
<g><path style="opacity:0.997" fill="#3777ac" d="M 228.5,-0.5 C 245.5,-0.5 262.5,-0.5 279.5,-0.5C 289.042,0.736165 298.709,2.0695 308.5,3.5C 271.477,39.6899 234.811,76.5232 198.5,114C 187.5,114.167 176.5,114.333 165.5,114.5C 153.941,114.478 142.608,113.812 131.5,112.5C 131.826,92.5907 131.493,72.7573 130.5,53C 133.807,38.3588 141.807,27.0254 154.5,19C 169.103,10.6875 184.77,5.35418 201.5,3C 210.638,1.73349 219.638,0.566821 228.5,-0.5 Z M 181.5,39.5 C 199.623,39.1275 208.123,48.1275 207,66.5C 201.21,80.6459 191.043,85.4792 176.5,81C 168.565,76.7214 164.231,70.0547 163.5,61C 165.029,49.9795 171.029,42.8128 181.5,39.5 Z"/></g>
<g><path style="opacity:0.994" fill="#3773a5" d="M 308.5,3.5 C 325.719,6.61391 341.719,12.7806 356.5,22C 359.666,24.0001 362.332,26.5001 364.5,29.5C 363.262,29.81 363.262,30.31 364.5,31C 254.861,142.306 144.861,253.306 34.5,364C 35.2524,364.671 35.5858,365.504 35.5,366.5C 24.1302,356.786 15.9635,344.786 11,330.5C 8.51833,323.558 6.35166,316.558 4.5,309.5C 62.9657,250.867 121.299,192.034 179.5,133C 189.342,132.83 199.009,132.33 208.5,131.5C 224.5,131.5 240.5,131.5 256.5,131.5C 256.5,126.167 256.5,120.833 256.5,115.5C 214.833,115.5 173.167,115.5 131.5,115.5C 131.5,114.5 131.5,113.5 131.5,112.5C 142.608,113.812 153.941,114.478 165.5,114.5C 176.5,114.333 187.5,114.167 198.5,114C 234.811,76.5232 271.477,39.6899 308.5,3.5 Z"/></g>
<g><path style="opacity:0.996" fill="#366f9f" d="M 364.5,29.5 C 371.508,35.6993 376.342,43.3659 379,52.5C 380.379,63.4451 380.879,74.4451 380.5,85.5C 379.674,90.3165 379.174,95.3165 379,100.5C 330.631,149.368 282.464,198.368 234.5,247.5C 213.134,247.096 191.801,247.596 170.5,249C 148.147,253.364 132.313,265.864 123,286.5C 120.217,293.964 118.217,301.63 117,309.5C 116.5,333.498 116.333,357.498 116.5,381.5C 98.1253,381.918 79.7919,381.418 61.5,380C 51.4915,377.831 42.8249,373.331 35.5,366.5C 35.5858,365.504 35.2524,364.671 34.5,364C 144.861,253.306 254.861,142.306 364.5,31C 363.262,30.31 363.262,29.81 364.5,29.5 Z"/></g>
<g><path style="opacity:0.989" fill="#366c99" d="M 380.5,85.5 C 380.667,119.502 380.5,153.502 380,187.5C 377.194,217.55 361.861,236.217 334,243.5C 329.354,245.297 324.52,246.464 319.5,247C 291.169,247.5 262.835,247.667 234.5,247.5C 282.464,198.368 330.631,149.368 379,100.5C 379.174,95.3165 379.674,90.3165 380.5,85.5 Z"/></g>
<g><path style="opacity:0.992" fill="#3777ac" d="M 208.5,131.5 C 199.009,132.33 189.342,132.83 179.5,133C 121.299,192.034 62.9657,250.867 4.5,309.5C 2.49223,298.081 0.825565,286.748 -0.5,275.5C -0.5,261.833 -0.5,248.167 -0.5,234.5C 0.826607,211.737 6.65994,190.071 17,169.5C 29.2295,148.461 47.3961,135.961 71.5,132C 117.165,131.5 162.832,131.333 208.5,131.5 Z"/></g>
<g><path style="opacity:0.998" fill="#fed141" d="M 476.5,142.5 C 490.548,155.236 500.048,170.903 505,189.5C 507.284,197.755 509.117,206.088 510.5,214.5C 459.195,268.807 407.861,323.14 356.5,377.5C 323.167,377.5 289.833,377.5 256.5,377.5C 256.062,377.565 255.728,377.399 255.5,377C 329.759,299.246 403.426,221.079 476.5,142.5 Z"/></g>
<g><path style="opacity:0.996" fill="#fecc3b" d="M 510.5,214.5 C 511.732,227.296 512.732,239.963 513.5,252.5C 513.5,254.167 513.5,255.833 513.5,257.5C 513.356,280.649 509.523,303.316 502,325.5C 493.768,347.173 479.268,363.006 458.5,373C 453.625,374.802 448.625,376.135 443.5,377C 414.502,377.5 385.502,377.667 356.5,377.5C 407.861,323.14 459.195,268.807 510.5,214.5 Z"/></g>
<g><path style="opacity:0.999" fill="#fed647" d="M 476.5,142.5 C 403.426,221.079 329.759,299.246 255.5,377C 255.728,377.399 256.062,377.565 256.5,377.5C 256.5,383.167 256.5,388.833 256.5,394.5C 255.673,389.349 255.173,384.016 255,378.5C 220.541,413.453 187.041,449.12 154.5,485.5C 141.705,476.93 134.205,464.93 132,449.5C 131.169,408.998 131.335,368.665 132.5,328.5C 132.333,354.835 132.5,381.169 133,407.5C 178.5,359.333 224,311.167 269.5,263C 281.341,262.831 293.007,262.331 304.5,261.5C 315.505,261.667 326.505,261.5 337.5,261C 370.86,254.972 390.026,235.139 395,201.5C 395.5,177.169 395.667,152.836 395.5,128.5C 413.503,128.333 431.503,128.5 449.5,129C 459.667,131.417 468.667,135.917 476.5,142.5 Z"/></g>
<g><path style="opacity:0.998" fill="#fedb4d" d="M 304.5,261.5 C 293.007,262.331 281.341,262.831 269.5,263C 224,311.167 178.5,359.333 133,407.5C 132.5,381.169 132.333,354.835 132.5,328.5C 131.649,299.677 144.315,279.511 170.5,268C 178.876,264.739 187.543,262.739 196.5,262C 232.498,261.5 268.498,261.333 304.5,261.5 Z"/></g>
<g><path style="opacity:0.996" fill="#fed141" d="M 256.5,394.5 C 278.167,394.5 299.833,394.5 321.5,394.5C 326.985,395.327 332.652,395.827 338.5,396C 303.167,433.333 267.833,470.667 232.5,508C 233.056,508.383 233.389,508.883 233.5,509.5C 208.112,508.591 184.112,502.424 161.5,491C 158.98,489.303 156.647,487.47 154.5,485.5C 187.041,449.12 220.541,413.453 255,378.5C 255.173,384.016 255.673,389.349 256.5,394.5 Z"/></g>
<g><path style="opacity:0.987" fill="#fecb3b" d="M 321.5,394.5 C 341.167,394.5 360.833,394.5 380.5,394.5C 380.667,416.836 380.5,439.169 380,461.5C 376.983,472.52 370.816,481.353 361.5,488C 346.464,497.347 330.131,503.347 312.5,506C 286.292,510.049 259.959,511.215 233.5,509.5C 233.389,508.883 233.056,508.383 232.5,508C 267.833,470.667 303.167,433.333 338.5,396C 332.652,395.827 326.985,395.327 321.5,394.5 Z M 320.5,426.5 C 332.706,425.017 341.539,429.684 347,440.5C 349.931,460.903 341.098,470.403 320.5,469C 307.587,463.676 302.754,454.176 306,440.5C 308.832,433.684 313.665,429.017 320.5,426.5 Z"/></g>
</svg>
