<?xml version="1.0" standalone="no"?>
<!DOCTYPE svg PUBLIC "-//W3C//DTD SVG 20010904//EN"
 "http://www.w3.org/TR/2001/REC-SVG-20010904/DTD/svg10.dtd">
<svg version="1.0" xmlns="http://www.w3.org/2000/svg"
 width="800.000000pt" height="800.000000pt" viewBox="0 0 800.000000 800.000000"
 preserveAspectRatio="xMidYMid meet">

<g transform="translate(0.000000,800.000000) scale(0.100000,-0.100000)"
fill="#000000" stroke="none">
<path d="M2520 7206 c-30 -7 -85 -23 -122 -35 -62 -21 -66 -24 -58 -44 5 -12
23 -78 40 -147 48 -196 45 -190 89 -190 59 0 249 -37 335 -65 102 -33 198 -78
315 -147 l93 -56 167 115 c91 63 168 117 170 119 2 2 -9 23 -24 46 -42 64
-162 180 -235 227 -101 66 -258 138 -351 161 -106 27 -337 36 -419 16z"/>
<path d="M5363 7034 c3 -4 39 -17 79 -31 171 -57 344 -162 416 -252 18 -23 45
-67 60 -99 23 -49 27 -70 27 -147 0 -111 -9 -149 -33 -140 -55 21 -339 89
-462 109 -379 64 -707 56 -1018 -24 -240 -62 -424 -153 -607 -299 -64 -51 -68
-53 -45 -21 41 60 186 233 229 275 47 44 49 54 21 80 -16 15 -19 15 -15 3 4
-9 -3 -21 -20 -32 -25 -17 -26 -17 -88 41 l-62 57 54 -56 c29 -31 52 -61 50
-66 -2 -6 -44 -47 -93 -92 -122 -111 -236 -239 -304 -340 -31 -47 -57 -90 -58
-96 -1 -6 -10 -24 -20 -39 -15 -23 -19 -25 -24 -10 -3 9 -10 16 -15 15 -6 0
-13 14 -16 32 -4 21 -7 0 -8 -55 -1 -79 -4 -91 -23 -107 -13 -11 -88 -70 -168
-132 -139 -108 -345 -303 -380 -360 -16 -27 -14 -38 72 -395 71 -297 86 -372
77 -388 -9 -16 -9 -18 2 -7 7 6 21 12 30 12 14 0 18 -16 24 -97 8 -116 30
-270 51 -364 9 -38 13 -73 9 -79 -3 -5 -38 -28 -78 -51 -533 -308 -961 -736
-1247 -1248 -34 -61 -68 -111 -74 -111 -7 0 -27 -11 -46 -25 -38 -28 -95 -34
-103 -11 -5 11 1 13 26 9 39 -6 85 11 94 34 4 10 11 21 17 25 6 4 8 10 4 13
-4 4 -24 -5 -45 -19 -41 -28 -63 -32 -94 -16 -35 19 -22 35 31 35 41 0 55 5
77 27 33 34 25 45 -19 24 -45 -21 -48 -21 -85 -13 -21 4 -33 13 -33 22 0 13 9
15 58 10 53 -6 59 -5 80 20 13 15 22 29 19 31 -2 3 -25 -1 -51 -8 -40 -11 -51
-10 -74 3 -18 10 -26 22 -24 35 2 10 5 20 5 20 1 1 25 -3 54 -9 46 -10 55 -9
73 8 30 27 25 35 -24 35 -77 0 -110 22 -88 57 6 9 19 8 54 -5 40 -14 50 -14
72 -2 33 17 28 34 -10 38 -86 7 -94 11 -95 45 0 29 -1 30 -9 10 -11 -26 -40
-43 -75 -43 -14 0 -42 -7 -62 -15 -30 -13 -33 -17 -23 -30 16 -19 48 -19 95 1
20 8 39 14 40 12 2 -2 1 -15 -2 -29 -5 -28 -55 -59 -96 -59 -12 -1 -33 -7 -46
-14 -24 -13 -24 -14 -3 -25 29 -16 47 -14 94 10 l41 21 -8 -29 c-10 -40 -22
-52 -64 -59 -78 -13 -91 -25 -47 -45 18 -9 31 -7 65 10 l41 21 0 -24 c0 -20
-8 -27 -42 -40 -24 -8 -52 -16 -62 -18 -30 -5 -30 -27 -1 -34 18 -4 40 0 64
12 20 10 39 20 44 22 4 2 7 -5 7 -17 0 -25 -36 -51 -71 -51 -44 0 -62 -10 -48
-26 17 -21 50 -17 92 11 34 23 38 24 44 9 8 -23 -42 -64 -79 -64 -35 0 -59
-10 -52 -21 11 -18 69 -8 106 17 49 34 63 22 20 -17 -23 -21 -43 -29 -68 -29
-24 0 -34 -4 -32 -12 8 -25 53 -19 95 11 49 35 64 29 26 -11 -19 -20 -37 -28
-60 -28 -36 0 -45 -19 -13 -27 11 -3 17 -10 14 -15 -4 -7 11 -9 40 -7 25 2 46
2 46 0 0 -2 -20 -47 -44 -100 -116 -254 -168 -438 -170 -596 -2 -200 23 -235
270 -387 327 -201 724 -331 1174 -384 200 -24 602 -24 805 0 364 42 704 128
1021 256 l93 38 15 -53 c73 -250 398 -338 594 -160 54 49 88 103 74 117 -8 8
-15 8 -24 1 -18 -14 -282 -9 -343 6 -126 32 -214 63 -219 77 -4 10 -13 13 -26
9 -14 -4 -22 -1 -26 10 -4 9 -12 14 -20 11 -46 -18 -43 111 6 210 36 74 110
146 188 182 48 23 71 27 148 27 86 0 95 -2 167 -39 l76 -38 63 48 c176 135
349 300 510 487 60 70 111 127 112 127 1 0 2 -44 2 -97 0 -174 57 -307 189
-438 132 -133 264 -189 440 -189 81 1 114 6 173 27 73 25 152 68 204 110 l27
22 -122 1 c-104 1 -134 5 -202 28 -299 100 -655 361 -666 487 -4 51 1 109 11
109 6 0 10 -7 10 -16 0 -67 144 -228 298 -332 124 -85 297 -167 418 -198 151
-39 287 -27 354 31 8 8 20 13 25 12 16 -3 82 103 110 176 14 38 25 70 25 72 0
3 -21 -9 -46 -25 -98 -61 -260 -66 -424 -10 -106 35 -276 119 -386 191 -42 27
-96 59 -120 71 -66 30 -120 98 -144 178 -30 102 -28 113 36 180 31 33 80 76
110 96 51 36 55 37 123 32 50 -4 82 -12 114 -31 170 -100 168 -347 -3 -445
l-49 -28 67 -41 c310 -190 581 -229 715 -105 24 23 27 33 27 91 -1 170 -68
331 -189 452 -117 117 -229 169 -399 188 -60 6 -87 14 -96 26 -12 16 -2 27 83
95 363 292 647 741 762 1203 17 67 46 181 65 253 96 361 107 678 38 1022 -65
325 -208 637 -405 887 -110 140 -307 331 -428 415 -51 36 -99 70 -106 77 -67
64 -412 211 -615 263 -75 19 -234 50 -228 45 2 -2 44 -30 93 -63 228 -153 405
-353 530 -601 42 -85 46 -98 40 -140 -4 -25 -9 -49 -11 -53 -3 -4 -42 9 -87
28 -88 38 -258 104 -320 124 -27 8 -37 16 -33 27 4 8 11 46 17 84 21 138 -19
267 -117 369 -75 78 -158 132 -310 196 -115 50 -132 54 -201 54 -42 0 -74 -3
-70 -6z m-13 -629 c194 -31 503 -102 540 -125 11 -7 6 -20 -21 -65 -132 -220
-399 -429 -919 -720 -419 -234 -819 -528 -1055 -776 l-58 -61 -19 23 c-136
172 -251 416 -296 629 -36 166 -36 196 -8 279 14 41 26 82 26 90 0 9 22 62 49
118 42 87 61 113 137 190 49 49 118 111 153 137 201 147 489 253 806 295 109
15 541 6 665 -14z m765 -199 c50 -18 147 -57 217 -86 148 -60 139 -34 76 -220
-53 -155 -170 -449 -258 -650 -126 -289 -375 -777 -506 -994 -11 -18 -17 -18
-165 12 -85 17 -210 39 -279 48 -168 21 -532 29 -695 15 -71 -6 -161 -14 -200
-17 l-70 -6 -86 61 c-47 34 -119 92 -159 129 l-73 67 107 102 c307 294 671
548 1196 838 311 171 471 283 592 414 69 74 148 193 178 267 12 30 25 54 29
54 3 0 47 -15 96 -34z m495 -380 c43 -358 -51 -741 -257 -1050 -111 -166 -316
-364 -479 -461 l-41 -24 74 137 c239 442 507 1043 633 1419 51 150 50 150 70
-21z m-1406 -2598 c27 -41 226 -498 226 -518 0 -26 -44 -54 -72 -47 -18 5 -33
30 -67 107 -24 55 -46 100 -49 100 -2 0 -46 -22 -97 -50 -51 -27 -97 -50 -103
-50 -8 0 -52 87 -52 104 0 3 45 28 100 56 55 28 100 53 100 56 0 4 -21 53 -46
111 l-47 104 23 24 c29 31 65 32 84 3z m-326 -188 c33 -66 132 -281 132 -287
0 -2 16 -41 36 -86 57 -130 56 -125 34 -147 -11 -11 -33 -20 -50 -20 -28 0
-33 6 -61 67 -16 37 -37 82 -45 100 l-16 32 -99 -49 c-54 -28 -103 -50 -108
-50 -9 0 -57 108 -50 114 2 1 50 24 105 50 l102 48 -49 110 c-52 117 -53 139
-6 158 36 15 51 7 75 -40z m-300 -245 c141 -311 180 -410 170 -428 -11 -21
-55 -40 -75 -33 -7 3 -33 48 -58 101 l-44 95 -56 -25 c-31 -14 -78 -36 -104
-50 -27 -13 -52 -21 -55 -17 -9 9 -46 92 -46 104 0 5 47 31 104 58 l105 49
-50 112 -50 111 23 25 c16 17 31 23 52 21 27 -3 33 -12 84 -123z m-396 -52
c16 -19 51 -94 169 -366 73 -170 76 -190 25 -203 -45 -11 -56 0 -97 91 -22 50
-44 93 -48 98 -4 4 -53 -13 -109 -38 -57 -25 -104 -45 -107 -45 -6 0 -40 68
-49 96 -6 19 4 26 99 65 58 24 105 49 105 55 0 6 -20 55 -44 109 -48 105 -48
127 -3 145 33 13 42 12 59 -7z m-290 -258 c111 -246 179 -411 176 -430 -3 -23
-51 -49 -76 -41 -10 4 -35 46 -61 106 -36 83 -47 99 -62 95 -9 -3 -59 -24
-109 -45 -51 -22 -96 -37 -100 -35 -9 6 -54 115 -49 119 2 1 52 22 111 46 97
40 106 45 98 64 -4 12 -24 56 -44 100 -20 43 -36 82 -36 87 0 22 42 50 72 47
28 -3 34 -11 80 -113z m-2225 -40 c-28 -25 -71 -33 -81 -16 -3 5 14 12 39 15
24 4 47 11 50 17 4 5 9 9 13 9 4 0 -6 -12 -21 -25z m1830 -7 c13 -21 100 -213
170 -377 l66 -154 -27 -24 c-30 -25 -58 -30 -74 -10 -5 6 -28 55 -52 108 l-42
97 -109 -44 c-60 -24 -112 -44 -116 -44 -14 0 -57 110 -47 120 5 4 52 25 104
46 52 20 98 40 102 43 4 3 -11 46 -33 95 -21 48 -39 95 -39 104 0 40 76 72 97
40z m-1852 -48 c-3 -5 -13 -10 -21 -10 -8 0 -14 5 -14 10 0 6 9 10 21 10 11 0
17 -4 14 -10z m-35 -51 c-12 -22 -78 -55 -89 -43 -3 4 0 9 7 11 7 3 25 16 40
29 35 30 57 32 42 3z m1577 -129 c62 -126 193 -433 193 -452 0 -21 -54 -51
-79 -43 -11 3 -35 44 -62 106 -24 56 -48 103 -55 106 -6 2 -51 -12 -100 -31
-48 -20 -93 -36 -100 -36 -10 0 -54 90 -54 110 0 4 42 24 93 45 50 20 95 40
99 43 4 4 -11 47 -33 96 -21 48 -39 94 -39 102 0 20 42 45 70 42 20 -2 33 -18
67 -88z m-375 -37 c15 -19 47 -87 165 -358 l73 -170 -26 -23 c-16 -14 -36 -22
-51 -20 -22 3 -38 32 -146 272 l-121 269 28 23 c32 28 57 30 78 7z"/>
<path d="M1225 6846 c-56 -46 -125 -110 -155 -143 -84 -90 -143 -163 -133
-163 5 0 38 12 73 26 34 14 70 22 78 19 9 -3 14 -3 10 0 -7 8 90 156 174 268
32 42 58 77 56 77 -2 0 -48 -38 -103 -84z"/>
<path d="M1071 6464 c0 -11 3 -14 6 -6 3 7 2 16 -1 19 -3 4 -6 -2 -5 -13z"/>
<path d="M1949 6453 l-24 -28 28 24 c25 23 32 31 24 31 -2 0 -14 -12 -28 -27z"/>
<path d="M1427 6269 c-83 -9 -189 -40 -278 -80 l-66 -30 -46 -110 c-72 -170
-113 -327 -155 -591 l-9 -58 90 -95 c49 -53 121 -122 161 -154 85 -70 255
-191 267 -191 5 0 137 121 293 270 259 247 283 272 278 297 -11 63 -172 726
-177 731 -18 18 -242 25 -358 11z"/>
<path d="M779 5343 c-13 -16 -12 -17 4 -4 16 13 21 21 13 21 -2 0 -10 -8 -17
-17z"/>
<path d="M679 5243 c-13 -16 -12 -17 4 -4 16 13 21 21 13 21 -2 0 -10 -8 -17
-17z"/>
<path d="M545 5200 c10 -85 36 -242 44 -264 5 -13 12 18 19 85 10 103 10 105
-15 149 -51 89 -55 91 -48 30z"/>
<path d="M971 4239 c-18 -7 -22 -29 -5 -29 3 0 2 5 -2 12 -4 6 -3 8 3 5 5 -3
23 -3 39 2 25 6 26 8 9 13 -12 3 -31 1 -44 -3z"/>
<path d="M910 4210 c-8 -5 -23 -11 -33 -14 -10 -3 -16 -10 -13 -15 3 -5 -1
-11 -9 -14 -9 -4 -12 -1 -8 9 7 19 -7 18 -36 -2 -15 -11 -19 -20 -13 -26 6 -6
8 -17 5 -24 -3 -8 0 -14 7 -14 9 0 9 -4 -1 -17 -12 -15 -12 -16 5 -9 20 7 20
7 1 -14 -16 -18 -17 -23 -5 -30 11 -7 11 -11 1 -23 -21 -26 5 -27 39 -2 42 31
90 34 90 5 0 -17 -7 -20 -39 -20 -28 0 -49 -7 -68 -24 -36 -31 -23 -44 23 -22
39 18 74 14 74 -10 0 -11 -9 -13 -39 -8 -44 7 -90 -18 -91 -48 0 -22 3 -22 40
-3 38 20 80 10 80 -17 0 -19 -5 -20 -47 -15 -51 5 -93 -13 -93 -40 0 -12 7
-14 28 -8 38 10 82 9 92 -1 5 -5 7 -20 3 -32 -4 -17 -10 -21 -22 -16 -33 15
-86 15 -105 1 -27 -20 -11 -41 25 -33 16 3 41 1 55 -4 22 -9 25 -14 19 -38 -9
-35 -7 -35 -41 -17 -35 18 -66 19 -82 3 -22 -22 -13 -38 21 -38 48 0 72 -20
63 -53 -8 -33 -16 -33 -62 -2 -43 30 -50 30 -58 8 -8 -19 -1 -27 45 -52 27
-15 34 -25 32 -46 -3 -41 -9 -41 -52 -7 -75 60 -103 34 -36 -34 43 -43 54 -73
30 -81 -5 -1 -27 13 -48 32 -71 65 -96 30 -27 -36 32 -31 39 -44 36 -65 -3
-15 -8 -29 -10 -32 -8 -8 -46 29 -62 60 -14 28 -38 37 -48 19 -3 -5 10 -33 30
-62 27 -40 34 -59 29 -78 l-7 -26 -21 27 c-12 15 -32 40 -44 55 -11 16 -24 25
-28 21 -11 -11 14 -74 41 -104 22 -23 24 -31 15 -51 -6 -12 -15 -23 -20 -23
-10 0 -51 79 -51 98 0 7 -4 12 -10 12 -5 0 -10 -17 -10 -37 0 -26 8 -45 26
-64 18 -19 24 -33 19 -48 -11 -35 -24 -24 -55 42 -26 56 -29 59 -30 32 -3 -46
0 -57 26 -93 14 -17 22 -37 19 -43 -12 -19 86 -79 130 -79 39 0 30 13 -35 50
-56 32 -72 51 -51 64 5 3 29 -3 52 -14 46 -20 109 -27 109 -11 0 5 -30 24 -66
41 -60 28 -65 33 -52 47 14 13 20 13 61 -1 49 -16 110 -12 104 8 -2 6 -29 20
-60 31 -40 14 -57 24 -55 35 3 12 19 14 92 11 106 -4 115 13 20 43 -32 10 -60
20 -62 21 -2 2 2 13 8 25 11 21 17 22 74 17 117 -11 147 16 44 39 -5 1 -24 2
-43 3 -40 1 -44 12 -15 41 16 16 33 20 94 20 41 0 77 4 80 9 11 17 -21 30 -82
33 -34 1 -62 5 -62 8 0 22 33 42 85 51 33 6 70 13 83 15 13 3 22 10 19 17 -2
8 -27 12 -70 12 -54 0 -67 3 -67 16 0 36 58 69 124 69 37 0 61 14 52 29 -9 14
-76 14 -110 1 -22 -8 -26 -7 -26 8 0 34 24 52 85 63 84 16 85 17 85 34 0 20
-58 20 -105 1 -32 -14 -35 -13 -35 2 0 9 4 22 8 28 12 19 65 41 110 47 50 6
60 13 44 29 -16 16 -75 12 -112 -7 -27 -14 -30 -14 -30 0 0 21 34 53 62 59 13
3 41 9 62 13 22 5 41 14 44 21 6 19 -68 15 -111 -7 -25 -12 -39 -15 -44 -8 -8
14 50 65 82 72 14 3 36 7 50 10 34 7 31 22 -5 30 -23 5 -41 0 -75 -20 -25 -14
-45 -22 -45 -16 0 40 47 71 110 71 40 0 53 13 24 24 -26 10 -48 7 -87 -13 -29
-15 -37 -16 -37 -5 0 21 60 54 98 54 42 0 38 24 -4 28 -19 2 -43 -6 -67 -23
-49 -33 -57 -32 -17 2 18 14 48 30 69 34 33 6 34 8 13 14 -18 6 -21 10 -10 17
8 6 1 7 -22 3 -49 -8 -63 -9 -80 -2 -8 3 -22 2 -30 -3z m110 -4 c0 -2 -17 -14
-37 -25 l-38 -22 28 26 c25 22 47 32 47 21z m-101 -50 c-2 -2 -20 -6 -39 -10
-25 -4 -31 -3 -20 4 14 9 69 15 59 6z m10 -30 c-11 -9 -69 -15 -64 -6 3 6 20
10 37 10 17 0 29 -2 27 -4z m11 -46 c0 -5 -13 -10 -29 -10 -16 0 -38 -3 -48
-7 -16 -6 -16 -5 -4 10 15 18 81 24 81 7z"/>
<path d="M2759 4193 c-13 -16 -12 -17 4 -4 16 13 21 21 13 21 -2 0 -10 -8 -17
-17z"/>
<path d="M2659 4103 c-13 -16 -12 -17 4 -4 16 13 21 21 13 21 -2 0 -10 -8 -17
-17z"/>
<path d="M2046 3949 c80 -86 118 -139 106 -151 -6 -6 -12 -6 -16 1 -4 6 -12
11 -18 11 -6 0 6 -18 26 -40 21 -24 36 -50 36 -65 0 -39 -17 -29 -24 14 -4 29
-15 46 -37 61 -42 30 -49 17 -12 -23 16 -17 33 -41 37 -52 5 -16 2 -15 -14 5
-11 14 -20 28 -20 32 0 11 -56 38 -77 38 -13 -1 -6 -11 24 -38 24 -21 44 -47
45 -61 4 -36 -17 -36 -32 -1 -16 38 -51 63 -81 58 -20 -3 -18 -6 18 -31 42
-29 61 -66 41 -78 -6 -4 -25 8 -43 27 -25 27 -40 34 -69 34 -20 0 -36 -2 -36
-4 0 -2 23 -18 50 -35 50 -31 60 -47 39 -68 -9 -9 -19 -5 -40 16 -30 30 -75
44 -98 31 -11 -6 -4 -13 25 -28 50 -25 68 -47 60 -68 -6 -15 -9 -15 -24 -2
-28 24 -71 38 -112 38 -54 0 -50 -15 9 -35 62 -20 86 -44 68 -69 -12 -16 -15
-16 -62 4 -50 22 -116 24 -122 4 -2 -6 23 -19 56 -28 66 -18 75 -26 66 -55 -5
-17 -10 -18 -38 -10 -43 13 -137 13 -150 0 -13 -13 22 -28 85 -36 54 -7 59
-11 47 -43 -8 -22 -11 -23 -92 -16 -68 5 -85 4 -95 -9 -18 -21 -3 -28 74 -35
65 -5 69 -8 58 -36 -5 -13 -22 -16 -79 -16 -52 0 -76 -4 -85 -15 -7 -8 -17
-12 -24 -8 -6 4 -5 -1 3 -10 11 -14 25 -16 82 -10 l70 6 -11 -29 c-15 -38 -26
-44 -90 -44 -66 0 -100 -8 -100 -24 0 -18 35 -35 51 -25 8 5 33 9 56 9 l42 0
-10 -30 c-12 -33 -22 -38 -97 -45 -61 -6 -72 -10 -72 -30 0 -23 41 -27 89 -10
42 15 46 14 100 -10 47 -22 59 -24 78 -14 33 18 29 25 -19 37 -60 15 -82 33
-74 60 9 27 22 28 64 2 31 -19 72 -20 72 -1 0 14 -34 39 -63 47 -34 8 -43 25
-27 53 14 27 26 26 62 -4 33 -28 48 -25 48 9 0 16 -11 29 -35 42 -36 19 -41
29 -26 53 10 15 36 5 65 -28 11 -12 25 -21 33 -21 25 0 13 33 -27 71 -38 36
-39 38 -22 59 17 21 17 21 37 2 11 -11 28 -29 37 -41 23 -28 38 -27 38 3 0 14
-15 38 -37 59 l-36 36 18 27 18 28 21 -27 c12 -15 31 -39 43 -54 l22 -28 1 25
c0 22 -14 49 -52 102 -9 13 -9 20 1 32 21 25 29 20 64 -36 l32 -53 3 39 c3 30
-2 44 -22 65 -29 31 -32 44 -13 60 17 13 37 -7 57 -57 19 -48 30 -49 30 -2 0
32 -6 47 -27 66 -24 23 -25 26 -11 41 23 23 44 10 54 -32 10 -42 28 -47 32 -9
2 17 -5 35 -19 51 -20 20 -21 25 -9 33 29 19 36 11 55 -59 l12 -46 14 29 c12
25 11 32 -8 67 -21 38 -20 49 3 49 14 0 34 -51 34 -87 0 -14 4 -21 10 -18 15
10 12 63 -6 90 -15 23 -15 25 0 25 9 0 18 -11 21 -25 3 -14 7 -36 10 -50 3
-14 10 -23 15 -20 15 9 12 43 -6 71 -9 13 -13 28 -10 32 13 12 36 -31 36 -67
1 -29 3 -33 11 -19 7 12 5 28 -5 53 -8 19 -11 35 -7 35 12 0 31 -47 31 -76 0
-15 4 -23 10 -19 6 4 17 -9 25 -29 l15 -35 52 16 c74 21 157 53 162 61 2 4
-26 83 -63 177 l-67 170 -105 11 c-99 12 -221 35 -264 50 -12 4 0 -14 31 -47z
m154 -225 c0 -7 3 -19 6 -28 3 -9 2 -16 -3 -16 -4 0 -13 21 -19 47 -10 40 -9
44 2 28 8 -10 14 -24 14 -31z m28 -39 c-3 -3 -9 2 -12 12 -6 14 -5 15 5 6 7
-7 10 -15 7 -18z"/>
<path d="M420 3067 c0 -18 11 -49 25 -70 24 -35 26 -57 5 -57 -5 0 -17 24 -28
53 -19 49 -20 51 -27 25 -5 -20 -1 -38 16 -65 13 -21 24 -40 25 -43 6 -41 58
-89 114 -105 20 -5 14 3 -27 43 -29 27 -53 57 -53 68 1 16 3 14 15 -7 14 -26
43 -42 99 -55 42 -10 30 10 -29 48 -27 18 -51 42 -54 53 -2 11 -14 32 -26 47
-12 15 -26 43 -29 62 -9 45 -26 47 -26 3z"/>
<path d="M358 2986 c-10 -7 -18 -19 -18 -25 0 -7 -4 -10 -8 -7 -18 11 -33 -10
-23 -35 5 -13 10 -17 11 -9 1 20 33 -48 36 -79 2 -13 7 -27 12 -30 11 -7 36
-52 37 -66 0 -11 45 -17 45 -6 0 3 -14 19 -30 34 -30 28 -48 72 -36 84 3 4 6
-3 6 -15 0 -26 56 -92 78 -92 9 0 -1 15 -26 38 -28 26 -42 47 -42 64 0 14 -6
28 -14 31 -14 6 -32 64 -23 74 7 6 40 -54 44 -80 7 -39 34 -75 68 -92 52 -24
52 -13 0 29 -34 28 -45 44 -45 66 0 15 -6 30 -14 33 -8 3 -20 26 -28 51 -12
40 -15 43 -30 32z m14 -113 c6 -7 6 -13 1 -13 -11 0 -33 44 -32 63 0 7 5 1 10
-12 5 -14 15 -31 21 -38z"/>
<path d="M6490 2127 c0 -11 145 -96 240 -141 139 -67 252 -96 359 -94 l86 1
-90 7 c-104 8 -181 27 -285 70 -69 29 -236 114 -287 148 -13 8 -23 12 -23 9z"/>
<path d="M6220 1937 c35 -40 166 -138 253 -189 79 -46 229 -114 274 -123 15
-3 -12 11 -62 32 -167 71 -353 184 -455 276 -32 29 -33 30 -10 4z"/>
<path d="M7130 1622 l-55 -56 52 43 c53 43 68 59 62 66 -2 2 -29 -22 -59 -53z"/>
<path d="M6795 1610 c11 -5 29 -8 40 -8 16 0 15 2 -5 8 -34 11 -60 11 -35 0z"/>
<path d="M6873 1593 c9 -2 25 -2 35 0 9 3 1 5 -18 5 -19 0 -27 -2 -17 -5z"/>
<path d="M4790 1171 c0 -6 5 -13 10 -16 6 -3 10 1 10 9 0 9 -4 16 -10 16 -5 0
-10 -4 -10 -9z"/>
<path d="M4842 1138 c6 -18 28 -21 28 -4 0 9 -7 16 -16 16 -9 0 -14 -5 -12
-12z"/>
<path d="M4900 1106 c0 -14 29 -31 38 -22 2 3 2 12 -1 21 -8 19 -37 20 -37 1z"/>
<path d="M4985 1091 c-8 -15 3 -31 21 -31 9 0 14 7 12 17 -4 20 -24 28 -33 14z"/>
<path d="M5070 1066 c0 -11 9 -16 26 -16 31 0 28 23 -4 28 -15 2 -22 -2 -22
-12z"/>
<path d="M5165 1070 c-4 -6 -3 -14 0 -20 9 -15 35 -12 35 4 0 17 -27 29 -35
16z"/>
<path d="M5385 1070 c-3 -5 -1 -10 4 -10 6 0 11 5 11 10 0 6 -2 10 -4 10 -3 0
-8 -4 -11 -10z"/>
<path d="M5240 1056 c0 -10 9 -16 21 -16 24 0 21 23 -4 28 -10 2 -17 -3 -17
-12z"/>
<path d="M5320 1054 c0 -17 22 -14 28 4 2 7 -3 12 -12 12 -9 0 -16 -7 -16 -16z"/>
</g>
</svg>
