<?xml version="1.0" standalone="no"?>
<!DOCTYPE svg PUBLIC "-//W3C//DTD SVG 20010904//EN"
 "http://www.w3.org/TR/2001/REC-SVG-20010904/DTD/svg10.dtd">
<svg version="1.0" xmlns="http://www.w3.org/2000/svg"
 width="97.000000pt" height="130.000000pt" viewBox="0 0 97.000000 130.000000"
 preserveAspectRatio="xMidYMid meet">

<g transform="translate(0.000000,130.000000) scale(0.100000,-0.100000)"
fill="#000000" stroke="none">
<path d="M10 622 l0 -460 25 -30 c30 -36 122 -78 217 -99 113 -26 367 -23 480
5 103 25 178 61 207 98 21 26 21 35 21 485 l0 458 -25 -25 c-38 -38 -124 -73
-233 -96 -81 -17 -122 -19 -252 -15 -213 7 -342 42 -413 112 l-27 28 0 -461z
m288 72 c17 -5 22 -14 22 -41 0 -30 -3 -34 -20 -29 -11 3 -28 8 -38 11 -24 7
-55 -16 -47 -35 3 -9 26 -26 51 -39 53 -28 78 -69 69 -112 -12 -55 -91 -90
-160 -71 -26 7 -30 14 -33 46 -3 35 -2 37 18 26 11 -6 37 -10 58 -8 54 4 54
30 -1 62 -24 15 -52 35 -62 45 -20 23 -23 85 -4 108 29 34 95 51 147 37z m300
-22 c83 -60 83 -205 0 -268 l-24 -18 38 -34 c21 -19 38 -38 38 -43 0 -5 -20
-9 -44 -9 -40 0 -48 4 -72 35 -14 19 -31 35 -37 35 -6 0 -29 9 -52 20 -118 57
-112 240 10 296 40 19 106 12 143 -14z m182 -107 l0 -125 55 0 c54 0 55 0 55
-30 l0 -30 -95 0 -95 0 0 155 0 155 40 0 40 0 0 -125z"/>
<path d="M465 605 c-19 -18 -25 -35 -25 -70 0 -51 32 -95 70 -95 37 0 70 44
70 93 0 85 -63 125 -115 72z"/>
</g>
</svg>
