<?xml version="1.0" encoding="UTF-8"?>
<!DOCTYPE svg PUBLIC "-//W3C//DTD SVG 1.1//EN" "http://www.w3.org/Graphics/SVG/1.1/DTD/svg11.dtd">
<svg xmlns="http://www.w3.org/2000/svg" version="1.1" width="97px" height="130px" style="shape-rendering:geometricPrecision; text-rendering:geometricPrecision; image-rendering:optimizeQuality; fill-rule:evenodd; clip-rule:evenodd" xmlns:xlink="http://www.w3.org/1999/xlink">
<g><path style="opacity:1" fill="#fbfcfc" d="M -0.5,-0.5 C 31.8333,-0.5 64.1667,-0.5 96.5,-0.5C 96.5,42.8333 96.5,86.1667 96.5,129.5C 64.1667,129.5 31.8333,129.5 -0.5,129.5C -0.5,86.1667 -0.5,42.8333 -0.5,-0.5 Z"/></g>
<g><path style="opacity:1" fill="#b7d331" d="M 76.5,24.5 C 75.158,23.207 73.4913,22.3736 71.5,22C 53.6899,18.3251 36.0232,18.8251 18.5,23.5C 12.7755,22.958 10.2755,19.958 11,14.5C 14.2975,11.4333 18.1308,9.26663 22.5,8C 37.4321,5.0797 52.4321,4.74637 67.5,7C 74.1357,7.76296 79.969,10.263 85,14.5C 85.6667,16.1667 85.6667,17.8333 85,19.5C 82.3859,21.5564 79.5525,23.2231 76.5,24.5 Z"/></g>
<g><path style="opacity:1" fill="#81bb14" d="M 76.5,24.5 C 59.3277,29.1435 41.9943,29.6435 24.5,26C 22.1484,25.7599 20.1484,24.9265 18.5,23.5C 36.0232,18.8251 53.6899,18.3251 71.5,22C 73.4913,22.3736 75.158,23.207 76.5,24.5 Z"/></g>
<g><path style="opacity:1" fill="#0671c6" d="M 47.5,35.5 C 47.5,43.8333 47.5,52.1667 47.5,60.5C 39.8159,62.5205 35.8159,67.5205 35.5,75.5C 35.3935,84.0444 39.3935,89.3777 47.5,91.5C 47.5,103.5 47.5,115.5 47.5,127.5C 50.3854,127.194 53.0521,127.527 55.5,128.5C 38.3527,130.076 22.0194,127.242 6.5,120C 4.29113,118.127 2.4578,115.96 1,113.5C 0.333333,82.8333 0.333333,52.1667 1,21.5C 5.09727,25.7981 9.93061,28.9648 15.5,31C 25.9264,34.2276 36.593,35.7276 47.5,35.5 Z"/></g>
<g><path style="opacity:1" fill="#2787cf" d="M 55.5,128.5 C 53.0521,127.527 50.3854,127.194 47.5,127.5C 47.5,115.5 47.5,103.5 47.5,91.5C 50.5628,93.0512 53.2295,95.2179 55.5,98C 58.1667,98.6667 60.8333,98.6667 63.5,98C 61.1667,95.6667 58.8333,93.3333 56.5,91C 64.8407,85.4781 67.3407,77.9781 64,68.5C 60.551,61.6926 55.051,59.0259 47.5,60.5C 47.5,52.1667 47.5,43.8333 47.5,35.5C 61.3521,35.6916 74.6855,33.1916 87.5,28C 90.2953,26.2068 92.7953,24.0402 95,21.5C 95.6667,52.1667 95.6667,82.8333 95,113.5C 91.7128,119.067 86.8795,122.567 80.5,124C 72.3689,126.663 64.0356,128.163 55.5,128.5 Z"/></g>
<g><path style="opacity:1" fill="#f8fafd" d="M 18.5,60.5 C 22.7675,60.203 26.9341,60.5363 31,61.5C 31.6667,63.5 31.6667,65.5 31,67.5C 28.3669,65.8399 25.5335,65.3399 22.5,66C 19.8333,68 19.8333,70 22.5,72C 30.2406,74.039 33.4072,78.8723 32,86.5C 30.8906,88.8147 29.0573,90.3147 26.5,91C 22.2452,91.7961 18.0785,91.6295 14,90.5C 13.3333,88.1667 13.3333,85.8333 14,83.5C 17.1408,86.2952 20.6408,86.9619 24.5,85.5C 25.8485,83.3886 25.5152,81.5553 23.5,80C 12.3828,75.5571 10.7161,69.0571 18.5,60.5 Z"/></g>
<g><path style="opacity:1" fill="#f6f9fc" d="M 47.5,60.5 C 55.051,59.0259 60.551,61.6926 64,68.5C 67.3407,77.9781 64.8407,85.4781 56.5,91C 58.8333,93.3333 61.1667,95.6667 63.5,98C 60.8333,98.6667 58.1667,98.6667 55.5,98C 53.2295,95.2179 50.5628,93.0512 47.5,91.5C 39.3935,89.3777 35.3935,84.0444 35.5,75.5C 35.8159,67.5205 39.8159,62.5205 47.5,60.5 Z"/></g>
<g><path style="opacity:1" fill="#f2f6fb" d="M 70.5,60.5 C 72.8333,60.5 75.1667,60.5 77.5,60.5C 77.5,68.8333 77.5,77.1667 77.5,85.5C 81.1667,85.5 84.8333,85.5 88.5,85.5C 88.5,87.5 88.5,89.5 88.5,91.5C 82.5,91.5 76.5,91.5 70.5,91.5C 70.5,81.1667 70.5,70.8333 70.5,60.5 Z"/></g>
<g><path style="opacity:1" fill="#2a87cf" d="M 46.5,67.5 C 54.214,64.6915 57.8807,67.5249 57.5,76C 58.0617,83.8509 54.7284,86.6842 47.5,84.5C 47.8222,78.642 47.4889,72.9753 46.5,67.5 Z"/></g>
<g><path style="opacity:1" fill="#1c74c7" d="M 46.5,67.5 C 47.4889,72.9753 47.8222,78.642 47.5,84.5C 45.5891,84.4257 44.4224,83.4257 44,81.5C 43.3333,77.8333 43.3333,74.1667 44,70.5C 44.3768,69.0577 45.2101,68.0577 46.5,67.5 Z"/></g>
</svg>
